<svg version="1.1" id="Layer_1" xmlns="http://www.w3.org/2000/svg" xmlns:xlink="http://www.w3.org/1999/xlink" x="0px" y="0px"
	 width="100%" viewBox="0 0 1043 1219" enable-background="new 0 0 1043 1219" xml:space="preserve">
<path fill="#000000" opacity="0.000000" stroke="none" 
	d="
M1.000000,478.000000 
	C1.000000,318.684174 1.000000,159.868347 1.000000,1.026257 
	C348.610840,1.026257 696.221680,1.026257 1043.916260,1.026257 
	C1043.916260,407.232727 1043.916260,813.465515 1043.916260,1219.849121 
	C696.333374,1219.849121 348.666687,1219.849121 1.000000,1219.849121 
	C1.000000,972.777893 1.000000,725.638977 1.000000,478.000000 
M850.029846,739.402771 
	C848.689941,727.373596 847.523682,715.321838 845.968262,703.320618 
	C843.784119,686.466858 841.499512,669.621399 838.909180,652.826172 
	C836.239075,635.514099 832.080261,618.548828 825.736084,602.167297 
	C825.267273,600.956848 825.268250,599.564453 825.056091,598.288025 
	C828.184753,597.779114 830.576477,597.289795 832.992554,597.013916 
	C845.041138,595.637878 857.149109,594.672791 869.134277,592.881287 
	C881.839722,590.982056 894.450378,588.418457 907.066895,585.962402 
	C928.400391,581.809326 950.057678,579.217102 970.520081,571.084839 
	C989.161438,563.676392 1002.542053,551.347839 1006.755981,531.562744 
	C1008.863281,521.668823 1008.114319,511.070129 1007.916321,500.804504 
	C1007.623291,485.608032 1006.615540,470.426453 1006.018127,455.234375 
	C1005.595398,444.483093 1005.408325,433.722656 1004.997925,422.970795 
	C1004.784241,417.373077 1004.448669,411.772736 1003.934509,406.195129 
	C1002.698914,392.790619 1001.417786,379.388824 999.964844,366.006561 
	C999.332092,360.178925 998.487427,354.348877 997.292480,348.612946 
	C994.670654,336.027985 991.779663,323.577606 986.100037,311.820435 
	C980.191833,299.590393 972.069641,289.342346 960.852661,282.029663 
	C944.107422,271.112946 924.910339,267.343384 905.366516,266.112091 
	C891.680664,265.249817 877.881165,265.604156 864.156494,266.091858 
	C847.014282,266.700928 829.886658,267.860992 812.772583,269.065125 
	C803.290527,269.732330 793.854614,271.033813 784.386780,271.932922 
	C779.711426,272.376831 775.010986,272.556580 769.879028,272.884125 
	C770.364014,270.931763 771.005249,269.552979 771.003601,268.174988 
	C770.981995,250.431778 772.068420,232.579788 766.140381,215.376205 
	C761.101135,200.752029 756.576294,185.927246 750.928589,171.542725 
	C745.463745,157.623993 738.183960,144.625320 729.317078,132.391388 
	C716.466553,114.661034 701.943665,98.665283 685.165527,84.637375 
	C668.388611,70.610466 649.194153,60.796295 628.936096,53.178707 
	C618.049988,49.085197 606.656555,45.961868 595.228271,43.785633 
	C581.146484,41.104107 566.822021,38.675346 552.544739,38.293625 
	C533.386658,37.781399 514.130249,38.757572 494.998047,40.190102 
	C480.890442,41.246418 466.705139,43.146465 452.931610,46.311737 
	C435.374420,50.346535 417.781189,54.942032 400.979706,61.335575 
	C385.776978,67.120758 371.433655,75.305588 357.040955,83.045166 
	C335.642181,94.552223 316.752716,109.669159 299.293182,126.384216 
	C288.631989,136.590805 278.980286,147.910995 269.431183,159.201263 
	C261.785187,168.241409 254.685501,177.785614 247.880829,187.483246 
	C241.314041,196.841919 235.077972,206.476334 229.346848,216.366409 
	C222.534012,228.123093 215.961777,240.066605 210.136383,252.333313 
	C205.343445,262.425964 201.590836,273.034760 197.746597,283.549866 
	C193.564468,294.989258 189.361145,306.455444 185.990417,318.147369 
	C182.475540,330.339325 179.517197,342.731750 177.097366,355.188385 
	C174.578568,368.154602 172.940399,381.294434 171.024002,394.374023 
	C170.080444,400.813873 169.377884,407.289062 168.599091,413.487091 
	C166.504761,413.309479 164.728989,412.949524 162.977905,413.044495 
	C151.944046,413.643127 140.855194,413.832245 129.899902,415.130554 
	C114.062874,417.007477 98.393837,419.865112 84.034851,427.537537 
	C71.534508,434.216858 64.253326,445.022217 60.066727,457.998779 
	C54.345325,475.732666 54.842430,494.298370 54.106110,512.614563 
	C53.675339,523.330139 54.630657,534.103333 55.008492,544.848938 
	C55.299034,553.112000 55.669239,561.372192 55.990341,569.634216 
	C56.664902,586.990662 57.264053,604.350281 58.021984,621.703003 
	C58.569176,634.230896 59.119987,646.764648 60.035694,659.268921 
	C61.164749,674.686523 62.583637,690.084961 64.047638,705.475464 
	C65.225227,717.855103 66.469696,730.234131 68.023758,742.570740 
	C69.820930,756.837219 72.269852,771.024719 73.909943,785.306885 
	C75.262489,797.085083 78.413086,808.177490 82.720901,819.237671 
	C88.984192,835.318359 98.867065,848.063843 113.481148,856.963684 
	C126.164299,864.687622 139.200729,870.706299 155.046341,869.293762 
	C166.027588,868.314880 175.416885,864.059387 185.220139,859.576233 
	C185.515686,860.328674 185.912979,860.898865 185.946503,861.489746 
	C186.985367,879.799744 187.840652,898.121521 189.055923,916.419495 
	C189.728867,926.551819 190.778702,936.671814 192.041870,946.749329 
	C194.197845,963.949646 196.943512,981.079407 198.900360,998.300293 
	C200.643768,1013.642883 201.751724,1029.061035 202.960388,1044.460083 
	C204.094757,1058.912476 205.224915,1073.372314 205.928787,1087.849609 
	C206.580902,1101.262329 207.092148,1114.709961 206.861191,1128.128296 
	C206.689407,1138.110107 210.784027,1145.389282 219.055069,1149.901978 
	C227.430176,1154.471436 236.140503,1158.825195 245.211853,1161.632324 
	C261.209015,1166.582397 277.921814,1168.604492 294.614838,1168.786743 
	C311.308044,1168.969116 328.049011,1168.088013 344.709595,1166.863525 
	C357.232880,1165.943237 369.709778,1164.036255 382.118073,1162.019165 
	C391.919647,1160.425781 401.535706,1157.712524 411.322479,1156.001953 
	C428.236389,1153.045654 444.044922,1146.820923 457.370300,1136.438354 
	C467.941376,1128.201904 474.978943,1116.378174 477.813507,1102.789062 
	C478.747955,1098.309326 477.773590,1093.058594 479.760254,1089.249634 
	C483.734283,1081.630615 483.376587,1074.158569 482.195923,1066.220459 
	C481.184021,1059.416870 480.616516,1052.539185 480.064636,1045.677124 
	C479.286224,1035.999390 478.774353,1026.300293 478.021393,1016.620239 
	C476.733032,1000.057007 475.246094,983.508728 474.034515,966.940125 
	C473.180054,955.254944 473.042145,943.506348 471.869232,931.858032 
	C470.181122,915.093811 468.255035,898.330200 465.638916,881.690796 
	C463.879517,870.500244 460.777008,859.519043 458.225952,848.455566 
	C456.926666,842.820862 455.518311,837.211243 454.060516,831.181946 
	C492.309845,847.770325 531.198914,845.992126 570.588501,837.758484 
	C571.118286,839.887512 571.691162,841.585205 571.951294,843.329590 
	C574.358948,859.475586 576.759338,875.622986 579.066528,891.783508 
	C580.798096,903.911987 582.261597,916.079773 584.079773,928.194702 
	C585.894165,940.284119 588.221741,952.298584 589.922607,964.402344 
	C591.886047,978.374512 593.614929,992.387085 595.069275,1006.421204 
	C596.610168,1021.289673 597.904907,1036.190308 598.943481,1051.102295 
	C599.914490,1065.043701 601.411682,1078.687988 607.017334,1091.826782 
	C613.119141,1106.128540 623.530579,1115.339355 638.173462,1118.361206 
	C651.761108,1121.165283 665.812439,1122.375244 679.709106,1122.855469 
	C695.432861,1123.398804 711.217346,1122.497314 726.964233,1121.918945 
	C733.669189,1121.672852 740.355713,1120.738159 747.032898,1119.963989 
	C757.768372,1118.719238 768.487183,1117.331787 779.216736,1116.035400 
	C786.057556,1115.208740 792.912048,1114.492554 799.747986,1113.629028 
	C809.151550,1112.441284 818.581726,1111.393311 827.928467,1109.849731 
	C835.867798,1108.538452 844.025757,1107.487183 851.513123,1104.750610 
	C863.012634,1100.547852 871.844055,1089.401611 869.985229,1076.169922 
	C869.177185,1070.418335 868.632141,1064.630249 867.856873,1058.873657 
	C865.940491,1044.644775 863.457764,1030.470703 862.146851,1016.187866 
	C860.835083,1001.896179 860.313171,987.505371 860.072021,973.147461 
	C859.513611,939.898132 859.384399,906.641907 858.976929,873.389709 
	C858.806335,859.466736 858.428833,845.545288 858.031250,831.626465 
	C857.842712,825.026978 857.556946,818.421143 857.017029,811.842651 
	C855.780396,796.774780 854.436279,781.714600 852.986023,766.665771 
	C852.138367,757.869751 851.002319,749.101562 850.029846,739.402771 
z"/>
<path fill="#DA1200" opacity="1.000000" stroke="none" 
	d="
M850.012939,739.861816 
	C851.002319,749.101562 852.138367,757.869751 852.986023,766.665771 
	C854.436279,781.714600 855.780396,796.774780 857.017029,811.842651 
	C857.556946,818.421143 857.842712,825.026978 858.031250,831.626465 
	C858.428833,845.545288 858.806335,859.466736 858.976929,873.389709 
	C859.384399,906.641907 859.513611,939.898132 860.072021,973.147461 
	C860.313171,987.505371 860.835083,1001.896179 862.146851,1016.187866 
	C863.457764,1030.470703 865.940491,1044.644775 867.856873,1058.873657 
	C868.632141,1064.630249 869.177185,1070.418335 869.985229,1076.169922 
	C871.844055,1089.401611 863.012634,1100.547852 851.513123,1104.750610 
	C844.025757,1107.487183 835.867798,1108.538452 827.928467,1109.849731 
	C818.581726,1111.393311 809.151550,1112.441284 799.747986,1113.629028 
	C792.912048,1114.492554 786.057556,1115.208740 779.216736,1116.035400 
	C768.487183,1117.331787 757.768372,1118.719238 747.032898,1119.963989 
	C740.355713,1120.738159 733.669189,1121.672852 726.964233,1121.918945 
	C711.217346,1122.497314 695.432861,1123.398804 679.709106,1122.855469 
	C665.812439,1122.375244 651.761108,1121.165283 638.173462,1118.361206 
	C623.530579,1115.339355 613.119141,1106.128540 607.017334,1091.826782 
	C601.411682,1078.687988 599.914490,1065.043701 598.943481,1051.102295 
	C597.904907,1036.190308 596.610168,1021.289673 595.069275,1006.421204 
	C593.614929,992.387085 591.886047,978.374512 589.922607,964.402344 
	C588.221741,952.298584 585.894165,940.284119 584.079773,928.194702 
	C582.261597,916.079773 580.798096,903.911987 579.066528,891.783508 
	C576.759338,875.622986 574.358948,859.475586 571.951294,843.329590 
	C571.691162,841.585205 571.118286,839.887512 570.588501,837.758484 
	C531.198914,845.992126 492.309845,847.770325 454.060516,831.181946 
	C455.518311,837.211243 456.926666,842.820862 458.225952,848.455566 
	C460.777008,859.519043 463.879517,870.500244 465.638916,881.690796 
	C468.255035,898.330200 470.181122,915.093811 471.869232,931.858032 
	C473.042145,943.506348 473.180054,955.254944 474.034515,966.940125 
	C475.246094,983.508728 476.733032,1000.057007 478.021393,1016.620239 
	C478.774353,1026.300293 479.286224,1035.999390 480.064636,1045.677124 
	C480.616516,1052.539185 481.184021,1059.416870 482.195923,1066.220459 
	C483.376587,1074.158569 483.734283,1081.630615 479.760254,1089.249634 
	C477.773590,1093.058594 478.747955,1098.309326 477.813507,1102.789062 
	C474.978943,1116.378174 467.941376,1128.201904 457.370300,1136.438354 
	C444.044922,1146.820923 428.236389,1153.045654 411.322479,1156.001953 
	C401.535706,1157.712524 391.919647,1160.425781 382.118073,1162.019165 
	C369.709778,1164.036255 357.232880,1165.943237 344.709595,1166.863525 
	C328.049011,1168.088013 311.308044,1168.969116 294.614838,1168.786743 
	C277.921814,1168.604492 261.209015,1166.582397 245.211853,1161.632324 
	C236.140503,1158.825195 227.430176,1154.471436 219.055069,1149.901978 
	C210.784027,1145.389282 206.689407,1138.110107 206.861191,1128.128296 
	C207.092148,1114.709961 206.580902,1101.262329 205.928787,1087.849609 
	C205.224915,1073.372314 204.094757,1058.912476 202.960388,1044.460083 
	C201.751724,1029.061035 200.643768,1013.642883 198.900360,998.300293 
	C196.943512,981.079407 194.197845,963.949646 192.041870,946.749329 
	C190.778702,936.671814 189.728867,926.551819 189.055923,916.419495 
	C187.840652,898.121521 186.985367,879.799744 185.946503,861.489746 
	C185.912979,860.898865 185.515686,860.328674 185.220139,859.576233 
	C175.416885,864.059387 166.027588,868.314880 155.046341,869.293762 
	C139.200729,870.706299 126.164299,864.687622 113.481148,856.963684 
	C98.867065,848.063843 88.984192,835.318359 82.720901,819.237671 
	C78.413086,808.177490 75.262489,797.085083 73.909943,785.306885 
	C72.269852,771.024719 69.820930,756.837219 68.023758,742.570740 
	C66.469696,730.234131 65.225227,717.855103 64.047638,705.475464 
	C62.583637,690.084961 61.164749,674.686523 60.035694,659.268921 
	C59.119987,646.764648 58.569176,634.230896 58.021984,621.703003 
	C57.264053,604.350281 56.664902,586.990662 55.990341,569.634216 
	C55.669239,561.372192 55.299034,553.112000 55.008492,544.848938 
	C54.630657,534.103333 53.675339,523.330139 54.106110,512.614563 
	C54.842430,494.298370 54.345325,475.732666 60.066727,457.998779 
	C64.253326,445.022217 71.534508,434.216858 84.034851,427.537537 
	C98.393837,419.865112 114.062874,417.007477 129.899902,415.130554 
	C140.855194,413.832245 151.944046,413.643127 162.977905,413.044495 
	C164.728989,412.949524 166.504761,413.309479 168.599091,413.487091 
	C169.377884,407.289062 170.080444,400.813873 171.024002,394.374023 
	C172.940399,381.294434 174.578568,368.154602 177.097366,355.188385 
	C179.517197,342.731750 182.475540,330.339325 185.990417,318.147369 
	C189.361145,306.455444 193.564468,294.989258 197.746597,283.549866 
	C201.590836,273.034760 205.343445,262.425964 210.136383,252.333313 
	C215.961777,240.066605 222.534012,228.123093 229.346848,216.366409 
	C235.077972,206.476334 241.314041,196.841919 247.880829,187.483246 
	C254.685501,177.785614 261.785187,168.241409 269.431183,159.201263 
	C278.980286,147.910995 288.631989,136.590805 299.293182,126.384216 
	C316.752716,109.669159 335.642181,94.552223 357.040955,83.045166 
	C371.433655,75.305588 385.776978,67.120758 400.979706,61.335575 
	C417.781189,54.942032 435.374420,50.346535 452.931610,46.311737 
	C466.705139,43.146465 480.890442,41.246418 494.998047,40.190102 
	C514.130249,38.757572 533.386658,37.781399 552.544739,38.293625 
	C566.822021,38.675346 581.146484,41.104107 595.228271,43.785633 
	C606.656555,45.961868 618.049988,49.085197 628.936096,53.178707 
	C649.194153,60.796295 668.388611,70.610466 685.165527,84.637375 
	C701.943665,98.665283 716.466553,114.661034 729.317078,132.391388 
	C738.183960,144.625320 745.463745,157.623993 750.928589,171.542725 
	C756.576294,185.927246 761.101135,200.752029 766.140381,215.376205 
	C772.068420,232.579788 770.981995,250.431778 771.003601,268.174988 
	C771.005249,269.552979 770.364014,270.931763 769.879028,272.884125 
	C775.010986,272.556580 779.711426,272.376831 784.386780,271.932922 
	C793.854614,271.033813 803.290527,269.732330 812.772583,269.065125 
	C829.886658,267.860992 847.014282,266.700928 864.156494,266.091858 
	C877.881165,265.604156 891.680664,265.249817 905.366516,266.112091 
	C924.910339,267.343384 944.107422,271.112946 960.852661,282.029663 
	C972.069641,289.342346 980.191833,299.590393 986.100037,311.820435 
	C991.779663,323.577606 994.670654,336.027985 997.292480,348.612946 
	C998.487427,354.348877 999.332092,360.178925 999.964844,366.006561 
	C1001.417786,379.388824 1002.698914,392.790619 1003.934509,406.195129 
	C1004.448669,411.772736 1004.784241,417.373077 1004.997925,422.970795 
	C1005.408325,433.722656 1005.595398,444.483093 1006.018127,455.234375 
	C1006.615540,470.426453 1007.623291,485.608032 1007.916321,500.804504 
	C1008.114319,511.070129 1008.863281,521.668823 1006.755981,531.562744 
	C1002.542053,551.347839 989.161438,563.676392 970.520081,571.084839 
	C950.057678,579.217102 928.400391,581.809326 907.066895,585.962402 
	C894.450378,588.418457 881.839722,590.982056 869.134277,592.881287 
	C857.149109,594.672791 845.041138,595.637878 832.992554,597.013916 
	C830.576477,597.289795 828.184753,597.779114 825.056091,598.288025 
	C825.268250,599.564453 825.267273,600.956848 825.736084,602.167297 
	C832.080261,618.548828 836.239075,635.514099 838.909180,652.826172 
	C841.499512,669.621399 843.784119,686.466858 845.968262,703.320618 
	C847.523682,715.321838 848.689941,727.373596 850.012939,739.861816 
M663.143921,281.877991 
	C673.617065,280.930359 684.083313,279.895935 694.565369,279.060516 
	C704.217163,278.291290 713.885986,277.735962 724.433838,277.026794 
	C723.937988,269.258026 724.117737,261.933868 722.867615,254.862503 
	C720.984436,244.210281 718.526794,233.611450 715.513367,223.221954 
	C712.961426,214.423599 709.626221,205.803070 705.998962,197.378830 
	C701.736511,187.479355 697.389404,177.521530 691.945923,168.254562 
	C687.364990,160.456070 681.554016,153.269028 675.592163,146.416290 
	C663.890747,132.966293 650.893372,120.740761 635.211914,112.072556 
	C620.651489,104.024040 605.006592,98.623871 588.718323,94.718346 
	C573.524048,91.075119 558.241394,88.424393 542.715637,88.179314 
	C530.039307,87.979210 517.317932,89.122856 504.653870,90.137436 
	C495.055878,90.906380 485.372101,91.733864 475.984680,93.742218 
	C461.066803,96.933784 446.227570,100.676682 431.618683,105.064110 
	C421.899261,107.983101 412.393097,111.920372 403.239349,116.331337 
	C393.357605,121.093117 383.588715,126.332108 374.512238,132.461212 
	C362.916290,140.291672 351.598114,148.685455 341.033051,157.843399 
	C332.248932,165.457657 324.440857,174.275421 316.723999,183.021957 
	C308.785919,192.019180 300.932373,201.189148 294.039764,210.985657 
	C285.461792,223.177536 277.896667,236.082703 269.911652,248.690918 
	C260.093567,264.193451 252.992813,281.064423 246.282867,298.003815 
	C241.101242,311.084930 237.515381,324.809052 233.440414,338.313782 
	C230.824432,346.983307 228.144806,355.679413 226.347107,364.536804 
	C224.647919,372.908875 224.013107,381.501160 223.000275,390.007324 
	C221.295685,404.323059 218.388290,418.636749 218.269547,432.970184 
	C218.036194,461.137115 219.267731,489.320007 220.097992,517.490234 
	C220.521240,531.851379 221.404434,546.198669 222.050217,560.553528 
	C222.718536,575.409363 223.356400,590.266602 223.997955,605.123657 
	C224.661621,620.492493 225.272873,635.863831 225.982986,651.230530 
	C226.623428,665.089111 227.374466,678.942566 228.062088,692.799011 
	C228.691940,705.491089 229.207687,718.189636 229.944946,730.875366 
	C230.881989,746.999023 232.072693,763.107849 233.002106,779.231873 
	C233.800461,793.082092 234.511948,806.939819 235.027954,820.802917 
	C235.515060,833.890137 235.441757,847.001282 236.081589,860.078979 
	C236.798233,874.726624 238.010574,889.350708 239.062637,903.980957 
	C239.687637,912.672424 240.085739,921.398315 241.174866,930.034363 
	C243.246155,946.458374 246.019424,962.795837 247.974640,979.231873 
	C249.702133,993.753784 250.798370,1008.353699 252.015945,1022.932312 
	C253.138870,1036.377808 254.259125,1049.829346 255.004608,1063.299072 
	C255.881302,1079.139404 256.358551,1095.002075 256.991516,1110.855713 
	C257.055878,1112.467407 257.000153,1114.083862 257.000153,1116.211426 
	C266.869568,1117.182983 276.155670,1118.696777 285.466370,1118.866943 
	C298.050598,1119.097046 310.678345,1118.666626 323.241974,1117.833862 
	C336.497406,1116.955322 349.812683,1115.947998 362.895386,1113.761719 
	C378.416656,1111.167725 393.729156,1107.306519 409.096222,1103.835571 
	C410.639679,1103.487061 411.938965,1102.046143 413.344971,1101.102295 
	C417.799683,1098.112061 421.906830,1093.687866 426.797058,1092.509277 
	C432.123444,1091.225220 433.157104,1088.546265 432.924377,1084.437012 
	C432.516510,1077.234253 431.625824,1070.059692 430.974457,1062.869995 
	C429.299774,1044.385010 427.577789,1025.903809 426.010284,1007.409607 
	C425.176208,997.568359 424.694824,987.697754 423.927948,977.850220 
	C422.652344,961.470215 421.415710,945.085083 419.893341,928.727112 
	C418.800690,916.986633 417.749603,905.207336 415.825134,893.586975 
	C412.582886,874.010132 408.799866,854.518372 404.947876,835.049500 
	C403.696228,828.723328 402.157867,822.302734 399.604340,816.423218 
	C396.306946,808.830688 394.243286,801.746765 397.842407,793.580872 
	C401.594330,785.068298 408.326050,780.028748 417.382141,779.972900 
	C422.113129,779.943726 426.720520,780.954285 431.493561,778.182434 
	C438.794250,773.942627 446.665771,775.286255 454.191467,778.533997 
	C467.153870,784.128113 479.619476,790.331360 494.123993,792.450256 
	C509.795319,794.739502 525.004150,793.068176 540.315857,791.596558 
	C550.320312,790.635010 560.212219,788.151550 570.048645,785.889221 
	C580.591919,783.464417 591.159546,780.960327 601.442505,777.641785 
	C611.763733,774.310791 621.639893,769.620239 631.908386,766.101379 
	C642.374329,762.515015 652.405334,758.253540 661.681458,752.140991 
	C670.375854,746.411865 687.127258,747.681946 694.266602,756.013611 
	C699.050110,761.595947 700.466980,767.929199 700.137390,775.166199 
	C699.914185,780.068909 698.964355,784.327332 696.125916,788.390259 
	C688.239075,799.679382 675.634399,803.727356 664.015320,808.787109 
	C649.076965,815.292297 633.502686,820.337341 618.589172,825.867798 
	C619.160278,830.181213 619.500610,834.478149 620.328369,838.679016 
	C622.779053,851.116760 625.689026,863.469116 627.911804,875.945251 
	C629.975281,887.527222 631.309509,899.237366 633.104492,910.869446 
	C634.975281,922.992126 637.199646,935.062439 638.928040,947.204224 
	C640.842468,960.653320 642.464661,974.146545 644.038696,987.640930 
	C645.500366,1000.171814 646.857178,1012.717896 648.027649,1025.278931 
	C649.186096,1037.710815 649.817200,1050.196777 651.234558,1062.595459 
	C651.544556,1065.306885 650.779724,1069.725342 656.290466,1070.052368 
	C667.600525,1070.723511 678.882080,1072.860840 690.163696,1072.778931 
	C704.453430,1072.675171 718.740540,1071.074097 733.011658,1069.908447 
	C742.972778,1069.094727 752.913574,1068.004272 762.848022,1066.898438 
	C773.737793,1065.686279 784.613220,1064.341553 795.488342,1063.002075 
	C801.940430,1062.207275 808.380005,1061.310791 814.994141,1060.437744 
	C814.305664,1050.328857 813.592896,1040.489136 812.974426,1030.643311 
	C811.930054,1014.014160 810.484436,997.393555 810.041626,980.747131 
	C809.343384,954.500244 809.504700,928.231689 808.984131,901.978638 
	C808.540955,879.626160 807.750977,857.278748 806.912415,834.936707 
	C806.498413,823.905640 805.844177,812.873596 804.915039,801.874329 
	C803.478271,784.867004 801.815735,767.876831 800.055908,750.899353 
	C798.484863,735.743530 796.847229,720.589355 794.881897,705.480957 
	C792.795410,689.441284 790.000549,673.491333 788.042236,657.437927 
	C785.882446,639.733276 782.510559,622.387939 776.385620,605.573120 
	C775.243042,602.436462 773.809998,601.784729 771.056763,602.010010 
	C759.111145,602.987549 747.178467,604.424133 735.213440,604.791382 
	C718.891541,605.292419 702.532898,605.372437 686.211121,604.901794 
	C666.566711,604.335327 646.941345,603.057129 627.313904,601.975098 
	C618.105408,601.467468 608.847046,601.171997 599.725464,599.937439 
	C585.522034,598.015137 571.390686,595.515869 557.274414,593.004700 
	C536.152405,589.247314 515.729553,583.036499 496.319153,573.905212 
	C479.068939,565.790161 463.287872,555.536560 452.718933,539.015930 
	C444.750916,526.560730 437.946320,513.545288 434.896759,498.874908 
	C431.953369,484.715271 427.978302,470.687469 426.229034,456.384949 
	C424.389313,441.342743 424.623169,426.044586 424.005524,410.856049 
	C423.615326,401.260712 423.429260,391.656006 422.942657,382.066101 
	C422.726807,377.812347 421.994324,373.584808 421.482147,369.224182 
	C420.764557,369.147858 420.124786,369.041016 419.481934,369.017212 
	C409.914124,368.663361 399.802032,361.001495 398.194183,351.762482 
	C396.075226,339.586884 401.045563,329.382416 412.989807,323.024170 
	C425.892212,316.155853 440.264923,313.926666 454.370636,311.065216 
	C465.531281,308.801178 476.782776,306.979736 488.005951,305.030884 
	C499.902771,302.965088 511.794373,300.856171 523.725281,299.004547 
	C531.788513,297.753204 539.933105,297.034332 548.010315,295.863739 
	C560.941101,293.989807 573.827454,291.803467 586.768494,290.008209 
	C596.034424,288.722717 605.352722,287.799438 614.659058,286.823608 
	C630.503540,285.162170 646.356995,283.586578 663.143921,281.877991 
M483.129181,483.236633 
	C485.756409,489.940094 488.374695,496.647064 491.013092,503.346130 
	C494.488525,512.170593 500.905975,518.628845 509.067810,522.729187 
	C518.693237,527.564819 528.679932,531.988586 538.952881,535.153442 
	C553.047791,539.495789 567.428101,543.201355 581.928650,545.854736 
	C596.217590,548.469543 610.785034,549.684021 625.273682,551.053284 
	C641.978271,552.631958 658.713196,554.058472 675.467773,554.883545 
	C687.626892,555.482422 699.839600,554.996643 712.028381,554.992249 
	C717.360046,554.990356 722.707642,555.247437 728.020264,554.926941 
	C741.980896,554.084595 755.926941,552.999207 769.877502,551.992188 
	C779.067200,551.328857 788.268372,550.780457 797.439575,549.916748 
	C810.010193,548.732727 822.562866,547.349365 835.112427,545.954285 
	C843.885803,544.979004 852.696289,544.167786 861.391907,542.700806 
	C875.198242,540.371521 888.978943,537.818237 902.666992,534.878296 
	C919.151550,531.337646 935.524231,527.277283 951.953735,523.478210 
	C956.395874,522.451111 958.165222,519.507874 958.032959,515.219604 
	C957.742676,505.807098 957.478027,496.392120 957.026978,486.986633 
	C956.054260,466.702942 955.084900,446.417847 953.890381,426.146515 
	C953.155701,413.679382 951.799194,401.248352 951.095520,388.780029 
	C950.133179,371.729523 946.782715,355.159149 941.993896,338.824310 
	C939.335999,329.757904 933.835938,323.337982 924.494141,321.175262 
	C916.731445,319.378174 908.829163,318.043152 900.919495,317.061096 
	C892.613525,316.029846 884.222046,315.103363 875.873535,315.149414 
	C866.017944,315.203735 856.160339,316.250305 846.318420,317.049164 
	C835.678223,317.912872 825.055115,318.986694 814.424622,319.969757 
	C796.607727,321.617371 778.802368,323.406616 760.970337,324.870636 
	C745.863037,326.110931 730.725159,326.979309 715.600281,328.004211 
	C710.174194,328.371887 704.736328,328.603058 699.321655,329.093262 
	C685.423157,330.351501 671.536316,331.738770 657.641479,333.038605 
	C646.526306,334.078369 635.372375,334.788788 624.296875,336.145660 
	C610.368835,337.852051 596.511353,340.127319 582.607910,342.044830 
	C572.261230,343.471832 561.857910,344.512756 551.538147,346.104004 
	C540.121643,347.864319 528.776917,350.086975 517.391174,352.051575 
	C501.026855,354.875122 484.653687,357.647491 467.345398,360.601990 
	C468.246124,368.980011 469.148621,377.140076 469.994904,385.306000 
	C471.043121,395.419922 471.982056,405.545532 473.083160,415.653534 
	C474.323364,427.038422 475.398743,438.453033 477.087921,449.773804 
	C478.719452,460.708160 481.041107,471.539581 483.129181,483.236633 
M163.774979,816.036438 
	C170.377182,816.036438 176.979385,816.036438 184.352432,816.036438 
	C183.600845,805.207153 182.773315,794.060242 182.065704,782.905762 
	C181.001511,766.130310 179.981461,749.351746 179.018478,732.570251 
	C178.309601,720.217285 177.659897,707.860229 177.095627,695.499939 
	C176.341858,678.988220 175.727219,662.470154 174.986282,645.957825 
	C174.749939,640.690552 174.199051,635.437256 173.969727,630.169800 
	C173.257980,613.821350 172.693100,597.466370 171.952301,581.119324 
	C171.377090,568.426331 170.553238,555.744629 169.967331,543.052063 
	C169.251114,527.536926 168.521973,512.019775 168.072968,496.495575 
	C167.705612,483.794189 167.740921,471.081177 167.594498,458.087738 
	C161.945816,458.087738 157.317993,457.319733 153.050827,458.234314 
	C141.100433,460.795715 129.241196,463.845459 117.467995,467.138672 
	C112.920486,468.410736 109.143829,470.920776 107.937675,476.440094 
	C104.963943,490.047668 104.791611,503.880554 104.100082,517.661682 
	C103.821045,523.222473 104.745316,528.836365 104.987564,534.431885 
	C105.666695,550.118469 106.262886,565.808594 106.916046,581.496338 
	C107.617607,598.346741 108.316628,615.197388 109.073418,632.045410 
	C109.673286,645.399963 110.235741,658.758301 111.057785,672.099976 
	C111.471298,678.811340 112.355347,685.497803 113.151062,692.180603 
	C114.387123,702.561523 115.756248,712.926453 117.018593,723.304260 
	C118.112335,732.296021 119.022064,741.311584 120.223854,750.288391 
	C121.349167,758.694031 122.376099,767.142029 124.130226,775.426575 
	C126.132568,784.883545 128.143936,794.464539 131.564362,803.454041 
	C134.154007,810.260254 140.631393,814.563354 147.294662,817.320679 
	C150.038666,818.456177 153.780396,817.281189 157.054413,816.997009 
	C158.997849,816.828247 160.914200,816.347473 163.774979,816.036438 
z"/>
<path fill="#000000" opacity="0.000000" stroke="none" 
	d="
M662.675293,281.926453 
	C646.356995,283.586578 630.503540,285.162170 614.659058,286.823608 
	C605.352722,287.799438 596.034424,288.722717 586.768494,290.008209 
	C573.827454,291.803467 560.941101,293.989807 548.010315,295.863739 
	C539.933105,297.034332 531.788513,297.753204 523.725281,299.004547 
	C511.794373,300.856171 499.902771,302.965088 488.005951,305.030884 
	C476.782776,306.979736 465.531281,308.801178 454.370636,311.065216 
	C440.264923,313.926666 425.892212,316.155853 412.989807,323.024170 
	C401.045563,329.382416 396.075226,339.586884 398.194183,351.762482 
	C399.802032,361.001495 409.914124,368.663361 419.481934,369.017212 
	C420.124786,369.041016 420.764557,369.147858 421.482147,369.224182 
	C421.994324,373.584808 422.726807,377.812347 422.942657,382.066101 
	C423.429260,391.656006 423.615326,401.260712 424.005524,410.856049 
	C424.623169,426.044586 424.389313,441.342743 426.229034,456.384949 
	C427.978302,470.687469 431.953369,484.715271 434.896759,498.874908 
	C437.946320,513.545288 444.750916,526.560730 452.718933,539.015930 
	C463.287872,555.536560 479.068939,565.790161 496.319153,573.905212 
	C515.729553,583.036499 536.152405,589.247314 557.274414,593.004700 
	C571.390686,595.515869 585.522034,598.015137 599.725464,599.937439 
	C608.847046,601.171997 618.105408,601.467468 627.313904,601.975098 
	C646.941345,603.057129 666.566711,604.335327 686.211121,604.901794 
	C702.532898,605.372437 718.891541,605.292419 735.213440,604.791382 
	C747.178467,604.424133 759.111145,602.987549 771.056763,602.010010 
	C773.809998,601.784729 775.243042,602.436462 776.385620,605.573120 
	C782.510559,622.387939 785.882446,639.733276 788.042236,657.437927 
	C790.000549,673.491333 792.795410,689.441284 794.881897,705.480957 
	C796.847229,720.589355 798.484863,735.743530 800.055908,750.899353 
	C801.815735,767.876831 803.478271,784.867004 804.915039,801.874329 
	C805.844177,812.873596 806.498413,823.905640 806.912415,834.936707 
	C807.750977,857.278748 808.540955,879.626160 808.984131,901.978638 
	C809.504700,928.231689 809.343384,954.500244 810.041626,980.747131 
	C810.484436,997.393555 811.930054,1014.014160 812.974426,1030.643311 
	C813.592896,1040.489136 814.305664,1050.328857 814.994141,1060.437744 
	C808.380005,1061.310791 801.940430,1062.207275 795.488342,1063.002075 
	C784.613220,1064.341553 773.737793,1065.686279 762.848022,1066.898438 
	C752.913574,1068.004272 742.972778,1069.094727 733.011658,1069.908447 
	C718.740540,1071.074097 704.453430,1072.675171 690.163696,1072.778931 
	C678.882080,1072.860840 667.600525,1070.723511 656.290466,1070.052368 
	C650.779724,1069.725342 651.544556,1065.306885 651.234558,1062.595459 
	C649.817200,1050.196777 649.186096,1037.710815 648.027649,1025.278931 
	C646.857178,1012.717896 645.500366,1000.171814 644.038696,987.640930 
	C642.464661,974.146545 640.842468,960.653320 638.928040,947.204224 
	C637.199646,935.062439 634.975281,922.992126 633.104492,910.869446 
	C631.309509,899.237366 629.975281,887.527222 627.911804,875.945251 
	C625.689026,863.469116 622.779053,851.116760 620.328369,838.679016 
	C619.500610,834.478149 619.160278,830.181213 618.589172,825.867798 
	C633.502686,820.337341 649.076965,815.292297 664.015320,808.787109 
	C675.634399,803.727356 688.239075,799.679382 696.125916,788.390259 
	C698.964355,784.327332 699.914185,780.068909 700.137390,775.166199 
	C700.466980,767.929199 699.050110,761.595947 694.266602,756.013611 
	C687.127258,747.681946 670.375854,746.411865 661.681458,752.140991 
	C652.405334,758.253540 642.374329,762.515015 631.908386,766.101379 
	C621.639893,769.620239 611.763733,774.310791 601.442505,777.641785 
	C591.159546,780.960327 580.591919,783.464417 570.048645,785.889221 
	C560.212219,788.151550 550.320312,790.635010 540.315857,791.596558 
	C525.004150,793.068176 509.795319,794.739502 494.123993,792.450256 
	C479.619476,790.331360 467.153870,784.128113 454.191467,778.533997 
	C446.665771,775.286255 438.794250,773.942627 431.493561,778.182434 
	C426.720520,780.954285 422.113129,779.943726 417.382141,779.972900 
	C408.326050,780.028748 401.594330,785.068298 397.842407,793.580872 
	C394.243286,801.746765 396.306946,808.830688 399.604340,816.423218 
	C402.157867,822.302734 403.696228,828.723328 404.947876,835.049500 
	C408.799866,854.518372 412.582886,874.010132 415.825134,893.586975 
	C417.749603,905.207336 418.800690,916.986633 419.893341,928.727112 
	C421.415710,945.085083 422.652344,961.470215 423.927948,977.850220 
	C424.694824,987.697754 425.176208,997.568359 426.010284,1007.409607 
	C427.577789,1025.903809 429.299774,1044.385010 430.974457,1062.869995 
	C431.625824,1070.059692 432.516510,1077.234253 432.924377,1084.437012 
	C433.157104,1088.546265 432.123444,1091.225220 426.797058,1092.509277 
	C421.906830,1093.687866 417.799683,1098.112061 413.344971,1101.102295 
	C411.938965,1102.046143 410.639679,1103.487061 409.096222,1103.835571 
	C393.729156,1107.306519 378.416656,1111.167725 362.895386,1113.761719 
	C349.812683,1115.947998 336.497406,1116.955322 323.241974,1117.833862 
	C310.678345,1118.666626 298.050598,1119.097046 285.466370,1118.866943 
	C276.155670,1118.696777 266.869568,1117.182983 257.000153,1116.211426 
	C257.000153,1114.083862 257.055878,1112.467407 256.991516,1110.855713 
	C256.358551,1095.002075 255.881302,1079.139404 255.004608,1063.299072 
	C254.259125,1049.829346 253.138870,1036.377808 252.015945,1022.932312 
	C250.798370,1008.353699 249.702133,993.753784 247.974640,979.231873 
	C246.019424,962.795837 243.246155,946.458374 241.174866,930.034363 
	C240.085739,921.398315 239.687637,912.672424 239.062637,903.980957 
	C238.010574,889.350708 236.798233,874.726624 236.081589,860.078979 
	C235.441757,847.001282 235.515060,833.890137 235.027954,820.802917 
	C234.511948,806.939819 233.800461,793.082092 233.002106,779.231873 
	C232.072693,763.107849 230.881989,746.999023 229.944946,730.875366 
	C229.207687,718.189636 228.691940,705.491089 228.062088,692.799011 
	C227.374466,678.942566 226.623428,665.089111 225.982986,651.230530 
	C225.272873,635.863831 224.661621,620.492493 223.997955,605.123657 
	C223.356400,590.266602 222.718536,575.409363 222.050217,560.553528 
	C221.404434,546.198669 220.521240,531.851379 220.097992,517.490234 
	C219.267731,489.320007 218.036194,461.137115 218.269547,432.970184 
	C218.388290,418.636749 221.295685,404.323059 223.000275,390.007324 
	C224.013107,381.501160 224.647919,372.908875 226.347107,364.536804 
	C228.144806,355.679413 230.824432,346.983307 233.440414,338.313782 
	C237.515381,324.809052 241.101242,311.084930 246.282867,298.003815 
	C252.992813,281.064423 260.093567,264.193451 269.911652,248.690918 
	C277.896667,236.082703 285.461792,223.177536 294.039764,210.985657 
	C300.932373,201.189148 308.785919,192.019180 316.723999,183.021957 
	C324.440857,174.275421 332.248932,165.457657 341.033051,157.843399 
	C351.598114,148.685455 362.916290,140.291672 374.512238,132.461212 
	C383.588715,126.332108 393.357605,121.093117 403.239349,116.331337 
	C412.393097,111.920372 421.899261,107.983101 431.618683,105.064110 
	C446.227570,100.676682 461.066803,96.933784 475.984680,93.742218 
	C485.372101,91.733864 495.055878,90.906380 504.653870,90.137436 
	C517.317932,89.122856 530.039307,87.979210 542.715637,88.179314 
	C558.241394,88.424393 573.524048,91.075119 588.718323,94.718346 
	C605.006592,98.623871 620.651489,104.024040 635.211914,112.072556 
	C650.893372,120.740761 663.890747,132.966293 675.592163,146.416290 
	C681.554016,153.269028 687.364990,160.456070 691.945923,168.254562 
	C697.389404,177.521530 701.736511,187.479355 705.998962,197.378830 
	C709.626221,205.803070 712.961426,214.423599 715.513367,223.221954 
	C718.526794,233.611450 720.984436,244.210281 722.867615,254.862503 
	C724.117737,261.933868 723.937988,269.258026 724.433838,277.026794 
	C713.885986,277.735962 704.217163,278.291290 694.565369,279.060516 
	C684.083313,279.895935 673.617065,280.930359 662.675293,281.926453 
z"/>
<path fill="#000000" opacity="0.000000" stroke="none" 
	d="
M483.094360,482.826416 
	C481.041107,471.539581 478.719452,460.708160 477.087921,449.773804 
	C475.398743,438.453033 474.323364,427.038422 473.083160,415.653534 
	C471.982056,405.545532 471.043121,395.419922 469.994904,385.306000 
	C469.148621,377.140076 468.246124,368.980011 467.345398,360.601990 
	C484.653687,357.647491 501.026855,354.875122 517.391174,352.051575 
	C528.776917,350.086975 540.121643,347.864319 551.538147,346.104004 
	C561.857910,344.512756 572.261230,343.471832 582.607910,342.044830 
	C596.511353,340.127319 610.368835,337.852051 624.296875,336.145660 
	C635.372375,334.788788 646.526306,334.078369 657.641479,333.038605 
	C671.536316,331.738770 685.423157,330.351501 699.321655,329.093262 
	C704.736328,328.603058 710.174194,328.371887 715.600281,328.004211 
	C730.725159,326.979309 745.863037,326.110931 760.970337,324.870636 
	C778.802368,323.406616 796.607727,321.617371 814.424622,319.969757 
	C825.055115,318.986694 835.678223,317.912872 846.318420,317.049164 
	C856.160339,316.250305 866.017944,315.203735 875.873535,315.149414 
	C884.222046,315.103363 892.613525,316.029846 900.919495,317.061096 
	C908.829163,318.043152 916.731445,319.378174 924.494141,321.175262 
	C933.835938,323.337982 939.335999,329.757904 941.993896,338.824310 
	C946.782715,355.159149 950.133179,371.729523 951.095520,388.780029 
	C951.799194,401.248352 953.155701,413.679382 953.890381,426.146515 
	C955.084900,446.417847 956.054260,466.702942 957.026978,486.986633 
	C957.478027,496.392120 957.742676,505.807098 958.032959,515.219604 
	C958.165222,519.507874 956.395874,522.451111 951.953735,523.478210 
	C935.524231,527.277283 919.151550,531.337646 902.666992,534.878296 
	C888.978943,537.818237 875.198242,540.371521 861.391907,542.700806 
	C852.696289,544.167786 843.885803,544.979004 835.112427,545.954285 
	C822.562866,547.349365 810.010193,548.732727 797.439575,549.916748 
	C788.268372,550.780457 779.067200,551.328857 769.877502,551.992188 
	C755.926941,552.999207 741.980896,554.084595 728.020264,554.926941 
	C722.707642,555.247437 717.360046,554.990356 712.028381,554.992249 
	C699.839600,554.996643 687.626892,555.482422 675.467773,554.883545 
	C658.713196,554.058472 641.978271,552.631958 625.273682,551.053284 
	C610.785034,549.684021 596.217590,548.469543 581.928650,545.854736 
	C567.428101,543.201355 553.047791,539.495789 538.952881,535.153442 
	C528.679932,531.988586 518.693237,527.564819 509.067810,522.729187 
	C500.905975,518.628845 494.488525,512.170593 491.013092,503.346130 
	C488.374695,496.647064 485.756409,489.940094 483.094360,482.826416 
z"/>
<path fill="#000000" opacity="0.000000" stroke="none" 
	d="
M163.308838,816.021667 
	C160.914200,816.347473 158.997849,816.828247 157.054413,816.997009 
	C153.780396,817.281189 150.038666,818.456177 147.294662,817.320679 
	C140.631393,814.563354 134.154007,810.260254 131.564362,803.454041 
	C128.143936,794.464539 126.132568,784.883545 124.130226,775.426575 
	C122.376099,767.142029 121.349167,758.694031 120.223854,750.288391 
	C119.022064,741.311584 118.112335,732.296021 117.018593,723.304260 
	C115.756248,712.926453 114.387123,702.561523 113.151062,692.180603 
	C112.355347,685.497803 111.471298,678.811340 111.057785,672.099976 
	C110.235741,658.758301 109.673286,645.399963 109.073418,632.045410 
	C108.316628,615.197388 107.617607,598.346741 106.916046,581.496338 
	C106.262886,565.808594 105.666695,550.118469 104.987564,534.431885 
	C104.745316,528.836365 103.821045,523.222473 104.100082,517.661682 
	C104.791611,503.880554 104.963943,490.047668 107.937675,476.440094 
	C109.143829,470.920776 112.920486,468.410736 117.467995,467.138672 
	C129.241196,463.845459 141.100433,460.795715 153.050827,458.234314 
	C157.317993,457.319733 161.945816,458.087738 167.594498,458.087738 
	C167.740921,471.081177 167.705612,483.794189 168.072968,496.495575 
	C168.521973,512.019775 169.251114,527.536926 169.967331,543.052063 
	C170.553238,555.744629 171.377090,568.426331 171.952301,581.119324 
	C172.693100,597.466370 173.257980,613.821350 173.969727,630.169800 
	C174.199051,635.437256 174.749939,640.690552 174.986282,645.957825 
	C175.727219,662.470154 176.341858,678.988220 177.095627,695.499939 
	C177.659897,707.860229 178.309601,720.217285 179.018478,732.570251 
	C179.981461,749.351746 181.001511,766.130310 182.065704,782.905762 
	C182.773315,794.060242 183.600845,805.207153 184.352432,816.036438 
	C176.979385,816.036438 170.377182,816.036438 163.308838,816.021667 
z"/>
</svg>