<svg version="1.1" id="Layer_1" xmlns="http://www.w3.org/2000/svg" xmlns:xlink="http://www.w3.org/1999/xlink" x="0px" y="0px"
	 width="100%" viewBox="0 0 2048 2048" enable-background="new 0 0 2048 2048" xml:space="preserve">
<path fill="#FFFFFF" opacity="1.000000" stroke="none" 
	d="
M935.000000,2049.000000 
	C623.333313,2049.000000 312.166656,2049.000000 1.000000,2049.000000 
	C1.000000,1366.333374 1.000000,683.666687 1.000000,1.000000 
	C683.666687,1.000000 1366.333374,1.000000 2049.000000,1.000000 
	C2049.000000,683.666687 2049.000000,1366.333374 2049.000000,2049.000000 
	C1677.833374,2049.000000 1306.666626,2049.000000 935.000000,2049.000000 
M855.988464,824.370300 
	C845.845703,823.374634 835.715942,822.211060 825.557129,821.423218 
	C810.733643,820.273743 795.893860,819.317993 781.052246,818.426208 
	C771.131104,817.830078 761.198975,817.328857 751.264343,817.066040 
	C729.831543,816.499146 708.394470,815.789368 686.958130,815.753357 
	C669.037415,815.723267 651.102295,816.294556 633.198730,817.135376 
	C623.533020,817.589294 613.898438,819.004761 604.289612,820.285400 
	C595.680481,821.432739 587.109070,822.893372 578.551758,824.391968 
	C569.210876,826.027771 559.881348,827.748474 550.591858,829.651855 
	C542.759827,831.256531 534.949707,833.010315 527.207520,835.000122 
	C518.699280,837.186768 510.279816,839.718994 501.066528,841.841980 
	C494.572510,839.679321 491.078125,840.714172 488.353516,845.316467 
	C487.355133,845.332642 486.287781,845.120789 485.368652,845.398926 
	C470.008972,850.046936 454.435120,854.121887 439.392029,859.641113 
	C426.002472,864.553711 412.331604,867.936584 398.464691,870.868652 
	C393.352692,871.949585 388.157074,872.893738 383.243713,874.602356 
	C372.737366,878.255920 365.359802,885.881836 358.574493,894.436035 
	C349.091003,906.391663 341.550537,919.432434 335.906250,933.502930 
	C328.398834,952.218079 322.955597,971.551636 319.907806,991.545105 
	C318.111298,1003.330261 315.427155,1014.991638 313.937012,1026.808960 
	C312.372162,1039.218384 311.302490,1051.730103 310.823792,1064.228027 
	C309.926483,1087.655640 309.569031,1111.104858 309.078613,1134.546875 
	C308.921844,1142.039551 309.068451,1149.538330 309.042480,1157.034302 
	C309.037323,1158.525146 308.854492,1160.014526 308.794250,1161.506226 
	C308.475800,1169.394287 308.170410,1177.282959 307.669281,1185.967896 
	C307.089600,1194.406250 306.381683,1202.838257 305.973755,1211.284912 
	C305.684723,1217.268921 306.246582,1223.317993 305.642456,1229.257935 
	C304.448517,1240.997559 302.434875,1252.655029 301.303864,1264.398926 
	C300.672974,1270.949219 301.158020,1277.605103 301.063843,1284.212280 
	C301.055542,1284.793457 300.325928,1285.332886 300.191345,1285.948608 
	C299.146667,1290.728516 297.315308,1295.521484 297.310303,1300.312012 
	C297.286530,1322.960083 297.920380,1345.608276 297.978210,1368.257324 
	C297.996246,1375.314209 296.955505,1382.374878 296.358490,1389.430298 
	C296.305023,1390.062378 296.012756,1390.700317 295.724579,1391.282715 
	C290.183167,1402.479980 288.568237,1414.436035 288.674377,1426.769775 
	C288.776215,1438.601196 288.318909,1450.450195 288.816376,1462.261597 
	C289.268738,1473.002197 290.979370,1483.687012 291.527405,1494.427490 
	C291.790405,1499.581543 290.246155,1504.804932 290.214264,1510.001099 
	C290.076141,1532.497803 289.979126,1554.999634 290.348816,1577.491821 
	C290.461212,1584.328613 292.480530,1591.115112 292.954132,1597.971069 
	C293.338135,1603.530151 295.830261,1608.632202 293.834595,1614.871704 
	C292.152527,1620.130859 293.683136,1626.614014 294.542786,1632.444458 
	C295.894867,1641.615112 302.012726,1648.765381 305.690521,1656.931641 
	C311.168304,1669.094604 320.462708,1677.328491 330.980194,1684.179321 
	C341.883392,1691.281616 354.475769,1692.415283 367.296539,1690.702393 
	C369.199280,1690.448120 371.826080,1689.709106 372.966461,1690.626221 
	C379.555969,1695.924561 387.706818,1695.774170 395.260254,1697.179443 
	C402.656403,1698.555420 410.340942,1698.349854 417.886169,1698.988403 
	C419.085052,1699.089844 420.225586,1699.962402 421.378540,1700.508911 
	C425.451782,1702.440063 429.496582,1705.983643 433.592133,1706.040527 
	C449.323914,1706.259521 465.071503,1705.370361 480.811981,1704.857422 
	C481.598816,1704.831787 482.365448,1704.321045 483.156525,1704.270264 
	C487.572174,1703.985840 492.051208,1703.202271 496.399567,1703.649536 
	C507.114136,1704.751465 517.767212,1706.446655 528.452209,1707.848755 
	C529.416809,1707.975464 530.468994,1707.846924 531.420105,1707.602417 
	C542.787659,1704.679932 554.079285,1701.426147 565.524170,1698.852295 
	C574.121948,1696.918579 582.927734,1695.926758 591.613586,1694.363647 
	C601.431030,1692.596924 611.232239,1690.731567 621.012024,1688.767578 
	C625.975769,1687.770508 630.968018,1685.199219 635.788330,1685.546631 
	C647.250488,1686.372559 658.612366,1688.553955 670.025208,1690.110596 
	C680.822327,1691.583252 691.612000,1693.151123 702.444031,1694.312744 
	C710.688354,1695.196777 718.999512,1695.437988 727.270935,1696.092407 
	C744.657104,1697.467896 762.027954,1699.048096 779.421753,1700.316284 
	C795.300903,1701.473755 811.198486,1702.392822 827.094360,1703.303589 
	C845.796875,1704.375122 864.507141,1705.312378 883.212646,1706.332397 
	C891.962219,1706.809448 900.707153,1707.371216 909.456848,1707.846069 
	C919.036438,1708.365845 928.619873,1708.817017 938.200378,1709.321045 
	C947.603333,1709.815552 957.003418,1710.363525 966.407166,1710.842651 
	C976.500916,1711.357056 986.595398,1711.864014 996.693054,1712.291626 
	C1009.798523,1712.846558 1022.910339,1713.807739 1036.014160,1713.727417 
	C1063.437622,1713.559326 1090.859253,1712.899292 1118.278198,1712.290527 
	C1132.038818,1711.984985 1145.794434,1711.404297 1159.548096,1710.844604 
	C1170.125488,1710.414185 1180.700806,1709.896729 1191.268188,1709.269653 
	C1196.698242,1708.947632 1202.128296,1708.453003 1207.524658,1707.770142 
	C1218.409058,1706.392822 1229.263062,1704.777710 1240.143555,1703.367920 
	C1248.440796,1702.292725 1256.765625,1701.431519 1265.067261,1700.388184 
	C1276.470215,1698.955078 1287.827881,1697.021606 1299.268555,1696.058960 
	C1315.804932,1694.667603 1332.399658,1693.973145 1348.967041,1692.942627 
	C1356.744873,1692.458740 1364.536011,1692.072754 1372.285034,1691.285645 
	C1377.505127,1690.755493 1382.646851,1688.992676 1387.850342,1688.864746 
	C1396.231079,1688.658569 1404.647949,1689.138184 1413.023193,1689.713623 
	C1421.939941,1690.326172 1430.641113,1692.913940 1439.702515,1689.080811 
	C1448.373413,1685.412720 1456.948730,1682.205078 1467.352783,1683.507446 
	C1477.177002,1684.737183 1487.818481,1683.060669 1497.533936,1680.507568 
	C1507.050171,1678.006836 1515.570312,1671.846191 1525.042236,1669.011719 
	C1535.777832,1665.799072 1536.983887,1653.052734 1546.783936,1649.465088 
	C1547.133179,1649.337158 1547.274292,1648.631714 1547.505737,1648.191895 
	C1552.211670,1639.254028 1557.352539,1630.511475 1561.483398,1621.315186 
	C1564.782593,1613.970581 1566.448730,1605.903320 1569.587891,1598.472778 
	C1572.325439,1591.993042 1576.356567,1586.071289 1579.348633,1579.683960 
	C1581.673584,1574.720703 1583.360352,1569.448975 1585.178223,1564.260864 
	C1586.829956,1559.546631 1588.460571,1554.810547 1589.773438,1549.994873 
	C1592.241333,1540.942505 1594.734253,1531.882690 1596.732666,1522.720337 
	C1598.886108,1512.847168 1600.858032,1502.902466 1602.185791,1492.893066 
	C1602.990234,1486.830200 1601.936401,1480.534302 1602.576660,1474.433228 
	C1603.734497,1463.399658 1605.404297,1452.412842 1607.131348,1441.449219 
	C1607.837769,1436.964844 1608.663818,1432.337158 1610.455200,1428.218140 
	C1614.866699,1418.075073 1618.784790,1407.991455 1618.205566,1396.584351 
	C1618.049316,1393.507202 1619.595581,1390.289185 1620.611572,1387.218994 
	C1622.391602,1381.839600 1621.163086,1374.758423 1618.108398,1371.402954 
	C1619.128418,1367.622925 1620.432373,1363.892944 1621.107666,1360.052368 
	C1622.409180,1352.649292 1623.326416,1345.179565 1624.456177,1337.745483 
	C1625.956177,1327.874146 1627.752319,1318.040283 1628.957520,1308.133911 
	C1629.910645,1300.299805 1630.130493,1292.378052 1630.740601,1284.500244 
	C1631.185791,1278.752930 1631.495239,1272.980103 1632.293701,1267.278564 
	C1633.653198,1257.570068 1635.344604,1247.907715 1636.905884,1238.227661 
	C1638.548584,1228.042236 1640.163208,1217.852173 1641.860596,1207.675903 
	C1643.824463,1195.902710 1646.125000,1184.179199 1647.793213,1172.365356 
	C1649.219360,1162.265137 1650.289551,1152.088257 1650.921021,1141.908325 
	C1651.801880,1127.702271 1652.328003,1113.465942 1652.632446,1099.234619 
	C1652.910400,1086.245361 1652.707764,1073.245728 1652.670288,1060.250610 
	C1652.665527,1058.602905 1652.293579,1056.959106 1652.234375,1055.308228 
	C1651.848755,1044.551880 1650.558716,1033.720093 1651.395752,1023.056763 
	C1652.324097,1011.231384 1656.973755,999.543335 1656.866089,987.824280 
	C1656.650269,964.308105 1659.146484,940.844055 1657.420898,917.295410 
	C1656.443359,903.956848 1650.352661,895.073608 1638.535889,889.651733 
	C1632.177612,886.734253 1625.744263,883.980042 1619.389404,881.055298 
	C1616.580444,879.762512 1614.029053,877.675049 1611.108276,876.899292 
	C1596.802124,873.099548 1582.481323,869.299866 1568.027344,866.130798 
	C1556.880127,863.686707 1545.564087,861.919128 1534.255981,860.328918 
	C1524.504028,858.957520 1514.672729,858.053772 1504.848633,857.313110 
	C1489.222168,856.134888 1473.578857,855.146851 1457.930664,854.301819 
	C1445.849731,853.649475 1433.751099,853.316589 1421.658813,852.883179 
	C1406.073730,852.324524 1390.488281,851.766052 1374.900757,851.283752 
	C1358.473022,850.775452 1342.042358,850.363892 1325.613281,849.897644 
	C1306.876709,849.365967 1288.140015,848.833862 1269.404053,848.276794 
	C1254.645996,847.838013 1239.887451,847.406677 1225.132080,846.887695 
	C1211.722534,846.416077 1198.318237,845.791504 1184.909058,845.306641 
	C1170.818359,844.797119 1156.723389,844.406372 1142.632568,843.902649 
	C1128.893677,843.411560 1115.159790,842.769775 1101.419556,842.327881 
	C1084.336182,841.778503 1067.248169,841.366394 1050.050171,839.975525 
	C1050.050171,761.029053 1050.050171,682.082520 1050.050171,601.707642 
	C1068.400024,615.132751 1085.704712,627.583618 1102.783447,640.337036 
	C1128.839600,659.794312 1154.768311,679.365784 1183.344727,695.171936 
	C1213.445068,711.820984 1244.805420,725.327637 1277.953613,734.449524 
	C1287.564575,737.094238 1297.926758,739.023071 1307.087280,733.178040 
	C1313.258545,729.240356 1319.678955,726.172363 1326.264771,723.098816 
	C1340.705688,716.359375 1350.688110,704.166992 1361.260986,692.767273 
	C1365.872192,687.795471 1368.548340,680.531921 1376.723755,679.573914 
	C1377.903442,679.435669 1379.412964,678.080261 1379.921387,676.917175 
	C1382.709839,670.539307 1385.669434,664.181641 1387.735596,657.556702 
	C1390.172974,649.742249 1388.441162,643.048950 1381.862183,637.166992 
	C1363.909912,621.116455 1346.825317,604.077576 1328.590332,588.366577 
	C1313.004517,574.938049 1296.573486,562.439087 1280.030762,550.184509 
	C1252.349976,529.679138 1223.243774,511.300629 1193.049805,494.724609 
	C1167.416626,480.652405 1141.285889,467.589996 1113.995483,456.900574 
	C1084.995361,445.541504 1056.089600,433.927216 1027.327026,421.980347 
	C993.371887,407.876648 961.262390,390.165131 930.959045,369.427338 
	C921.925720,363.245361 913.379150,363.848907 903.826599,365.462463 
	C887.558289,368.210358 875.037354,377.692596 864.041321,388.775635 
	C846.562317,406.392914 829.606323,424.595062 813.377808,443.369812 
	C794.900757,464.745758 777.196960,486.809418 759.643616,508.959656 
	C737.217773,537.258362 715.080261,565.791382 693.179199,594.498596 
	C665.498291,630.781738 638.122437,667.298401 610.740051,703.808105 
	C601.960205,715.514526 593.485535,727.453979 585.062134,739.421204 
	C582.087280,743.647583 584.489929,751.597839 588.729980,753.796326 
	C590.533875,754.731689 592.469727,756.098267 593.471130,757.787354 
	C601.716003,771.693420 609.747864,785.665039 623.073730,795.661255 
	C633.067261,803.157715 643.772217,808.196350 656.550171,808.019409 
	C671.818420,807.807861 685.225098,801.727844 697.966797,794.300232 
	C722.075439,780.246521 743.015076,761.930786 762.696106,742.433228 
	C778.937195,726.343567 793.966858,708.964844 808.773193,691.512329 
	C822.614380,675.197510 835.416443,658.003052 848.756348,641.259827 
	C854.138672,634.504211 859.734741,627.918823 865.233521,621.255920 
	C865.927917,628.558533 865.288330,635.446472 865.047302,642.348206 
	C864.292603,663.962463 863.819275,685.586975 862.988770,707.197937 
	C862.147400,729.091980 861.105286,750.979614 859.972351,772.860779 
	C859.083923,790.019104 857.922974,807.163208 855.988464,824.370300 
z"/>
<path fill="#30BBBE" opacity="1.000000" stroke="none" 
	d="
M307.860443,1185.171387 
	C308.170410,1177.282959 308.475800,1169.394287 308.794250,1161.506226 
	C308.854492,1160.014526 309.037323,1158.525146 309.042480,1157.034302 
	C309.068451,1149.538330 308.921844,1142.039551 309.078613,1134.546875 
	C309.569031,1111.104858 309.926483,1087.655640 310.823792,1064.228027 
	C311.302490,1051.730103 312.372162,1039.218384 313.937012,1026.808960 
	C315.427155,1014.991638 318.111298,1003.330261 319.907806,991.545105 
	C322.955597,971.551636 328.398834,952.218079 335.906250,933.502930 
	C341.550537,919.432434 349.091003,906.391663 358.574493,894.436035 
	C365.359802,885.881836 372.737366,878.255920 383.243713,874.602356 
	C388.157074,872.893738 393.352692,871.949585 398.464691,870.868652 
	C412.331604,867.936584 426.002472,864.553711 439.392029,859.641113 
	C454.435120,854.121887 470.008972,850.046936 485.368652,845.398926 
	C486.287781,845.120789 487.355133,845.332642 488.859741,845.676270 
	C493.242432,856.218994 497.056335,866.441162 506.111176,873.687317 
	C510.987915,864.946045 508.485413,847.553223 501.821686,842.100586 
	C510.279816,839.718994 518.699280,837.186768 527.207520,835.000122 
	C534.949707,833.010315 542.759827,831.256531 550.591858,829.651855 
	C559.881348,827.748474 569.210876,826.027771 578.551758,824.391968 
	C587.109070,822.893372 595.680481,821.432739 604.289612,820.285400 
	C613.898438,819.004761 623.533020,817.589294 633.198730,817.135376 
	C651.102295,816.294556 669.037415,815.723267 686.958130,815.753357 
	C708.394470,815.789368 729.831543,816.499146 751.264343,817.066040 
	C761.198975,817.328857 771.131104,817.830078 781.052246,818.426208 
	C795.893860,819.317993 810.733643,820.273743 825.557129,821.423218 
	C835.715942,822.211060 845.845703,823.374634 856.487427,824.767700 
	C856.651855,832.447021 856.351196,839.730591 855.971436,847.010071 
	C855.686890,852.462524 855.358948,857.913940 854.948853,863.358215 
	C853.658203,880.493835 852.405579,897.633057 850.964233,914.756287 
	C850.217529,923.627197 848.835388,932.448547 848.220093,941.325562 
	C847.342285,953.989502 847.298462,966.588928 855.119568,977.681702 
	C856.334778,979.405334 857.629639,981.430115 857.855835,983.432190 
	C858.872314,992.429443 861.983154,1000.536987 866.078003,1008.617371 
	C875.529785,1027.268921 891.050293,1036.369751 911.122009,1036.725830 
	C926.960632,1037.006836 942.913879,1035.535278 958.683655,1033.701782 
	C975.186218,1031.783325 991.530396,1028.503296 1008.242798,1026.010010 
	C1013.207214,1032.116577 1017.244934,1038.715210 1022.723022,1043.745239 
	C1027.739624,1048.351562 1033.506348,1053.152222 1041.619019,1051.311279 
	C1045.267700,1050.483276 1049.067261,1049.914551 1052.796143,1049.925415 
	C1061.627319,1049.951172 1069.783936,1047.354126 1077.230835,1043.139526 
	C1081.670410,1040.626709 1084.787964,1039.198120 1089.883179,1042.164185 
	C1093.382935,1044.201538 1098.480225,1043.754272 1102.882202,1043.919678 
	C1109.200928,1044.157227 1115.537476,1043.996094 1121.864624,1043.890137 
	C1124.084106,1043.853027 1126.719482,1042.585327 1128.444458,1043.401855 
	C1138.171021,1048.005493 1147.494995,1046.270874 1157.030273,1042.854492 
	C1161.017822,1041.425659 1165.104614,1039.740112 1169.214966,1044.072632 
	C1172.386597,1047.415527 1176.878174,1047.507812 1181.667969,1045.836670 
	C1191.683228,1042.342529 1201.492798,1042.294434 1209.849487,1050.324097 
	C1210.302002,1050.758911 1210.975830,1050.976074 1211.566406,1051.252197 
	C1221.480835,1055.886963 1231.416016,1053.954834 1240.331909,1049.409302 
	C1248.623779,1045.181763 1256.781860,1043.358276 1265.930786,1043.774414 
	C1276.396484,1044.250122 1285.240356,1039.552002 1291.012939,1031.325073 
	C1302.284180,1015.261719 1310.641846,997.960449 1309.027710,977.320190 
	C1308.588379,971.701477 1306.264893,967.564331 1301.838013,965.188232 
	C1294.470337,961.233582 1286.866089,957.405029 1277.918213,958.776978 
	C1273.311401,959.483276 1270.091064,957.487549 1268.187012,953.116272 
	C1267.562622,951.682739 1266.370850,950.208557 1265.042847,949.415100 
	C1255.021362,943.426758 1244.846924,937.765869 1232.631836,937.905884 
	C1229.499634,937.941772 1226.366699,937.911255 1223.723511,937.911255 
	C1222.083618,933.827576 1221.090698,930.079468 1219.195190,926.863159 
	C1212.238892,915.059570 1199.892700,911.869873 1187.947754,909.691956 
	C1175.839233,907.484375 1163.727417,910.817932 1151.941040,914.176819 
	C1140.080078,917.556885 1128.504028,921.472351 1118.727661,929.473938 
	C1115.562988,932.063904 1112.106079,934.681396 1108.335205,936.073975 
	C1096.893188,940.299377 1085.135986,943.670837 1073.691406,947.890076 
	C1066.471680,950.551758 1059.592041,954.135681 1052.691406,956.871338 
	C1054.220825,947.859558 1054.354004,938.815674 1057.307739,930.812805 
	C1061.947144,918.243042 1060.293091,906.393250 1056.972656,894.232117 
	C1052.206299,876.774658 1049.769531,859.014038 1050.162231,840.895020 
	C1067.248169,841.366394 1084.336182,841.778503 1101.419556,842.327881 
	C1115.159790,842.769775 1128.893677,843.411560 1142.632568,843.902649 
	C1156.723389,844.406372 1170.818359,844.797119 1184.909058,845.306641 
	C1198.318237,845.791504 1211.722534,846.416077 1225.132080,846.887695 
	C1239.887451,847.406677 1254.645996,847.838013 1269.404053,848.276794 
	C1288.140015,848.833862 1306.876709,849.365967 1325.613281,849.897644 
	C1342.042358,850.363892 1358.473022,850.775452 1374.900757,851.283752 
	C1390.488281,851.766052 1406.073730,852.324524 1421.658813,852.883179 
	C1433.751099,853.316589 1445.849731,853.649475 1457.930664,854.301819 
	C1473.578857,855.146851 1489.222168,856.134888 1504.848633,857.313110 
	C1514.672729,858.053772 1524.504028,858.957520 1534.255981,860.328918 
	C1545.564087,861.919128 1556.880127,863.686707 1568.027344,866.130798 
	C1582.481323,869.299866 1596.802124,873.099548 1611.108276,876.899292 
	C1614.029053,877.675049 1616.580444,879.762512 1619.389404,881.055298 
	C1625.744263,883.980042 1632.177612,886.734253 1638.535889,889.651733 
	C1650.352661,895.073608 1656.443359,903.956848 1657.420898,917.295410 
	C1659.146484,940.844055 1656.650269,964.308105 1656.866089,987.824280 
	C1656.973755,999.543335 1652.324097,1011.231384 1651.395752,1023.056763 
	C1650.558716,1033.720093 1651.848755,1044.551880 1652.234375,1055.308228 
	C1652.293579,1056.959106 1652.665527,1058.602905 1652.670288,1060.250610 
	C1652.707764,1073.245728 1652.910400,1086.245361 1652.632446,1099.234619 
	C1652.328003,1113.465942 1651.801880,1127.702271 1650.921021,1141.908325 
	C1650.289551,1152.088257 1649.219360,1162.265137 1647.793213,1172.365356 
	C1646.125000,1184.179199 1643.824463,1195.902710 1641.860596,1207.675903 
	C1640.163208,1217.852173 1638.548584,1228.042236 1636.905884,1238.227661 
	C1635.344604,1247.907715 1633.653198,1257.570068 1632.293701,1267.278564 
	C1631.495239,1272.980103 1631.185791,1278.752930 1630.740601,1284.500244 
	C1630.130493,1292.378052 1629.910645,1300.299805 1628.957520,1308.133911 
	C1627.752319,1318.040283 1625.956177,1327.874146 1624.456177,1337.745483 
	C1623.326416,1345.179565 1622.409180,1352.649292 1621.107666,1360.052368 
	C1620.432373,1363.892944 1619.128418,1367.622925 1617.575195,1371.749146 
	C1615.946777,1371.790283 1614.838867,1371.524658 1613.758667,1371.173706 
	C1607.301758,1369.075073 1600.982300,1365.948975 1594.366943,1365.088013 
	C1585.136963,1363.886719 1576.583252,1367.582642 1568.560059,1372.087158 
	C1556.042114,1379.114746 1543.427002,1385.978760 1531.073853,1393.285400 
	C1525.884277,1396.354858 1518.721069,1397.017334 1516.546997,1404.309692 
	C1516.287354,1405.180542 1514.381836,1405.833740 1513.135742,1406.095703 
	C1500.479492,1408.756958 1487.860107,1411.666260 1475.110840,1413.788086 
	C1465.539795,1415.380981 1455.786621,1415.858887 1446.128662,1416.956421 
	C1437.822632,1417.900391 1429.539429,1419.041626 1421.240601,1420.050781 
	C1416.496460,1420.627563 1411.743652,1421.137085 1406.990723,1421.637573 
	C1398.984497,1422.480469 1390.886108,1424.445801 1382.988647,1423.836670 
	C1372.124878,1422.998657 1361.470581,1419.742676 1350.619263,1418.368042 
	C1338.372437,1416.816650 1326.021973,1415.901001 1313.687988,1415.275391 
	C1303.548462,1414.760986 1293.364624,1415.183350 1283.204346,1414.989014 
	C1274.575439,1414.824097 1265.935913,1413.868164 1257.329590,1414.146729 
	C1237.294922,1414.794922 1217.276001,1415.945190 1197.254028,1416.958862 
	C1190.478394,1417.301880 1183.663574,1417.481323 1176.955078,1418.388916 
	C1168.356323,1419.552490 1159.900513,1422.057861 1151.284790,1422.736694 
	C1141.296143,1423.523682 1131.397339,1426.281006 1121.180908,1424.269287 
	C1116.041016,1423.257202 1110.512207,1424.181519 1106.241455,1419.929443 
	C1105.191162,1418.883789 1103.191406,1418.158813 1101.714233,1418.285889 
	C1095.650635,1418.807617 1091.247681,1416.169922 1087.460693,1411.809937 
	C1083.717407,1407.500000 1078.894775,1407.209961 1073.769409,1408.543213 
	C1070.922241,1409.283813 1068.088135,1410.897095 1065.281006,1410.825684 
	C1053.897827,1410.536621 1042.527100,1409.746826 1031.151855,1409.140259 
	C1030.986328,1409.131470 1030.819702,1409.115112 1030.656860,1409.085083 
	C1020.025269,1407.130981 1009.333557,1405.451172 998.779297,1403.143188 
	C987.730408,1400.727173 976.567932,1398.429688 965.891357,1394.797852 
	C945.192749,1387.756958 924.616577,1380.273438 904.332214,1372.120850 
	C884.317749,1364.077026 864.145264,1356.085693 845.093445,1346.071289 
	C819.800171,1332.776123 795.574463,1317.457886 770.798462,1303.167969 
	C752.786377,1292.778931 734.640991,1282.620239 716.525269,1272.411865 
	C706.397705,1266.704956 696.101135,1261.290649 686.071838,1255.418091 
	C667.825623,1244.734375 650.820068,1231.933716 630.977844,1223.978149 
	C621.211487,1220.062378 611.984802,1214.754639 602.130676,1211.114014 
	C585.945496,1205.134766 569.332703,1200.316528 553.123718,1194.396606 
	C542.339661,1190.458130 531.556274,1186.149292 524.343811,1176.206421 
	C523.322327,1174.798218 520.690674,1174.382812 518.709778,1173.880859 
	C514.024475,1172.693726 508.650970,1173.250732 505.440186,1168.505249 
	C502.068329,1163.521973 495.940063,1161.744873 490.249146,1163.469849 
	C485.918762,1164.782471 481.351379,1165.358154 476.859100,1166.070435 
	C474.904480,1166.380371 472.789703,1165.860718 470.891846,1166.317139 
	C460.740662,1168.759155 450.552734,1171.117432 440.565521,1174.128418 
	C437.702179,1174.991699 434.750275,1177.476929 433.123688,1180.035278 
	C431.150269,1183.139526 429.150177,1184.150757 425.592896,1184.163696 
	C418.375427,1184.189941 411.027985,1184.421265 406.122070,1191.185913 
	C405.844330,1191.568848 404.946655,1191.502197 404.432953,1191.622437 
	C400.756561,1186.498047 397.578522,1185.361450 392.069885,1185.838135 
	C387.533844,1186.230591 382.738159,1186.594482 378.386383,1185.571655 
	C366.660614,1182.816284 354.945679,1180.661621 342.837830,1180.990356 
	C340.969696,1181.041138 338.921600,1180.333374 337.214417,1179.467896 
	C327.737762,1174.664307 314.707245,1177.127686 307.860443,1185.171387 
M512.479187,1052.917847 
	C522.248413,1053.396484 531.276306,1050.345703 540.093323,1046.747803 
	C552.889954,1041.526001 563.853577,1033.330688 574.588745,1024.789917 
	C579.192383,1021.127319 584.202209,1017.975830 588.812256,1014.320740 
	C596.557068,1008.179993 600.339966,999.382507 604.018005,990.596741 
	C608.649414,979.533569 612.298035,968.258057 612.035156,956.007446 
	C611.813721,945.685364 611.706421,935.345093 612.060547,925.030396 
	C612.513550,911.833435 604.928345,902.968262 595.730225,895.639221 
	C590.223816,891.251709 583.197754,888.446106 576.459778,886.031921 
	C571.000854,884.076050 564.979309,883.542480 559.151550,882.841736 
	C557.013672,882.584656 554.725220,883.999817 552.488892,884.062622 
	C545.881897,884.248108 539.141052,883.330566 532.683716,884.333130 
	C522.753113,885.875000 512.743896,887.856995 503.250610,891.075562 
	C482.501526,898.110291 466.332306,912.063782 453.230042,929.018433 
	C443.203003,941.993652 441.632050,957.576843 445.514343,973.542847 
	C446.593628,977.981384 447.960114,982.368225 448.731964,986.858276 
	C449.532104,991.512634 449.315399,996.365112 450.338654,1000.953552 
	C453.623962,1015.685852 461.976105,1027.575195 472.951050,1037.461792 
	C477.131012,1041.227173 483.124420,1042.896240 487.809326,1046.203491 
	C495.015961,1051.291260 502.827179,1053.458008 512.479187,1052.917847 
M925.572693,1076.033081 
	C921.673950,1075.272949 917.804932,1074.141846 913.870544,1073.826294 
	C904.365723,1073.064209 895.372803,1075.720093 886.211548,1077.959839 
	C868.732788,1082.233154 854.939697,1091.410522 844.340454,1105.835083 
	C838.778259,1113.404663 837.287720,1121.509521 841.259460,1129.905396 
	C844.129028,1135.971191 847.646851,1141.937256 851.918396,1147.082153 
	C857.663757,1154.001953 865.084167,1158.948975 874.766235,1157.097168 
	C880.337158,1156.031616 885.819763,1154.186279 891.115112,1152.112305 
	C894.552734,1150.765869 897.435364,1149.133667 901.384949,1150.923462 
	C903.447632,1151.858398 906.743774,1151.927979 908.709229,1150.903809 
	C917.853271,1146.138428 927.717285,1147.573486 937.332764,1146.899292 
	C938.231934,1146.836304 939.313538,1147.213501 940.078003,1147.730103 
	C946.585938,1152.127319 953.533447,1151.907837 960.837585,1150.278320 
	C964.694580,1149.417725 970.015015,1147.652954 972.473083,1149.397949 
	C979.591675,1154.451172 985.944397,1152.692139 991.457764,1148.422363 
	C996.316223,1144.659668 999.629517,1145.618408 1003.922668,1148.523804 
	C1008.986877,1151.951172 1012.448730,1151.424194 1017.051025,1147.480957 
	C1018.104797,1146.578003 1019.636658,1145.365723 1020.748291,1145.543945 
	C1026.395142,1146.449707 1031.972656,1147.783325 1037.583618,1148.921387 
	C1038.468628,1149.100708 1039.463989,1149.282715 1040.301636,1149.060791 
	C1046.841553,1147.328003 1053.393188,1145.618530 1059.850098,1143.609009 
	C1061.436768,1143.115112 1063.257202,1141.837891 1063.992798,1140.415405 
	C1066.818237,1134.951904 1069.938354,1129.485840 1071.651001,1123.640503 
	C1073.888794,1116.003174 1071.730347,1112.076294 1065.676636,1107.844116 
	C1064.586426,1107.081909 1064.287109,1104.861450 1064.058472,1103.252441 
	C1063.241943,1097.505371 1062.788940,1091.502441 1057.550903,1087.830444 
	C1054.765381,1085.877686 1051.465332,1084.236206 1048.167603,1083.533813 
	C1042.944336,1082.421387 1037.325684,1081.027100 1032.239014,1081.893188 
	C1023.806458,1083.328613 1022.170471,1082.481445 1021.617432,1073.945190 
	C1021.157959,1066.853882 1018.537781,1060.416260 1011.652039,1057.034302 
	C1006.104004,1054.309448 1000.425476,1051.702637 994.552063,1049.841064 
	C990.763672,1048.640259 986.325806,1047.909546 982.516418,1048.666504 
	C973.128723,1050.532104 963.941345,1053.398926 954.662964,1055.823364 
	C942.744507,1058.937622 933.163757,1065.431763 925.572693,1076.033081 
M1503.487915,1071.526001 
	C1501.563110,1069.318726 1500.063843,1066.199219 1497.637451,1065.067139 
	C1488.689819,1060.892578 1479.688354,1056.605103 1469.317261,1057.150391 
	C1464.894897,1057.382935 1462.698364,1054.779053 1462.742554,1050.319092 
	C1462.780518,1046.486206 1463.303467,1042.546753 1462.594849,1038.849365 
	C1461.881714,1035.128296 1460.833496,1030.703247 1458.313110,1028.249634 
	C1452.242188,1022.339539 1444.234375,1019.648987 1435.881958,1018.419128 
	C1433.987183,1018.140076 1431.957886,1018.656372 1430.005737,1018.919250 
	C1427.920288,1019.200195 1425.572510,1020.424255 1423.829102,1019.821167 
	C1418.281738,1017.901917 1413.015869,1018.161255 1407.542236,1019.932800 
	C1398.232788,1022.945740 1388.117310,1024.387695 1379.701660,1028.982666 
	C1371.365601,1033.534302 1364.726196,1041.184448 1357.312256,1047.439209 
	C1354.577271,1049.746460 1352.091064,1052.870850 1348.910767,1054.030762 
	C1339.266479,1057.547852 1329.195679,1059.899292 1319.563110,1063.444092 
	C1311.017944,1066.588745 1303.042236,1071.121582 1297.048462,1078.250977 
	C1293.429077,1082.555908 1290.028320,1087.288696 1293.010498,1093.380493 
	C1296.891602,1101.308594 1300.273071,1109.634521 1305.299805,1116.783447 
	C1307.750854,1120.269287 1312.210205,1123.382690 1318.029175,1123.130737 
	C1325.074219,1122.825684 1332.137939,1118.361694 1339.317261,1122.821045 
	C1339.950073,1123.214111 1341.432495,1121.958374 1342.522339,1121.953491 
	C1344.943359,1121.942505 1348.171265,1121.307983 1349.642212,1122.579590 
	C1354.779297,1127.020264 1360.363525,1125.278076 1366.090942,1125.535400 
	C1370.976440,1125.755249 1376.460938,1124.073364 1381.094604,1128.057983 
	C1384.273071,1130.791138 1388.095337,1132.955078 1391.940796,1134.680054 
	C1395.451416,1136.254883 1399.328491,1137.194458 1403.140869,1137.858765 
	C1406.395508,1138.426025 1409.956543,1138.907715 1413.076660,1138.157227 
	C1417.129395,1137.182373 1420.859009,1134.899902 1424.771484,1133.286621 
	C1426.095337,1132.740845 1427.756714,1131.880981 1428.915405,1132.252075 
	C1436.196289,1134.585327 1442.424072,1132.425659 1448.386597,1128.387939 
	C1449.273682,1127.787109 1450.791626,1127.071899 1451.505615,1127.430176 
	C1456.384277,1129.878174 1461.139648,1128.800293 1465.890625,1127.287476 
	C1471.319336,1125.558838 1476.794312,1123.918335 1482.073120,1121.800659 
	C1484.880615,1120.674805 1487.134888,1117.711182 1489.951904,1117.150391 
	C1500.009888,1115.147827 1506.088745,1110.215576 1507.815918,1100.193359 
	C1508.430176,1096.629395 1506.992554,1092.641846 1506.154175,1088.923584 
	C1505.643433,1086.658936 1504.031250,1084.600098 1503.731567,1082.340332 
	C1503.297241,1079.063354 1503.601929,1075.688477 1503.487915,1071.526001 
M425.703796,1023.263306 
	C422.124329,1024.920044 418.277466,1026.169434 415.016357,1028.311035 
	C405.825012,1034.346802 396.924377,1040.822998 387.815582,1046.987427 
	C377.494080,1053.972290 369.500153,1062.954468 363.902771,1074.079590 
	C361.882294,1078.095459 362.942719,1080.433228 367.295380,1079.523438 
	C375.361572,1077.837402 384.312042,1076.645142 390.860504,1072.230347 
	C403.575958,1063.658081 414.904144,1053.022461 426.758209,1043.182861 
	C429.058746,1041.273193 430.798737,1038.330200 433.382538,1037.188843 
	C440.348206,1034.111694 440.910095,1028.447876 440.899292,1022.356506 
	C435.654938,1018.219055 431.117279,1021.729980 425.703796,1023.263306 
M410.604980,942.452087 
	C416.762848,942.452026 422.930328,942.643127 429.072784,942.335388 
	C430.919342,942.242859 433.275482,941.170105 434.274841,939.753723 
	C434.821045,938.979675 433.489380,935.826111 432.196930,934.981506 
	C424.232819,929.777100 416.225342,924.580994 407.872101,920.045410 
	C398.090485,914.734131 387.354431,913.230835 376.289825,914.007751 
	C366.832733,914.671814 365.244843,917.906555 369.619659,926.303528 
	C372.981598,932.756348 378.032593,935.727173 385.093658,936.874695 
	C393.360840,938.218018 401.467529,940.549011 410.604980,942.452087 
M509.166229,1115.881226 
	C511.569275,1106.958984 514.013306,1098.047363 516.357422,1089.109619 
	C517.464294,1084.889404 518.966614,1080.651367 519.203796,1076.361328 
	C519.408081,1072.665771 519.309448,1067.718140 517.132751,1065.409668 
	C513.676208,1061.743896 504.585419,1065.268433 502.705627,1070.243408 
	C501.730621,1072.823853 501.173065,1075.564819 500.471832,1078.245117 
	C497.968231,1087.814331 495.487091,1097.389404 492.991180,1106.960693 
	C491.315094,1113.388062 490.392914,1119.762695 494.099548,1125.879272 
	C496.410187,1129.692139 500.241364,1130.571899 502.972473,1127.168457 
	C505.455841,1124.073853 506.879395,1120.128784 509.166229,1115.881226 
M640.368408,1080.143555 
	C647.133606,1083.877930 653.860779,1087.715088 661.784790,1088.682617 
	C662.947693,1080.393188 657.704895,1069.245728 650.226135,1064.707764 
	C636.922241,1056.635254 623.212280,1049.221924 607.932861,1045.656616 
	C605.050598,1044.984009 600.367126,1046.161133 598.540039,1048.253418 
	C595.991272,1051.171875 599.630005,1053.837402 601.927795,1055.931030 
	C603.129150,1057.025635 604.571899,1057.871948 605.961731,1058.740601 
	C617.209412,1065.770752 628.470459,1072.779663 640.368408,1080.143555 
M591.046021,849.592041 
	C585.907288,855.186035 580.672974,860.696167 575.663452,866.403564 
	C572.336975,870.193359 576.880554,872.406067 578.255615,874.794739 
	C579.257996,876.536133 582.290039,877.900452 585.033447,875.059753 
	C587.520691,872.484192 590.678467,870.460876 593.779358,868.589661 
	C607.447510,860.341797 615.839600,847.860962 622.080261,833.648560 
	C622.595581,832.475037 622.281189,830.937073 622.352234,829.568359 
	C620.969788,829.699524 619.484436,829.547424 618.221069,830.006348 
	C607.568787,833.876526 599.343811,841.185425 591.046021,849.592041 
M678.470825,994.817383 
	C690.272278,999.555603 702.140442,1003.990479 715.482117,1002.708618 
	C709.855225,998.388794 704.194641,993.959473 697.773010,991.610474 
	C681.482178,985.651245 664.858521,980.599182 648.332397,975.294861 
	C647.446533,975.010559 645.503174,975.510010 645.327454,976.055542 
	C644.980408,977.132690 645.209290,978.686951 645.802368,979.686584 
	C646.310791,980.543579 647.616028,980.996704 648.642822,981.466675 
	C658.318787,985.895447 668.010681,990.289551 678.470825,994.817383 
z"/>
<path fill="#55BE2F" opacity="1.000000" stroke="none" 
	d="
M307.764862,1185.569580 
	C314.707245,1177.127686 327.737762,1174.664307 337.214417,1179.467896 
	C338.921600,1180.333374 340.969696,1181.041138 342.837830,1180.990356 
	C354.945679,1180.661621 366.660614,1182.816284 378.386383,1185.571655 
	C382.738159,1186.594482 387.533844,1186.230591 392.069885,1185.838135 
	C397.578522,1185.361450 400.756561,1186.498047 404.432953,1191.622437 
	C404.946655,1191.502197 405.844330,1191.568848 406.122070,1191.185913 
	C411.027985,1184.421265 418.375427,1184.189941 425.592896,1184.163696 
	C429.150177,1184.150757 431.150269,1183.139526 433.123688,1180.035278 
	C434.750275,1177.476929 437.702179,1174.991699 440.565521,1174.128418 
	C450.552734,1171.117432 460.740662,1168.759155 470.891846,1166.317139 
	C472.789703,1165.860718 474.904480,1166.380371 476.859100,1166.070435 
	C481.351379,1165.358154 485.918762,1164.782471 490.249146,1163.469849 
	C495.940063,1161.744873 502.068329,1163.521973 505.440186,1168.505249 
	C508.650970,1173.250732 514.024475,1172.693726 518.709778,1173.880859 
	C520.690674,1174.382812 523.322327,1174.798218 524.343811,1176.206421 
	C531.556274,1186.149292 542.339661,1190.458130 553.123718,1194.396606 
	C569.332703,1200.316528 585.945496,1205.134766 602.130676,1211.114014 
	C611.984802,1214.754639 621.211487,1220.062378 630.977844,1223.978149 
	C650.820068,1231.933716 667.825623,1244.734375 686.071838,1255.418091 
	C696.101135,1261.290649 706.397705,1266.704956 716.525269,1272.411865 
	C734.640991,1282.620239 752.786377,1292.778931 770.798462,1303.167969 
	C795.574463,1317.457886 819.800171,1332.776123 845.093445,1346.071289 
	C864.145264,1356.085693 884.317749,1364.077026 904.332214,1372.120850 
	C924.616577,1380.273438 945.192749,1387.756958 965.891357,1394.797852 
	C976.567932,1398.429688 987.730408,1400.727173 998.779297,1403.143188 
	C1009.333557,1405.451172 1020.025269,1407.130981 1030.656860,1409.085083 
	C1030.819702,1409.115112 1030.986328,1409.131470 1031.151855,1409.140259 
	C1042.527100,1409.746826 1053.897827,1410.536621 1065.281006,1410.825684 
	C1068.088135,1410.897095 1070.922241,1409.283813 1073.769409,1408.543213 
	C1078.894775,1407.209961 1083.717407,1407.500000 1087.460693,1411.809937 
	C1091.247681,1416.169922 1095.650635,1418.807617 1101.714233,1418.285889 
	C1103.191406,1418.158813 1105.191162,1418.883789 1106.241455,1419.929443 
	C1110.512207,1424.181519 1116.041016,1423.257202 1121.180908,1424.269287 
	C1131.397339,1426.281006 1141.296143,1423.523682 1151.284790,1422.736694 
	C1159.900513,1422.057861 1168.356323,1419.552490 1176.955078,1418.388916 
	C1183.663574,1417.481323 1190.478394,1417.301880 1197.254028,1416.958862 
	C1217.276001,1415.945190 1237.294922,1414.794922 1257.329590,1414.146729 
	C1265.935913,1413.868164 1274.575439,1414.824097 1283.204346,1414.989014 
	C1293.364624,1415.183350 1303.548462,1414.760986 1313.687988,1415.275391 
	C1326.021973,1415.901001 1338.372437,1416.816650 1350.619263,1418.368042 
	C1361.470581,1419.742676 1372.124878,1422.998657 1382.988647,1423.836670 
	C1390.886108,1424.445801 1398.984497,1422.480469 1406.990723,1421.637573 
	C1411.743652,1421.137085 1416.496460,1420.627563 1421.240601,1420.050781 
	C1429.539429,1419.041626 1437.822632,1417.900391 1446.128662,1416.956421 
	C1455.786621,1415.858887 1465.539795,1415.380981 1475.110840,1413.788086 
	C1487.860107,1411.666260 1500.479492,1408.756958 1513.135742,1406.095703 
	C1514.381836,1405.833740 1516.287354,1405.180542 1516.546997,1404.309692 
	C1518.721069,1397.017334 1525.884277,1396.354858 1531.073853,1393.285400 
	C1543.427002,1385.978760 1556.042114,1379.114746 1568.560059,1372.087158 
	C1576.583252,1367.582642 1585.136963,1363.886719 1594.366943,1365.088013 
	C1600.982300,1365.948975 1607.301758,1369.075073 1613.758667,1371.173706 
	C1614.838867,1371.524658 1615.946777,1371.790283 1617.419922,1372.101807 
	C1621.163086,1374.758423 1622.391602,1381.839600 1620.611572,1387.218994 
	C1619.595581,1390.289185 1618.049316,1393.507202 1618.205566,1396.584351 
	C1618.784790,1407.991455 1614.866699,1418.075073 1610.455200,1428.218140 
	C1608.663818,1432.337158 1607.837769,1436.964844 1607.131348,1441.449219 
	C1605.404297,1452.412842 1603.734497,1463.399658 1602.576660,1474.433228 
	C1601.936401,1480.534302 1602.990234,1486.830200 1602.185791,1492.893066 
	C1600.858032,1502.902466 1598.886108,1512.847168 1596.732666,1522.720337 
	C1594.734253,1531.882690 1592.241333,1540.942505 1589.773438,1549.994873 
	C1588.460571,1554.810547 1586.829956,1559.546631 1585.178223,1564.260864 
	C1583.360352,1569.448975 1581.673584,1574.720703 1579.348633,1579.683960 
	C1576.356567,1586.071289 1572.325439,1591.993042 1569.587891,1598.472778 
	C1566.448730,1605.903320 1564.782593,1613.970581 1561.483398,1621.315186 
	C1557.352539,1630.511475 1552.211670,1639.254028 1547.505737,1648.191895 
	C1547.274292,1648.631714 1547.133179,1649.337158 1546.783936,1649.465088 
	C1536.983887,1653.052734 1535.777832,1665.799072 1525.042236,1669.011719 
	C1515.570312,1671.846191 1507.050171,1678.006836 1497.533936,1680.507568 
	C1487.818481,1683.060669 1477.177002,1684.737183 1467.352783,1683.507446 
	C1456.948730,1682.205078 1448.373413,1685.412720 1439.702515,1689.080811 
	C1430.641113,1692.913940 1421.939941,1690.326172 1413.023193,1689.713623 
	C1404.647949,1689.138184 1396.231079,1688.658569 1387.850342,1688.864746 
	C1382.646851,1688.992676 1377.505127,1690.755493 1372.285034,1691.285645 
	C1364.536011,1692.072754 1356.744873,1692.458740 1348.967041,1692.942627 
	C1332.399658,1693.973145 1315.804932,1694.667603 1299.268555,1696.058960 
	C1287.827881,1697.021606 1276.470215,1698.955078 1265.067261,1700.388184 
	C1256.765625,1701.431519 1248.440796,1702.292725 1240.143555,1703.367920 
	C1229.263062,1704.777710 1218.409058,1706.392822 1207.524658,1707.770142 
	C1202.128296,1708.453003 1196.698242,1708.947632 1191.268188,1709.269653 
	C1180.700806,1709.896729 1170.125488,1710.414185 1159.548096,1710.844604 
	C1145.794434,1711.404297 1132.038818,1711.984985 1118.278198,1712.290527 
	C1090.859253,1712.899292 1063.437622,1713.559326 1036.014160,1713.727417 
	C1022.910339,1713.807739 1009.798523,1712.846558 996.693054,1712.291626 
	C986.595398,1711.864014 976.500916,1711.357056 966.407166,1710.842651 
	C957.003418,1710.363525 947.603333,1709.815552 938.200378,1709.321045 
	C928.619873,1708.817017 919.036438,1708.365845 909.456848,1707.846069 
	C900.707153,1707.371216 891.962219,1706.809448 883.212646,1706.332397 
	C864.507141,1705.312378 845.796875,1704.375122 827.094360,1703.303589 
	C811.198486,1702.392822 795.300903,1701.473755 779.421753,1700.316284 
	C762.027954,1699.048096 744.657104,1697.467896 727.270935,1696.092407 
	C718.999512,1695.437988 710.688354,1695.196777 702.444031,1694.312744 
	C691.612000,1693.151123 680.822327,1691.583252 670.025208,1690.110596 
	C658.612366,1688.553955 647.250488,1686.372559 635.788330,1685.546631 
	C630.968018,1685.199219 625.975769,1687.770508 621.012024,1688.767578 
	C611.232239,1690.731567 601.431030,1692.596924 591.613586,1694.363647 
	C582.927734,1695.926758 574.121948,1696.918579 565.524170,1698.852295 
	C554.079285,1701.426147 542.787659,1704.679932 531.420105,1707.602417 
	C530.468994,1707.846924 529.416809,1707.975464 528.452209,1707.848755 
	C517.767212,1706.446655 507.114136,1704.751465 496.399567,1703.649536 
	C492.051208,1703.202271 487.572174,1703.985840 483.156525,1704.270264 
	C482.365448,1704.321045 481.598816,1704.831787 480.811981,1704.857422 
	C465.071503,1705.370361 449.323914,1706.259521 433.592133,1706.040527 
	C429.496582,1705.983643 425.451782,1702.440063 421.378540,1700.508911 
	C420.225586,1699.962402 419.085052,1699.089844 417.886169,1698.988403 
	C410.340942,1698.349854 402.656403,1698.555420 395.260254,1697.179443 
	C387.706818,1695.774170 379.555969,1695.924561 372.966461,1690.626221 
	C371.826080,1689.709106 369.199280,1690.448120 367.296539,1690.702393 
	C354.475769,1692.415283 341.883392,1691.281616 330.980194,1684.179321 
	C320.462708,1677.328491 311.168304,1669.094604 305.690521,1656.931641 
	C302.012726,1648.765381 295.894867,1641.615112 294.542786,1632.444458 
	C293.683136,1626.614014 292.152527,1620.130859 293.834595,1614.871704 
	C295.830261,1608.632202 293.338135,1603.530151 292.954132,1597.971069 
	C292.480530,1591.115112 290.461212,1584.328613 290.348816,1577.491821 
	C289.979126,1554.999634 290.076141,1532.497803 290.214264,1510.001099 
	C290.246155,1504.804932 291.790405,1499.581543 291.527405,1494.427490 
	C290.979370,1483.687012 289.268738,1473.002197 288.816376,1462.261597 
	C288.318909,1450.450195 288.776215,1438.601196 288.674377,1426.769775 
	C288.568237,1414.436035 290.183167,1402.479980 295.724579,1391.282715 
	C296.012756,1390.700317 296.305023,1390.062378 296.358490,1389.430298 
	C296.955505,1382.374878 297.996246,1375.314209 297.978210,1368.257324 
	C297.920380,1345.608276 297.286530,1322.960083 297.310303,1300.312012 
	C297.315308,1295.521484 299.146667,1290.728516 300.191345,1285.948608 
	C300.325928,1285.332886 301.055542,1284.793457 301.063843,1284.212280 
	C301.158020,1277.605103 300.672974,1270.949219 301.303864,1264.398926 
	C302.434875,1252.655029 304.448517,1240.997559 305.642456,1229.257935 
	C306.246582,1223.317993 305.684723,1217.268921 305.973755,1211.284912 
	C306.381683,1202.838257 307.089600,1194.406250 307.764862,1185.569580 
z"/>
<path fill="#5C2D7A" opacity="1.000000" stroke="none" 
	d="
M1050.106201,840.435303 
	C1049.769531,859.014038 1052.206299,876.774658 1056.972656,894.232117 
	C1060.293091,906.393250 1061.947144,918.243042 1057.307739,930.812805 
	C1054.354004,938.815674 1054.220825,947.859558 1052.552002,957.164124 
	C1049.805786,966.142822 1047.942749,974.641296 1044.731812,982.595642 
	C1037.309082,1000.984558 1028.854126,1018.785645 1007.943848,1025.818481 
	C991.530396,1028.503296 975.186218,1031.783325 958.683655,1033.701782 
	C942.913879,1035.535278 926.960632,1037.006836 911.122009,1036.725830 
	C891.050293,1036.369751 875.529785,1027.268921 866.078003,1008.617371 
	C861.983154,1000.536987 858.872314,992.429443 857.855835,983.432190 
	C857.629639,981.430115 856.334778,979.405334 855.119568,977.681702 
	C847.298462,966.588928 847.342285,953.989502 848.220093,941.325562 
	C848.835388,932.448547 850.217529,923.627197 850.964233,914.756287 
	C852.405579,897.633057 853.658203,880.493835 854.948853,863.358215 
	C855.358948,857.913940 855.686890,852.462524 855.971436,847.010071 
	C856.351196,839.730591 856.651855,832.447021 856.934753,824.739380 
	C857.922974,807.163208 859.083923,790.019104 859.972351,772.860779 
	C861.105286,750.979614 862.147400,729.091980 862.988770,707.197937 
	C863.819275,685.586975 864.292603,663.962463 865.047302,642.348206 
	C865.288330,635.446472 865.927917,628.558533 865.233521,621.255920 
	C859.734741,627.918823 854.138672,634.504211 848.756348,641.259827 
	C835.416443,658.003052 822.614380,675.197510 808.773193,691.512329 
	C793.966858,708.964844 778.937195,726.343567 762.696106,742.433228 
	C743.015076,761.930786 722.075439,780.246521 697.966797,794.300232 
	C685.225098,801.727844 671.818420,807.807861 656.550171,808.019409 
	C643.772217,808.196350 633.067261,803.157715 623.073730,795.661255 
	C609.747864,785.665039 601.716003,771.693420 593.471130,757.787354 
	C592.469727,756.098267 590.533875,754.731689 588.729980,753.796326 
	C584.489929,751.597839 582.087280,743.647583 585.062134,739.421204 
	C593.485535,727.453979 601.960205,715.514526 610.740051,703.808105 
	C638.122437,667.298401 665.498291,630.781738 693.179199,594.498596 
	C715.080261,565.791382 737.217773,537.258362 759.643616,508.959656 
	C777.196960,486.809418 794.900757,464.745758 813.377808,443.369812 
	C829.606323,424.595062 846.562317,406.392914 864.041321,388.775635 
	C875.037354,377.692596 887.558289,368.210358 903.826599,365.462463 
	C913.379150,363.848907 921.925720,363.245361 930.959045,369.427338 
	C961.262390,390.165131 993.371887,407.876648 1027.327026,421.980347 
	C1056.089600,433.927216 1084.995361,445.541504 1113.995483,456.900574 
	C1141.285889,467.589996 1167.416626,480.652405 1193.049805,494.724609 
	C1223.243774,511.300629 1252.349976,529.679138 1280.030762,550.184509 
	C1296.573486,562.439087 1313.004517,574.938049 1328.590332,588.366577 
	C1346.825317,604.077576 1363.909912,621.116455 1381.862183,637.166992 
	C1388.441162,643.048950 1390.172974,649.742249 1387.735596,657.556702 
	C1385.669434,664.181641 1382.709839,670.539307 1379.921387,676.917175 
	C1379.412964,678.080261 1377.903442,679.435669 1376.723755,679.573914 
	C1368.548340,680.531921 1365.872192,687.795471 1361.260986,692.767273 
	C1350.688110,704.166992 1340.705688,716.359375 1326.264771,723.098816 
	C1319.678955,726.172363 1313.258545,729.240356 1307.087280,733.178040 
	C1297.926758,739.023071 1287.564575,737.094238 1277.953613,734.449524 
	C1244.805420,725.327637 1213.445068,711.820984 1183.344727,695.171936 
	C1154.768311,679.365784 1128.839600,659.794312 1102.783447,640.337036 
	C1085.704712,627.583618 1068.400024,615.132751 1050.050171,601.707642 
	C1050.050171,682.082520 1050.050171,761.029053 1050.106201,840.435303 
z"/>
<path fill="#F8AD06" opacity="1.000000" stroke="none" 
	d="
M501.444092,841.971313 
	C508.485413,847.553223 510.987915,864.946045 506.111176,873.687317 
	C497.056335,866.441162 493.242432,856.218994 489.278137,845.697510 
	C491.078125,840.714172 494.572510,839.679321 501.444092,841.971313 
z"/>
<path fill="#FEFFFF" opacity="1.000000" stroke="none" 
	d="
M1008.242798,1026.010010 
	C1028.854126,1018.785645 1037.309082,1000.984558 1044.731812,982.595642 
	C1047.942749,974.641296 1049.805786,966.142822 1052.420410,957.598755 
	C1059.592041,954.135681 1066.471680,950.551758 1073.691406,947.890076 
	C1085.135986,943.670837 1096.893188,940.299377 1108.335205,936.073975 
	C1112.106079,934.681396 1115.562988,932.063904 1118.727661,929.473938 
	C1128.504028,921.472351 1140.080078,917.556885 1151.941040,914.176819 
	C1163.727417,910.817932 1175.839233,907.484375 1187.947754,909.691956 
	C1199.892700,911.869873 1212.238892,915.059570 1219.195190,926.863159 
	C1221.090698,930.079468 1222.083618,933.827576 1223.723511,937.911255 
	C1226.366699,937.911255 1229.499634,937.941772 1232.631836,937.905884 
	C1244.846924,937.765869 1255.021362,943.426758 1265.042847,949.415100 
	C1266.370850,950.208557 1267.562622,951.682739 1268.187012,953.116272 
	C1270.091064,957.487549 1273.311401,959.483276 1277.918213,958.776978 
	C1286.866089,957.405029 1294.470337,961.233582 1301.838013,965.188232 
	C1306.264893,967.564331 1308.588379,971.701477 1309.027710,977.320190 
	C1310.641846,997.960449 1302.284180,1015.261719 1291.012939,1031.325073 
	C1285.240356,1039.552002 1276.396484,1044.250122 1265.930786,1043.774414 
	C1256.781860,1043.358276 1248.623779,1045.181763 1240.331909,1049.409302 
	C1231.416016,1053.954834 1221.480835,1055.886963 1211.566406,1051.252197 
	C1210.975830,1050.976074 1210.302002,1050.758911 1209.849487,1050.324097 
	C1201.492798,1042.294434 1191.683228,1042.342529 1181.667969,1045.836670 
	C1176.878174,1047.507812 1172.386597,1047.415527 1169.214966,1044.072632 
	C1165.104614,1039.740112 1161.017822,1041.425659 1157.030273,1042.854492 
	C1147.494995,1046.270874 1138.171021,1048.005493 1128.444458,1043.401855 
	C1126.719482,1042.585327 1124.084106,1043.853027 1121.864624,1043.890137 
	C1115.537476,1043.996094 1109.200928,1044.157227 1102.882202,1043.919678 
	C1098.480225,1043.754272 1093.382935,1044.201538 1089.883179,1042.164185 
	C1084.787964,1039.198120 1081.670410,1040.626709 1077.230835,1043.139526 
	C1069.783936,1047.354126 1061.627319,1049.951172 1052.796143,1049.925415 
	C1049.067261,1049.914551 1045.267700,1050.483276 1041.619019,1051.311279 
	C1033.506348,1053.152222 1027.739624,1048.351562 1022.723022,1043.745239 
	C1017.244934,1038.715210 1013.207214,1032.116577 1008.242798,1026.010010 
z"/>
<path fill="#FEAC01" opacity="1.000000" stroke="none" 
	d="
M511.994263,1052.952026 
	C502.827179,1053.458008 495.015961,1051.291260 487.809326,1046.203491 
	C483.124420,1042.896240 477.131012,1041.227173 472.951050,1037.461792 
	C461.976105,1027.575195 453.623962,1015.685852 450.338654,1000.953552 
	C449.315399,996.365112 449.532104,991.512634 448.731964,986.858276 
	C447.960114,982.368225 446.593628,977.981384 445.514343,973.542847 
	C441.632050,957.576843 443.203003,941.993652 453.230042,929.018433 
	C466.332306,912.063782 482.501526,898.110291 503.250610,891.075562 
	C512.743896,887.856995 522.753113,885.875000 532.683716,884.333130 
	C539.141052,883.330566 545.881897,884.248108 552.488892,884.062622 
	C554.725220,883.999817 557.013672,882.584656 559.151550,882.841736 
	C564.979309,883.542480 571.000854,884.076050 576.459778,886.031921 
	C583.197754,888.446106 590.223816,891.251709 595.730225,895.639221 
	C604.928345,902.968262 612.513550,911.833435 612.060547,925.030396 
	C611.706421,935.345093 611.813721,945.685364 612.035156,956.007446 
	C612.298035,968.258057 608.649414,979.533569 604.018005,990.596741 
	C600.339966,999.382507 596.557068,1008.179993 588.812256,1014.320740 
	C584.202209,1017.975830 579.192383,1021.127319 574.588745,1024.789917 
	C563.853577,1033.330688 552.889954,1041.526001 540.093323,1046.747803 
	C531.276306,1050.345703 522.248413,1053.396484 511.994263,1052.952026 
z"/>
<path fill="#FEFFFF" opacity="1.000000" stroke="none" 
	d="
M925.800415,1075.764648 
	C933.163757,1065.431763 942.744507,1058.937622 954.662964,1055.823364 
	C963.941345,1053.398926 973.128723,1050.532104 982.516418,1048.666504 
	C986.325806,1047.909546 990.763672,1048.640259 994.552063,1049.841064 
	C1000.425476,1051.702637 1006.104004,1054.309448 1011.652039,1057.034302 
	C1018.537781,1060.416260 1021.157959,1066.853882 1021.617432,1073.945190 
	C1022.170471,1082.481445 1023.806458,1083.328613 1032.239014,1081.893188 
	C1037.325684,1081.027100 1042.944336,1082.421387 1048.167603,1083.533813 
	C1051.465332,1084.236206 1054.765381,1085.877686 1057.550903,1087.830444 
	C1062.788940,1091.502441 1063.241943,1097.505371 1064.058472,1103.252441 
	C1064.287109,1104.861450 1064.586426,1107.081909 1065.676636,1107.844116 
	C1071.730347,1112.076294 1073.888794,1116.003174 1071.651001,1123.640503 
	C1069.938354,1129.485840 1066.818237,1134.951904 1063.992798,1140.415405 
	C1063.257202,1141.837891 1061.436768,1143.115112 1059.850098,1143.609009 
	C1053.393188,1145.618530 1046.841553,1147.328003 1040.301636,1149.060791 
	C1039.463989,1149.282715 1038.468628,1149.100708 1037.583618,1148.921387 
	C1031.972656,1147.783325 1026.395142,1146.449707 1020.748291,1145.543945 
	C1019.636658,1145.365723 1018.104797,1146.578003 1017.051025,1147.480957 
	C1012.448730,1151.424194 1008.986877,1151.951172 1003.922668,1148.523804 
	C999.629517,1145.618408 996.316223,1144.659668 991.457764,1148.422363 
	C985.944397,1152.692139 979.591675,1154.451172 972.473083,1149.397949 
	C970.015015,1147.652954 964.694580,1149.417725 960.837585,1150.278320 
	C953.533447,1151.907837 946.585938,1152.127319 940.078003,1147.730103 
	C939.313538,1147.213501 938.231934,1146.836304 937.332764,1146.899292 
	C927.717285,1147.573486 917.853271,1146.138428 908.709229,1150.903809 
	C906.743774,1151.927979 903.447632,1151.858398 901.384949,1150.923462 
	C897.435364,1149.133667 894.552734,1150.765869 891.115112,1152.112305 
	C885.819763,1154.186279 880.337158,1156.031616 874.766235,1157.097168 
	C865.084167,1158.948975 857.663757,1154.001953 851.918396,1147.082153 
	C847.646851,1141.937256 844.129028,1135.971191 841.259460,1129.905396 
	C837.287720,1121.509521 838.778259,1113.404663 844.340454,1105.835083 
	C854.939697,1091.410522 868.732788,1082.233154 886.211548,1077.959839 
	C895.372803,1075.720093 904.365723,1073.064209 913.870544,1073.826294 
	C917.804932,1074.141846 921.673950,1075.272949 925.800415,1075.764648 
z"/>
<path fill="#FEFFFF" opacity="1.000000" stroke="none" 
	d="
M1503.539795,1071.940674 
	C1503.601929,1075.688477 1503.297241,1079.063354 1503.731567,1082.340332 
	C1504.031250,1084.600098 1505.643433,1086.658936 1506.154175,1088.923584 
	C1506.992554,1092.641846 1508.430176,1096.629395 1507.815918,1100.193359 
	C1506.088745,1110.215576 1500.009888,1115.147827 1489.951904,1117.150391 
	C1487.134888,1117.711182 1484.880615,1120.674805 1482.073120,1121.800659 
	C1476.794312,1123.918335 1471.319336,1125.558838 1465.890625,1127.287476 
	C1461.139648,1128.800293 1456.384277,1129.878174 1451.505615,1127.430176 
	C1450.791626,1127.071899 1449.273682,1127.787109 1448.386597,1128.387939 
	C1442.424072,1132.425659 1436.196289,1134.585327 1428.915405,1132.252075 
	C1427.756714,1131.880981 1426.095337,1132.740845 1424.771484,1133.286621 
	C1420.859009,1134.899902 1417.129395,1137.182373 1413.076660,1138.157227 
	C1409.956543,1138.907715 1406.395508,1138.426025 1403.140869,1137.858765 
	C1399.328491,1137.194458 1395.451416,1136.254883 1391.940796,1134.680054 
	C1388.095337,1132.955078 1384.273071,1130.791138 1381.094604,1128.057983 
	C1376.460938,1124.073364 1370.976440,1125.755249 1366.090942,1125.535400 
	C1360.363525,1125.278076 1354.779297,1127.020264 1349.642212,1122.579590 
	C1348.171265,1121.307983 1344.943359,1121.942505 1342.522339,1121.953491 
	C1341.432495,1121.958374 1339.950073,1123.214111 1339.317261,1122.821045 
	C1332.137939,1118.361694 1325.074219,1122.825684 1318.029175,1123.130737 
	C1312.210205,1123.382690 1307.750854,1120.269287 1305.299805,1116.783447 
	C1300.273071,1109.634521 1296.891602,1101.308594 1293.010498,1093.380493 
	C1290.028320,1087.288696 1293.429077,1082.555908 1297.048462,1078.250977 
	C1303.042236,1071.121582 1311.017944,1066.588745 1319.563110,1063.444092 
	C1329.195679,1059.899292 1339.266479,1057.547852 1348.910767,1054.030762 
	C1352.091064,1052.870850 1354.577271,1049.746460 1357.312256,1047.439209 
	C1364.726196,1041.184448 1371.365601,1033.534302 1379.701660,1028.982666 
	C1388.117310,1024.387695 1398.232788,1022.945740 1407.542236,1019.932800 
	C1413.015869,1018.161255 1418.281738,1017.901917 1423.829102,1019.821167 
	C1425.572510,1020.424255 1427.920288,1019.200195 1430.005737,1018.919250 
	C1431.957886,1018.656372 1433.987183,1018.140076 1435.881958,1018.419128 
	C1444.234375,1019.648987 1452.242188,1022.339539 1458.313110,1028.249634 
	C1460.833496,1030.703247 1461.881714,1035.128296 1462.594849,1038.849365 
	C1463.303467,1042.546753 1462.780518,1046.486206 1462.742554,1050.319092 
	C1462.698364,1054.779053 1464.894897,1057.382935 1469.317261,1057.150391 
	C1479.688354,1056.605103 1488.689819,1060.892578 1497.637451,1065.067139 
	C1500.063843,1066.199219 1501.563110,1069.318726 1503.539795,1071.940674 
z"/>
<path fill="#F9AC05" opacity="1.000000" stroke="none" 
	d="
M426.075012,1023.127441 
	C431.117279,1021.729980 435.654938,1018.219055 440.899292,1022.356506 
	C440.910095,1028.447876 440.348206,1034.111694 433.382538,1037.188843 
	C430.798737,1038.330200 429.058746,1041.273193 426.758209,1043.182861 
	C414.904144,1053.022461 403.575958,1063.658081 390.860504,1072.230347 
	C384.312042,1076.645142 375.361572,1077.837402 367.295380,1079.523438 
	C362.942719,1080.433228 361.882294,1078.095459 363.902771,1074.079590 
	C369.500153,1062.954468 377.494080,1053.972290 387.815582,1046.987427 
	C396.924377,1040.822998 405.825012,1034.346802 415.016357,1028.311035 
	C418.277466,1026.169434 422.124329,1024.920044 426.075012,1023.127441 
z"/>
<path fill="#FAAC04" opacity="1.000000" stroke="none" 
	d="
M410.124390,942.451782 
	C401.467529,940.549011 393.360840,938.218018 385.093658,936.874695 
	C378.032593,935.727173 372.981598,932.756348 369.619659,926.303528 
	C365.244843,917.906555 366.832733,914.671814 376.289825,914.007751 
	C387.354431,913.230835 398.090485,914.734131 407.872101,920.045410 
	C416.225342,924.580994 424.232819,929.777100 432.196930,934.981506 
	C433.489380,935.826111 434.821045,938.979675 434.274841,939.753723 
	C433.275482,941.170105 430.919342,942.242859 429.072784,942.335388 
	C422.930328,942.643127 416.762848,942.452026 410.124390,942.451782 
z"/>
<path fill="#F9AC05" opacity="1.000000" stroke="none" 
	d="
M508.968140,1116.219849 
	C506.879395,1120.128784 505.455841,1124.073853 502.972473,1127.168457 
	C500.241364,1130.571899 496.410187,1129.692139 494.099548,1125.879272 
	C490.392914,1119.762695 491.315094,1113.388062 492.991180,1106.960693 
	C495.487091,1097.389404 497.968231,1087.814331 500.471832,1078.245117 
	C501.173065,1075.564819 501.730621,1072.823853 502.705627,1070.243408 
	C504.585419,1065.268433 513.676208,1061.743896 517.132751,1065.409668 
	C519.309448,1067.718140 519.408081,1072.665771 519.203796,1076.361328 
	C518.966614,1080.651367 517.464294,1084.889404 516.357422,1089.109619 
	C514.013306,1098.047363 511.569275,1106.958984 508.968140,1116.219849 
z"/>
<path fill="#F8AD06" opacity="1.000000" stroke="none" 
	d="
M640.047913,1079.969238 
	C628.470459,1072.779663 617.209412,1065.770752 605.961731,1058.740601 
	C604.571899,1057.871948 603.129150,1057.025635 601.927795,1055.931030 
	C599.630005,1053.837402 595.991272,1051.171875 598.540039,1048.253418 
	C600.367126,1046.161133 605.050598,1044.984009 607.932861,1045.656616 
	C623.212280,1049.221924 636.922241,1056.635254 650.226135,1064.707764 
	C657.704895,1069.245728 662.947693,1080.393188 661.784790,1088.682617 
	C653.860779,1087.715088 647.133606,1083.877930 640.047913,1079.969238 
z"/>
<path fill="#F8AD06" opacity="1.000000" stroke="none" 
	d="
M591.299377,849.337219 
	C599.343811,841.185425 607.568787,833.876526 618.221069,830.006348 
	C619.484436,829.547424 620.969788,829.699524 622.352295,829.568359 
	C622.281189,830.937073 622.595581,832.475037 622.080261,833.648560 
	C615.839600,847.860962 607.447510,860.341797 593.779358,868.589661 
	C590.678467,870.460876 587.520691,872.484192 585.033447,875.059753 
	C582.290039,877.900452 579.257996,876.536133 578.255615,874.794739 
	C576.880554,872.406067 572.336975,870.193359 575.663452,866.403564 
	C580.672974,860.696167 585.907288,855.186035 591.299377,849.337219 
z"/>
<path fill="#F2AD0C" opacity="1.000000" stroke="none" 
	d="
M678.084351,994.755493 
	C668.010681,990.289551 658.318787,985.895447 648.642822,981.466675 
	C647.616028,980.996704 646.310791,980.543579 645.802368,979.686584 
	C645.209290,978.686951 644.980408,977.132690 645.327454,976.055542 
	C645.503174,975.510010 647.446533,975.010559 648.332397,975.294861 
	C664.858521,980.599182 681.482178,985.651245 697.773010,991.610474 
	C704.194641,993.959473 709.855225,998.388794 715.482117,1002.708618 
	C702.140442,1003.990479 690.272278,999.555603 678.084351,994.755493 
z"/>
</svg>