<svg id="eCJDbYEkFip1" xmlns="http://www.w3.org/2000/svg" xmlns:xlink="http://www.w3.org/1999/xlink" viewBox="0 0 1080 1080" shape-rendering="geometricPrecision" text-rendering="geometricPrecision" project-id="ecc8ec5b4d9844aca55ac02a542550c0" export-id="a07f4474bdab4f0885c046bf67f3b642" cached="false"><path d="M451.999573,925.952271c-19.820801-.34314-39.142761-.637146-58.46225-1.046875-10.978638-.232728-21.95166-.807129-32.93045-.924134-5.129456-.054687-10.277008,1.005921-15.398224.871216-12.801545-.336548-25.602082-1.658142-38.385224-1.456421-10.534057.16626-21.10437,1.539246-31.548279,3.110596-16.73825,2.518249-33.474334,3.565185-50.100265.112305-13.691345-2.843445-27.121246-6.925538-40.774887-9.975831-16.689575-3.728515-24.979233-14.856689-27.173157-30.812927-1.34996-9.818237-1.022537-19.858887-1.643173-29.787414-.900909-14.412171-2.194305-28.802735-2.903748-43.222901-.474136-9.63739-.267364-19.310302-.289581-28.967468-.040207-17.483276-.090759-34.967163.021713-52.449707.024399-3.79541,1.004227-7.582825,1.05101-11.380066.149094-12.103638.445237-24.224976-.02568-36.311768-.56012-14.375793-2.018707-28.71405-2.789459-43.084655-.832398-15.520081.259704-31.019287,4.587326-45.919983c3.301513-11.367859,5.171219-22.800598,5.827591-34.507385c1.06192-18.939759,7.26799-36.597229,13.390518-54.268372.849487-2.451813,2.224991-4.951874,4.002182-6.813782c10.379059-10.873932,22.125168-19.65451,35.696884-26.605316c18.623276-9.538055,38.327545-14.59201,58.664108-17.725861c13.737336-2.116882,27.602784-3.571899,41.462159-4.686126c19.522766-1.569489,39.082275-2.785309,58.647918-3.667908c8.110077-.365845,16.29892.244751,24.412354.900909c12.730224,1.029633,25.412079,2.653595,38.140899,3.705445c25.675995,2.121734,51.463379,3.235412,77.028931,6.254364c23.755554,2.805206,47.514221,1.993835,71.271118,2.865478c22.099854.810822,44.156616,2.787812,66.256104,3.618164c22.27185.836823,44.576233.767304,66.860351,1.330353c20.634522.521362,41.330811.547241,61.868286,2.317536c15.097535,1.301391,29.974366,5.114166,44.964966,7.719177c15.201599,2.641571,30.350586,5.818451,45.660645,7.517273c9.443176,1.04779,13.376404,6.486572,15.448913,14.240417c4.992188,18.677521,10.057312,37.357331,14.177857,56.235932c1.785888,8.182434,1.887939,16.865844,1.757019,25.306274-.301697,19.449463-.636597,38.930481-2.014588,58.323669-2.05664,28.944764-4.340942,57.899109-9.238586,86.555176-1.634827,9.565796-4.13446,19.074585-4.730652,28.70282-.663879,10.72168.049011,21.573364.78772,32.325501.859436,12.506958,3.145935,24.954956,3.352661,37.452697.119446,7.217102-3.076172,14.426758-4.005676,21.73816-1.374146,10.809021-2.653137,21.69342-2.875183,32.568237-.231995,11.361999-4.691712,19.566101-13.343811,26.911316-12.533142,10.640075-26.909729,13.989441-42.677002,14.997253-8.831482.564514-17.531739,3.018189-26.321595,4.43103-24.386718,3.9198-48.744812,7.565003-73.645874,6.537171-11.388305-.470093-22.975341.594848-34.286682,2.239807-22.058655,3.208008-44.023437,3.146728-66.175842,1.286621-21.52771-1.807617-43.130493-2.889343-64.722107-3.728149-30.284668-1.176392-60.588928-1.853455-90.886169-2.694825-5.827179-.161865-11.660645-.096801-17.991089-.137023M331.49353,467.144318c-3.835479.568573-7.670929,1.137146-12.559967,1.57257-14.524231,1.653962-29.048431,3.307892-44.220886,4.844605-2.06134.485504-4.12265.970978-6.951721,1.400482-21.728668,3.026428-41.495178,11.235718-59.832962,23.007477-2.713944,1.742157-4.661515,4.678162-6.909943,7.052429c0,0,.007553-.053894-.660736-.396423-5.831711,3.589355-9.044144,8.847992-10.615387,15.481354-2.737533,11.557128-6.316757,22.933898-8.61705,34.569458-1.76059,8.905639-1.59317,18.182678-3.187332,27.133483-2.001557,11.238282-5.550675,22.217225-7.264267,33.485596-1.503952,9.889771-3.311188,20.05835.278488,30.816589.674942,23.930909,1.662964,47.858399,1.923202,71.793824.198746,18.282409-.486511,36.575622-.851837,54.862549-.19284,9.653259-1.020843,19.317993-.725296,28.951965.693772,22.613953,1.710648,45.222839,2.997223,67.810974.374405,6.573242,1.844879,13.127197,3.298218,19.580688.984787,4.372864,4.220825,6.915223,8.633697,8.124512c6.577408,1.802368,13.054108,3.970032,19.621872,5.810181c21.024231,5.890198,42.222931,8.834106,64.12259,5.29071c12.284027-1.987426,24.753082-3.467773,37.176178-3.807434c17.93399-.490417,35.905181.118897,53.854431.526673c17.478149.397155,34.944885,1.299682,52.423156,1.685546c51.279358,1.132142,102.568818,1.868836,153.840119,3.278626c21.604553.594116,43.166687,2.615601,64.761047,3.739075c11.956726.622131,24.06427,1.9776,35.885315.803283c22.85315-2.270202,45.571655-4.985656,68.648926-4.75476c14.551269.145629,29.192139-1.760926,43.676269-3.643799c16.468201-2.140869,32.72931-6.051209,49.229615-7.703858c10.220398-1.02362,19.029358-3.656799,27.016723-10.042724c4.389466-3.509339,6.848877-7.306092,6.549683-13.110047-.759766-14.735656,1.698791-29.11322,4.668762-43.521606c1.719544-8.342407,2.492127-17.129578,2.015381-25.622498-.939758-16.740661-3.045837-33.415893-4.436645-50.951416.403442-4.47705.421997-9.028625,1.272949-13.418945c5.419616-27.961975,9.232666-56.099731,11.239624-84.53833c2.050415-29.05426,5.161499-58.027588,3.758484-87.23291-1.045227-21.758789-8.131165-41.957031-15.591248-62.064362-.685974-1.848907-2.457642-3.792694-4.228943-4.642517-4.319458-2.072418-8.810119-4.114746-13.458557-5.102386-8.100037-1.721039-16.399414-2.477417-24.563232-3.930664-12.932495-2.302094-25.732239-6.073121-38.749024-7.02594-25.553833-1.870484-51.215942-2.299744-76.83789-3.191071-19.301148-.671448-38.615052-.987884-57.91333-1.724457-26.110718-.996582-52.207642-2.359283-78.318909-3.339447-14.977966-.562195-29.98761-.370849-44.954834-1.098449-10.780335-.524018-21.503479-2.132813-32.271057-3.030915-19.078919-1.591247-38.317902-1.997986-57.227936-4.720184-34.978912-5.035431-69.961792-4.901611-105.942963-3.007507Z" fill="#030404" stroke="#000" stroke-width="30" stroke-linecap="round"/><path d="M171.015228,645.305176c-3.653137-9.951477-1.845901-20.120056-.341949-30.009827c1.713592-11.268371,5.26271-22.247314,7.264267-33.485596c1.594162-8.950805,1.426742-18.227844,3.187332-27.133483c2.300293-11.63556,5.879517-23.01233,8.61705-34.569458c1.571243-6.633362,4.783676-11.891999,11.019486-14.915162.254043,5.763398,2.974456,8.987427,7.649032,10.607361c7.740631,2.682556,15.715103,3.983338,23.922424,3.230225c1.345749-.123474,2.636918-.841553,3.953309-1.284851-.809006-1.318482-1.312043-3.076233-2.475129-3.886353-9.861282-6.869354-20.201156-12.220093-32.846695-8.826782c2.302124-2.383636,4.249695-5.319641,6.963639-7.061798c18.337784-11.771759,38.104294-19.981049,60.343124-22.626465c2.10083,2.657227,3.691528,4.933441,5.282196,7.209686.602539-.219055,1.205048-.438079,1.807587-.657104c0-2.738953,0-5.477875,0-8.216858c14.524231-1.653931,29.048431-3.307861,43.85614-4.575012-2.44577,3.296264-5.403656,6.036377-7.762085,9.220489-.689972.931488-.057861,3.357086.718536,4.645935.396943.658936,2.838685.903534,3.697175.336914c6.501373-4.291076,13.173461-8.489746,16.503295-16.064148c35.100739-1.992675,70.083619-2.126495,105.062531,2.908936c18.910034,2.722198,38.149017,3.128937,57.227936,4.720184c10.767578.898102,21.490722,2.506897,32.271057,3.030915c14.967224.7276,29.976868.536254,44.954834,1.098449c26.111267.980164,52.208191,2.342865,78.318909,3.339447c19.298278.736573,38.612182,1.053009,57.91333,1.724457c25.621948.891327,51.284057,1.320587,76.83789,3.191071c13.016785.952819,25.816529,4.723846,38.749024,7.02594c8.163818,1.453247,16.463195,2.209625,24.563232,3.930664c4.648438.98764,9.139099,3.029968,13.458557,5.102386c1.771301.849823,3.542969,2.79361,4.228943,4.642517c7.460083,20.107331,14.546021,40.305573,15.591248,62.064362c1.403015,29.205322-1.708069,58.17865-3.758484,87.23291-2.006958,28.438599-5.820008,56.576355-11.239624,84.53833-.850952,4.39032-.869507,8.941895-1.779541,13.943237-7.651001,1.805115-14.765747,3.31427-21.9552,4.248352-2.676514.34784-4.268799,1.007142-5.153321,3.611939-1.116394,3.287598-3.35791,4.179626-6.988586,3.826843-10.878296-1.056946-21.859314-2.603271-32.70343-2.052246-12.000672.60968-23.852478,3.715271-35.847474,5.005615-10.133117,1.090027-20.385131,1.626953-30.57135,1.481812-7.059997-.100647-14.082946-2.468445-21.147888-2.617249-21.094482-.444275-42.206848-.601501-63.301269-.238281-9.56073.164673-19.092835,1.851868-28.643433,2.79248-5.896301.580689-11.856384,1.806824-17.691528,1.391419-7.49469-.533569-14.872132-2.299194-21.026367-7.4151-1.268189-1.054199-3.791382-.749207-5.743653-.80481-9.889831-.282043-20.10376,1.017212-29.602966-1.02893-16.973206-3.655884-33.894409-8.302552-50.136109-14.402283-17.685913-6.642212-34.9346-14.714844-51.713623-23.434448-18.577911-9.654358-36.399688-20.76239-54.569-31.205628-5.761871-3.311645-11.763763-6.239868-17.339996-9.833618-13.996063-9.020019-28.263764-17.532898-43.83728-23.532532-8.677948-3.343078-17.48346-6.542297-26.482117-8.813537-9.212189-2.325135-14.694-11.169373-24.116669-12.787659-.714691-.122742-1.242065-1.141663-1.975525-1.384216-2.812622-.929932-5.744018-2.589539-8.502166-2.368409-5.70691.45752-11.291657,2.444031-16.998398,2.896424-9.519394.754577-16.039627,9.163391-25.620453,9.50885-.645508.023254-1.258728.942139-.937912.685608-3.584503-.670899-6.17862-1.315613-8.812088-1.620239-8.876709-1.026856-17.99382-1.035157-26.573456-3.199341-5.759705-1.45282-10.624008-1.807312-15.767319.857666M598.098083,511.597961c-1.783935,1.217469-3.41632,2.820984-5.376159,3.590088-13.074036,5.130921-26.522156,9.133179-38.750366,16.555481-6.19635,3.761048-12.229554,7.306092-16.749146,12.94104-2.736633,3.411988-3.997864,7.503235-1.718262,11.647766c2.708802,4.924988,5.261963,10.123963,8.942505,14.261292c2.549256,2.865601,6.721558,5.259949,10.47638,5.826904c4.400573.664429,9.401794-.131164,13.660949-1.64685c6.183777-2.20044,11.830201-4.086182,18.715149-2.315003c4.91272,1.263855,10.653809-.813171,15.643982.303833c5.173706,1.15802,9.746643.804138,14.619995-.581787c1.704224-.48468,3.700013-.072693,5.546448.101196c2.831482.266785,5.72815,1.270386,8.454895.903687c4.769348-.641419,8.944702-.594605,13.331543,2.145508c2.634033,1.645263,6.563049,2.194214,9.736023,1.807556c7.950073-.968628,15.121155-5.242554,23.562317-5.175232c3.297302.026306,7.790527-3.076355,9.695435-6.059021c3.873291-6.065002,7.213012-12.769714,9.209899-19.663513c2.933289-10.126465.444947-14.375611-8.486328-17.605103-2.113403-.76416-4.618286-.374695-6.848388-.910156-1.776917-.426636-3.544983-1.24884-5.076233-2.26001-2.570557-1.697387-4.69281-4.387878-7.464051-5.399963-5.345092-1.95221-11.011413-3.025208-17.085937-4.603394-3.333374-8.992553-10.078796-13.629699-20.870728-13.629303-11.748474.000428-22.605651,3.167206-33.169922,9.764984m-351.371978-.29663c-3.814698,5.493042-6.072846,11.507385-5.248444,18.255127.497131,4.069091,2.330429,8.070434,2.290756,12.089599-.079681,8.074219,2.819123,14.77356,7.263703,21.223816c6.35057,9.216248,20.92894,17.461914,34.4095,13.593567c10.337982-2.966675,18.319488-9.673828,27.036713-15.472168c8.791107-5.847534,13.644439-13.785156,15.557769-23.313721c1.709809-8.51477,1.485627-17.428711,1.978638-26.174255.553223-9.812775-4.997864-15.817505-13.132233-19.791596-5.812805-2.839782-11.922546-3.730712-18.619201-3.911987-20.975647-.567657-37.61316,7.377381-51.537201,23.501618m210.142853,89.090576c-1.311371,1.49469-2.664887,2.954773-3.926362,4.490417-4.16275,5.067322-3.85971,10.415528-.664398,15.739197c3.722992,6.20282,7.564209,12.714844,16.295777,11.528381c7.121154-.967712,14.127868-2.754394,21.211731-4.031433c2.71289-.489074,5.525604-.945617,8.245849-.753113c4.334076.306702,8.614105,1.515015,12.944336,1.699097c4.317749.183655,8.686707-2.15271,13.001709.664307.78772.514343,2.720337-.085388,3.775086-.736695c3.525512-2.177124,6.788147-3.569397,10.675537-.468322.821289.655151,3.047241-.438721,4.622741-.74408c1.53711-.298035,3.146057-1.083496,4.591248-.846924c5.789062.947815,11.134399.696289,16.861023-1.530212c7.41803-2.884216,10.629211-13.055176,5.178772-19.091614-.79773-.883423-1.245117-2.32135-1.353516-3.546936-.418762-4.735413-2.786011-7.878845-7.408996-8.834839-3.320496-.686645-6.824219-.497009-10.136597-1.208679-1.702087-.365662-4.282898-1.605225-4.556152-2.864502-2.010621-9.264221-8.516114-15.530334-18.09375-14.672363-11.392334,1.02063-22.787568,3.117737-31.237915,12.256347-.839997.908387-2.507294,1.715027-3.662568,1.567322-13.614013-1.740295-25.544159,1.840759-36.363555,11.384644m247.834289-18.304322c-2.394043,1.154419-5.197998,1.855042-7.090515,3.564637-3.213867,2.903259-7.378845,6.017944-8.430542,9.798584-2.529602,9.093994,9.067627,19.887573,18.383301,18.048767.926819-.182984,1.92572-.190491,2.867248-.078308c6.41864.764465,12.862671,1.394409,19.23114,2.467468c2.955506.497986,5.746521,1.933533,8.636231,2.869568c4.334778,1.404236,8.706787,3.880005,13.033752,3.819336c5.323242-.074524,10.628174-2.242249,15.917176-3.598206c2.201233-.564392,4.477661-2.233642,6.485473-1.916321c9.374573,1.481446,16.166382-4.848388,24.145142-7.488159c1.105408-.365722,1.983032-1.759277,2.717041-2.845276c2.237305-3.309875.771973-18.885864-1.973511-21.789367-.340698-.360413-.69519-.801758-1.132507-.962037-3.853211-1.41217-7.629761-3.346496-11.615357-4.014526-6.935913-1.162475-7.100097-.830994-7.080078-8.133362.014527-5.314087-2.34143-8.330444-7.224182-10.652649-4.753113-2.260559-9.281189-1.128234-13.972412-1.406189-10.199646-.604248-19.912781,1.156617-27.179382,8.151123-7.296875,7.023804-15.19574,11.889649-25.718018,14.164917M222.727493,566.276367c-9.394821,6.73346-19.80249,12.490479-24.704467,25.402222c3.155197-.360047,5.256744-.369141,7.237548-.862793c14.370682-3.581238,22.598145-15.746582,33.403611-24.289551c1.016433-.803589.458007-3.599182.630767-5.469849-1.714004-.064025-3.612152-.634887-5.105758-.092285-3.725296,1.353455-7.266663,3.213135-11.461701,5.312256m58.199753,18.352295c-5.287598-2.229065-7.531616-1.401428-8.896484,3.60315-1.825836,6.694763-3.527741,13.426147-5.111634,20.181945-.353546,1.508179-.362304,3.309937.134125,4.747193.537598,1.556579,1.851807,2.845092,2.827301,4.250427c1.479035-1.096252,3.905792-1.935364,4.284271-3.330139c2.580475-9.509522,4.730103-19.135926,6.762421-29.452576m43.72583-10.825195c-4.965545,3.636108.010803,5.035095,1.810028,6.273437c5.862641,4.034912,11.96106,7.750244,18.131958,11.305298c3.506592,2.020081,7.331604,3.487427,11.19159,5.286804c2.025604-10.010559-15.552063-22.781616-31.133576-22.865539m42.301727-32.153809c-6.387329-1.777038-12.774658-3.554077-19.768951-5.499939c3.137634,6.226685,29.54599,16.128296,37.400055,13.551209-5.62262-2.612854-11.245239-5.225647-17.631104-8.05127Z" fill="#30b3ff"/><path d="M170.98349,645.708557c5.175049-3.068359,10.039352-2.713867,15.799057-1.261047c8.579636,2.164184,17.696747,2.172485,26.573456,3.199341c2.633468.304626,5.227585.94934,8.812088,1.620239-.320816.256531.292404-.662354.937912-.685608c9.580826-.345459,16.101059-8.754273,25.620453-9.50885c5.706741-.452393,11.291488-2.438904,16.998398-2.896424c2.758148-.22113,5.689544,1.438477,8.502166,2.368409.73346.242553,1.260834,1.261474,1.975525,1.384216c9.422669,1.618286,14.90448,10.462524,24.116669,12.787659c8.998657,2.27124,17.804169,5.470459,26.482117,8.813537c15.573516,5.999634,29.841217,14.512513,43.83728,23.532532c5.576233,3.59375,11.578125,6.521973,17.339996,9.833618c18.169312,10.443238,35.991089,21.55127,54.569,31.205628c16.779023,8.719604,34.02771,16.792236,51.713623,23.434448c16.2417,6.099731,33.162903,10.746399,50.136109,14.402283c9.499206,2.046142,19.713135.746887,29.602966,1.02893c1.952271.055603,4.475464-.249389,5.743653.80481c6.154235,5.115906,13.531677,6.881531,21.026367,7.4151c5.835144.415405,11.795227-.81073,17.691528-1.391419c9.550598-.940612,19.082703-2.627807,28.643433-2.79248c21.094421-.36322,42.206787-.205994,63.301269.238281c7.064942.148804,14.087891,2.516602,21.147888,2.617249c10.186219.145141,20.438233-.391785,30.57135-1.481812c11.994996-1.290344,23.846802-4.395935,35.847474-5.005615c10.844116-.551025,21.825134.9953,32.70343,2.052246c3.630676.352783,5.872192-.539245,6.988586-3.826843.884522-2.604797,2.476807-3.264099,5.153321-3.611939c7.189453-.934082,14.304199-2.443237,21.838745-3.831726c2.013855,16.594605,4.119934,33.269837,5.059692,50.010498.476746,8.49292-.295837,17.280091-2.015381,25.622498-2.969971,14.408386-5.428528,28.78595-4.668762,43.521606.299194,5.803955-2.160217,9.600708-6.549683,13.110047-7.987365,6.385925-16.796325,9.019104-27.016723,10.042724-16.500305,1.652649-32.761414,5.562989-49.229615,7.703858-14.48413,1.882873-29.125,3.789428-43.676269,3.643799-23.077271-.230896-45.795776,2.484558-68.648926,4.75476-11.821045,1.174317-23.928589-.181152-35.885315-.803283-21.59436-1.123474-43.156494-3.144959-64.761047-3.739075-51.271301-1.40979-102.560761-2.146484-153.840119-3.278626-17.478271-.385864-34.945007-1.288391-52.423156-1.685546-17.94925-.407776-35.920441-1.01709-53.854431-.526673-12.423096.339661-24.892151,1.820008-37.176178,3.807434-21.899659,3.543396-43.098359.599488-64.12259-5.29071-6.567764-1.840149-13.044464-4.007813-19.621872-5.810181-4.412872-1.209289-7.64891-3.751648-8.633697-8.124512-1.453339-6.453491-2.923813-13.007446-3.298218-19.580688-1.286575-22.588135-2.303451-45.197021-2.997223-67.810974-.295547-9.633972.532456-19.298706.725296-28.951965.365326-18.286927,1.050583-36.58014.851837-54.862549-.260238-23.935425-1.24826-47.862915-1.891479-72.197205Z" fill="#6dd448"/><path d="M331.933746,467.193604c-2.889618,7.623687-9.561706,11.822357-16.063079,16.113433-.85849.56662-3.300232.322022-3.697175-.336914-.776397-1.288849-1.408508-3.714447-.718536-4.645935c2.358429-3.184112,5.316315-5.924225,8.288879-9.1539c4.078766-.888824,7.914216-1.457397,12.189911-1.976684Z" fill="#f7ad07"/><path d="M275.036804,473.620117c.324097,2.797577.324097,5.536499.324097,8.275452-.602539.219025-1.205048.438049-1.807587.657104-1.590668-2.276245-3.181366-4.552459-4.898346-7.181701c1.935059-.838501,3.996369-1.323975,6.381836-1.750855Z" fill="#f7ad07"/><path d="M598.374329,511.358398c10.288025-6.358215,21.145202-9.524993,32.893676-9.525421c10.791932-.000396,17.537354,4.63675,20.870728,13.629303c6.074524,1.578186,11.740845,2.651184,17.085937,4.603394c2.771241,1.012085,4.893494,3.702576,7.464051,5.399963c1.53125,1.01117,3.299316,1.833374,5.076233,2.26001c2.230102.535461,4.734985.145996,6.848388.910156c8.931275,3.229492,11.419617,7.478638,8.486328,17.605103-1.996887,6.893799-5.336608,13.598511-9.209899,19.663513-1.904908,2.982666-6.398133,6.085327-9.695435,6.059021-8.441162-.067322-15.612244,4.206604-23.562317,5.175232-3.172974.386658-7.10199-.162293-9.736023-1.807556-4.386841-2.740113-8.562195-2.786927-13.331543-2.145508-2.726745.366699-5.623413-.636902-8.454895-.903687-1.846435-.173889-3.842224-.585876-5.546448-.101196-4.873352,1.385925-9.446289,1.739807-14.619995.581787-4.990173-1.117004-10.731262.960022-15.643982-.303833-6.884948-1.771179-12.531372.114563-18.715149,2.315003-4.259155,1.515686-9.260376,2.311279-13.660949,1.64685-3.754822-.566955-7.927124-2.961303-10.47638-5.826904-3.680542-4.137329-6.233703-9.336304-8.942505-14.261292-2.279602-4.144531-1.018371-8.235778,1.718262-11.647766c4.519592-5.634948,10.552796-9.179992,16.749146-12.94104c12.22821-7.422302,25.67633-11.42456,38.750366-16.555481c1.959839-.769104,3.592224-2.372619,5.652405-3.829651Z" fill="#fdfefe"/><path d="M246.948074,511.01593c13.702072-15.838836,30.339585-23.783874,51.315232-23.216217c6.696655.181275,12.806396,1.072205,18.619201,3.911987c8.134369,3.974091,13.685456,9.978821,13.132233,19.791596-.493011,8.745544-.268829,17.659485-1.978638,26.174255-1.91333,9.528565-6.766662,17.466187-15.557769,23.313721-8.717225,5.79834-16.698731,12.505493-27.036713,15.472168-13.48056,3.868347-28.05893-4.377319-34.4095-13.593567-4.44458-6.450256-7.343384-13.149597-7.263703-21.223816.039673-4.019165-1.793625-8.020508-2.290756-12.089599-.824402-6.747742,1.433746-12.762085,5.470413-18.540528Z" fill="#fdac02"/><path d="M457.124268,600.139404c10.564086-9.291382,22.494232-12.872436,36.108245-11.132141c1.155274.147705,2.822571-.658935,3.662568-1.567322c8.450347-9.13861,19.845581-11.235717,31.237915-12.256347c9.577636-.857971,16.083129,5.408142,18.09375,14.672363.273254,1.259277,2.854065,2.49884,4.556152,2.864502c3.312378.71167,6.816101.522034,10.136597,1.208679c4.622985.955994,6.990234,4.099426,7.408996,8.834839.108399,1.225586.555786,2.663513,1.353516,3.546936c5.450439,6.036438,2.239258,16.207398-5.178772,19.091614-5.726624,2.226501-11.071961,2.478027-16.861023,1.530212-1.445191-.236572-3.054138.548889-4.591248.846924-1.5755.305359-3.801452,1.399231-4.622741.74408-3.88739-3.101075-7.150025-1.708802-10.675537.468322-1.054749.651307-2.987366,1.251038-3.775086.736695-4.315002-2.817017-8.68396-.480652-13.001709-.664307-4.330231-.184082-8.61026-1.392395-12.944336-1.699097-2.720245-.192504-5.532959.264039-8.245849.753113-7.083863,1.277039-14.090577,3.063721-21.211731,4.031433-8.731568,1.186463-12.572785-5.325561-16.295777-11.528381-3.195312-5.323669-3.498352-10.671875.664398-15.739197c1.261475-1.535644,2.614991-2.995727,4.181672-4.74292Z" fill="#fdfefe"/><path d="M705.061523,581.94104c10.164002-2.128723,18.062867-6.994568,25.359742-14.018372c7.266601-6.994506,16.979736-8.755371,27.179382-8.151123c4.691223.277955,9.219299-.85437,13.972412,1.406189c4.882752,2.322205,7.238709,5.338562,7.224182,10.652649-.020019,7.302368.144165,6.970887,7.080078,8.133362c3.985596.66803,7.762146,2.602356,11.615357,4.014526.437317.160279.791809.601624,1.132507.962037c2.745484,2.903503,4.210816,18.479492,1.973511,21.789367-.734009,1.085999-1.611633,2.479554-2.717041,2.845276-7.97876,2.639771-14.770569,8.969605-24.145142,7.488159-2.007812-.317321-4.28424,1.351929-6.485473,1.916321-5.289002,1.355957-10.593934,3.523682-15.917176,3.598206-4.326965.060669-8.698974-2.4151-13.033752-3.819336-2.88971-.936035-5.680725-2.371582-8.636231-2.869568-6.368469-1.073059-12.8125-1.703003-19.23114-2.467468-.941528-.112183-1.940429-.104676-2.867248.078308-9.315674,1.838806-20.912903-8.954773-18.383301-18.048767c1.051697-3.78064,5.216675-6.895325,8.430542-9.798584c1.892517-1.709595,4.696472-2.410218,7.448791-3.711182Z" fill="#fdfefe"/><path d="M223.017426,566.055054c3.905105-1.877808,7.446472-3.737488,11.171768-5.090943c1.493606-.542602,3.391754.02826,5.105758.092285-.17276,1.870667.385666,4.66626-.630767,5.469849-10.805466,8.542969-19.032929,20.708313-33.403611,24.289551-1.980804.493652-4.082351.502746-7.237548.862793c4.901977-12.911743,15.309646-18.668762,24.9944-25.623535Z" fill="#f7ad07"/><path d="M200.991211,505.026581c12.618683-3.388642,22.958557,1.962097,32.819839,8.831451c1.163086.81012,1.666123,2.567871,2.475129,3.886353-1.316391.443298-2.60756,1.161377-3.953309,1.284851-8.207321.753113-16.181793-.547669-23.922424-3.230225-4.674576-1.619934-7.394989-4.843963-7.31488-10.436096-.069962-.394928-.077515-.341034-.104355-.336334Z" fill="#f7ad07"/><path d="M281.055389,584.992676c-2.160461,9.952636-4.310089,19.57904-6.890564,29.088562-.378479,1.394775-2.805236,2.233887-4.284271,3.330139-.975494-1.405335-2.289703-2.693848-2.827301-4.250427-.496429-1.437256-.487671-3.239014-.134125-4.747193c1.583893-6.755798,3.285798-13.487182,5.111634-20.181945c1.364868-5.004578,3.608886-5.832215,9.024627-3.239136Z" fill="#f7ad07"/><path d="M324.983093,573.659912c15.251496.227478,32.829163,12.998535,30.803559,23.009094-3.859986-1.799377-7.684998-3.266723-11.19159-5.286804-6.170898-3.555054-12.269317-7.270386-18.131958-11.305298-1.799225-1.238342-6.775573-2.637329-1.480011-6.416992Z" fill="#f7ad07"/><path d="M367.336426,541.756042c6.004242,2.719239,11.626861,5.332032,17.249481,7.944886-7.854065,2.577087-34.262421-7.324524-37.400055-13.551209c6.994293,1.945862,13.381622,3.722901,20.150574,5.606323Z" fill="#f7ad07"/></svg>
