<svg id="eINo2eP19Mp1" xmlns="http://www.w3.org/2000/svg" xmlns:xlink="http://www.w3.org/1999/xlink" viewBox="0 0 2048 2048" shape-rendering="geometricPrecision" text-rendering="geometricPrecision" project-id="570a2b7053b64911aef51157039fb1a4" export-id="dcccee3350f74b94bf2bf0fe7d9bba70" cached="false"><path d="M320.860626,1226.171265c.309937-7.888428.615357-15.776856.933777-23.665039.060242-1.4917.243042-2.981202.2482-4.472046.025909-7.495972-.120697-14.994751.036071-22.487427.490418-23.442017.84784-46.891235,1.745209-70.318848.478668-12.497925,1.548401-25.009765,3.113251-37.419189c1.490143-11.817261,4.174286-23.478638,5.970733-35.263794c3.04776-19.993469,8.491181-39.326904,15.998475-58.042114c5.644226-14.070557,13.184845-27.111145,22.668304-39.066773c6.785248-8.55426,14.162933-16.180054,24.66922-19.833618c4.913361-1.708618,10.108978-2.652771,15.221008-3.733704c13.866883-2.932129,27.53772-6.315063,40.927277-11.2276c15.04306-5.519348,30.616974-9.594177,45.976715-14.242065.919037-.278076,1.986267-.066223,3.490753.277344c4.382141,10.542663,8.197052,20.763794,17.252503,28.01239c4.865661-8.836731,2.409118-26.076172-4.290284-31.588318c8.463379-2.381714,16.88855-4.91211,25.401368-7.10138c7.746215-1.992065,15.558166-3.757446,23.394653-5.361755c9.295593-1.903015,18.633606-3.611023,27.980713-5.246582c8.562683-1.498352,17.13623-2.982422,25.75177-4.117493c9.780456-1.288452,19.590515-2.733764,29.427368-3.132995c20.583252-.83551,41.192261-1.368897,61.791199-1.38617c18.614502-.015625,37.231811.751709,55.84375,1.309876c9.773559.29303,19.544738.769836,29.305481,1.356018c15.01654.901916,30.028503,1.895691,45.032226,2.989746c12.157715.886475,24.324158,1.75531,36.442932,3.04303c11.417908,1.213379,22.768067,3.050415,34.167969,4.451172c9.307556,1.143676,18.691467,1.738525,27.955811,3.142395c10.302124,1.561096,20.510131,3.746826,30.753296,5.691284c7.872741,1.494446,15.719543,4.138183,23.608764,4.259094c8.542175.130921,17.099915-2.259033,25.690064-3.186401c5.229553-.564514,10.533874-.590882,15.803161-.566223c2.595215.012146,5.177368.912048,7.782349,1.027343c14.067505.622376,28.141846,1.087952,42.210571,1.68219c9.095337.384217,18.182007.975159,27.278076,1.333252c15.406006.606507,30.817505,1.07074,46.224488,1.655274c10.432861.395752,20.859497.963318,31.293335,1.332275c16.90979.597961,33.823974,1.067932,50.734497,1.645447c11.930908.40741,23.856201.997497,35.788696,1.339477c21.407349.613587,42.818848,1.079834,64.227417,1.649659c15.769287.419738,31.537476.881347,47.304687,1.370422c16.258912.504333,32.51709,1.037231,48.773682,1.609558c11.763672.414124,23.531983.772339,35.284546,1.408447c15.98584.865296,31.968628,1.839112,47.933472,3.023926c9.828003.729431,19.652588,1.698364,29.419067,3.005371c8.561646,1.145874,17.038574,2.92273,25.55603,4.403382c8.69104,1.510742,17.543335,2.400756,26.042237,4.637329c13.214843,3.477478,26.613403,6.588318,38.391235,14.263794c3.999634,2.606567,8.957398,3.732971,13.457886,5.583068c9.441772,3.881531,15.520019,10.859498,18.650146,20.482605.398682,1.225586.793335,2.581543.670044,3.825562-.565796,5.703308,1.86438,9.984436,5.785523,13.83551.851318.836182.959594,2.68396.977295,4.07135.091552,7.163758.042358,14.329224.042358,21.897705c4.766968.821289,5.282104,4.214234,5.054565,8.384766-.505615,9.271362-1.144165,18.569275-.920044,27.836792.202759,8.378174,1.478394,16.730591,2.282959,25.093994.18982,1.971192.552002,3.941162.556885,5.912354.043701,17.832519-.088745,35.666137.069336,53.497436.091919,10.363037.777832,20.720703.886475,31.083985.053345,5.099487-1.079956,10.229248-.838623,15.305542.729736,15.34729,2.291259,30.66394,2.702392,46.014648.278076,10.385376-.828125,20.808472-1.34082,31.213501-.080811,1.643066-.428589,3.278809-.432739,4.918579-.035645,13.999512.293579,28.009644-.182129,41.99292-.178345,5.241577-2.362427,10.390625-3.30127,15.640991-.487793,2.728272-.29248,5.584839-.339477,8.384522-.076538,4.546753-.110108,9.094116-.140015,13.641479-.024658,3.750855.111572,7.507691-.059814,11.251221-.181641,3.966186-.515625,7.935547-1.016968,11.873901-.512329,4.024536-1.249512,8.023804-2.00061,12.013062-.538819,2.863037-1.234742,5.697998-1.925049,8.529785-.151001.619629-.760254,1.146728-.846192,1.760254-1.432373,10.214477-3.136841,20.406616-4.071411,30.668335-.459106,5.040771.805908,10.216553.749512,15.325317-.029663,2.68396-1.226074,5.355103-2.479492,8.249268-1.065796.083252-1.543579-.067017-2.029908-.182129-6.328857-1.499024-12.969238-1.830811-17.838989,2.71289-5.395752,5.034302-10.814575,8.75647-18.42334,8.59729-1.938598-.040527-3.914184.393067-5.830566.80481-9.144897,1.965576-18.206421,5.060303-27.433228,5.656982-6.825439.441285-9.637817,2.739014-11.137939,8.893067-1.216431,4.990356-5.744263,5.463623-10.009277,5.255615-8.927857-.435181-17.849976-1.023315-26.764771-1.680054-7.083862-.52185-14.15979-1.175903-21.227173-1.891479-4.729004-.478882-9.563354-2.14624-14.127319-1.555786-8.91394,1.153198-17.611694,3.904419-26.509888,5.272339-9.595703,1.475097-19.325927,2.056518-28.983154,3.15393-8.305298.943726-16.587769,2.087159-24.885498,3.099243-4.742798.578492-9.493286,1.097168-14.245239,1.595826-8.00647.840698-16.105835,2.795044-24.003785,2.183593-10.862915-.841064-21.516113-4.095581-32.366455-5.46997-12.245849-1.551148-24.595337-2.464966-36.928466-3.090576-10.138794-.514283-20.321412-.094117-30.480835-.288331-8.628174-.164794-17.267823-1.123168-25.872559-.835937-18.867432.629395-37.716919,1.812134-56.572144,2.796997-7.937866.414551-15.921875.494629-23.794433,1.46228-8.606323,1.058228-17.054321,3.645386-25.669434,4.327637-9.987549.790649-19.886841,3.542358-30.100952,1.529785-5.13855-1.012573-10.669311-.08374-14.938354-4.340332-1.048706-1.045654-3.049683-1.768799-4.526856-1.641479-6.064697.522583-10.463257-2.123047-14.250488-6.480103-3.744263-4.307861-8.56665-4.595947-13.691406-3.260864-2.84668.741577-5.680909,2.352661-8.488037,2.28125-11.382325-.289429-22.752076-1.079102-34.126343-1.685791-.16565-.008789-.332031-.025269-.494995-.055298-10.630494-1.954102-21.321228-3.633911-31.874573-5.941528-11.048035-2.415772-22.209778-4.712647-32.885498-8.343994-20.6969-7.040162-41.271118-14.523804-61.554016-22.675049-20.012879-8.042725-40.18451-16.03125-59.235108-26.044068-25.291687-13.293213-49.516235-28.608642-74.289978-42.897949-18.010376-10.388183-36.157165-20.540283-54.263244-30.761963-10.264161-5.794678-20.636109-11.401245-30.84076-17.298218-18.018921-10.412475-34.716796-23.089355-54.240966-30.933227-9.918152-3.984497-19.293824-9.366089-29.302308-13.068482-16.201538-5.99353-32.841674-10.797607-49.066284-16.733642-10.776611-3.942749-21.587158-8.214234-28.774841-18.19458-1.012817-1.40625-3.656799-1.806885-5.637817-2.312988-4.680542-1.195557-10.056397-.627808-13.260315-5.389405-3.341309-4.965454-9.522766-6.760742-15.19394-5.005371-4.167327,1.290161-8.563537,1.897339-12.893737,2.580689-2.117493.333984-4.407318-.230347-6.464173.260864-10.154113,2.425049-20.338897,4.793457-30.324798,7.805298-2.861359.863037-5.80835,3.355224-7.432953,5.914795-1.974243,3.110229-3.987763,4.098388-7.537934,4.117797-7.213073.039185-14.568908.247803-19.467773,7.026978-.275604.38147-1.176147.311157-1.938812.486206-2.499359-5.36792-6.922058-6.130859-12.109314-5.816406-4.554596.276001-9.334473.73291-13.686066-.289429-11.724823-2.754394-23.43869-4.90979-35.545502-4.581177-1.86795.050904-3.915832-.657714-5.622924-1.523193-9.473175-4.803101-22.505768-2.338623-29.35138,5.704224m864.760834-138.913941c2.890869-.132568,5.940186.284668,8.644287-.495361c10.185303-2.938721,19.850098-3.582031,28.328857,4.310791.579102.539062,1.37793.863892,2.110352,1.213257c9.743897,4.648559,19.549072,2.703003,28.290894-1.761719c8.606689-4.395508,17.123046-6.052856,26.583129-5.770874c10.231446.304932,18.874146-4.426758,24.530152-12.546387c11.117431-15.959961,19.46521-33.074951,17.907837-53.532898-.468872-6.159179-3.044434-10.087707-8.185913-12.963257-7.499024-4.194274-15.261597-6.96582-24.062622-5.936828-3.82251.446899-6.307618-1.529968-8.211914-4.88971-1.244873-2.196472-3.085694-4.473388-5.240479-5.652282-5.145508-2.815125-10.502808-5.376831-16.027588-7.322754-4.40039-1.549927-9.140259-2.299561-13.794311-2.911194-3.389161-.445496-6.884034-.087097-9.827881-.087097-1.584595-4.040039-2.51294-7.626465-4.291138-10.725098-6.939331-12.092895-19.432373-15.31781-31.559692-17.497925-11.937622-2.146057-23.896118,1.038758-35.522827,4.408875-11.83667,3.43103-23.574341,7.043823-33.22522,15.230835-8.871582,7.525818-20.107422,10.326355-30.574951,14.191345-10.553955,3.89679-21.884888,5.624084-31.554688,11.991882-5.361694,3.530762-10.600952,7.603028-16.492309,9.899658-12.187623,4.751221-22.724244,11.215638-31.68158,21.023743-9.966248,10.91272-12.428345,22.285278-3.901245,34.323364c6.643127,9.378174,10.966736,20.708252,22.392639,26.519776c4.391357,2.23352,8.197022,4.640381,13.208984,4.075683c4.066773-.458252,8.125367-1.433471,12.184815-1.418212c8.837158.032959,17.057861-2.449585,24.436401-6.754029c4.683228-2.732055,8.013428-3.500732,13.105347-.877197c3.671753,1.891601,8.638428,1.500977,13.045532,1.678101c5.992676.240966,12.003296.107421,18.004761.021728c2.528564-.036133,5.427124-1.261475,7.513428-.395019c8.192016,3.402832,16.193603,3.547363,24.40039.38684c6.54773-2.521606,13.084595-4.276855,19.466553,2.261963m-560.631653-85.884826c0-12.325806.289734-24.662049-.154236-36.971863-.159485-4.420349-1.316284-9.17688-3.347534-13.089844-6.969238-13.425171-19.519714-19.609985-33.021606-24.740295-9.807068-3.726441-19.867371-2.106018-29.770508-2.594971-6.862-.338745-13.841248,1.738037-20.770752,2.716797-13.229431,1.868713-25.990051,5.462036-37.370087,12.498413-6.12915,3.789734-11.059234,9.477234-17.053009,13.536743-10.123779,6.856567-17.733398,15.583984-22.548919,26.785584-4.916108,11.435363-5.284211,23.167846-2.432343,35.161499c1.587402,6.675781,4.298035,13.136596,3.355835,20.312377-.277008,2.109864.917755,4.395508,1.344727,6.618409c2.603149,13.553344,10.042175,24.70459,19.644592,33.782837c6.785339,6.415161,15.544891,11.121337,24.082306,15.216186c13.097625,6.28186,26.663788,3.786621,39.915863-.445434c21.906128-6.99585,38.055481-23.067017,56.121765-36.044678c8.602295-6.179199,11.785766-16.470703,15.405273-25.815674c3.201905-8.266663,4.474305-17.280701,6.598633-26.926086m367.960022,89.327209c-4.604553,1.034912-9.204285,2.091553-13.814514,3.100708-13.402832,2.933716-26.661316,6.484009-35.812805,17.640137-3.917053,4.775024-7.318299,7.301636-13.117066,3.508423-.834106-.545655-2.281921-.139771-3.444458-.199097-9.347839-.477539-18.154968,1.999023-27.164245,4.150391-17.330078,4.138183-31.087342,13.031494-41.70813,27.217895-5.668823,7.572022-7.875366,15.635254-3.692871,24.38855c2.826416,5.915161,5.91394,11.942261,10.078857,16.920166c5.046021,6.030884,11.213074,11.897583,20.061096,10.626709c6.862244-.985596,13.568604-3.236206,20.246399-5.249268c3.118225-.939941,5.706055-2.644409,9.388672-1.006103c2.33136,1.037109,6.007935,1.059448,8.258362-.083496c9.040832-4.590943,18.709534-3.211548,28.170837-3.814087.894349-.056885,1.961731.354004,2.726929.874267c6.343994,4.312256,13.2146,4.062989,20.325317,2.686036c3.925232-.760132,9.303833-3.002198,11.641236-1.299805c7.203979,5.246704,13.731201,3.684082,19.409973-.755615c4.89032-3.823487,8.191589-2.694336,12.443054.144043c5.052002,3.372924,8.51471,2.857788,13.126526-1.08899c1.050781-.899414,2.598145-2.098755,3.701416-1.908569c5.789185.997681,11.504761,2.418823,17.258911,3.631103.726319.152955,1.565186.077027,2.290894-.118896c6.530395-1.762573,13.085327-3.453491,19.540893-5.461426c1.584961-.49292,3.399781-1.776489,4.135132-3.199829c2.822632-5.462646,5.945191-10.92688,7.651001-16.771362c2.234375-7.654907.085938-11.548218-5.977173-15.788208-1.089721-.761963-1.387085-2.98291-1.615478-4.591797-.815796-5.745483-1.268067-11.746826-6.504639-15.417969-2.784668-1.952148-6.08374-3.591919-9.380371-4.295532-5.221436-1.11438-10.837769-2.514038-15.922974-1.650147-8.457763,1.43689-10.09021.603394-10.631347-7.925537-.450196-7.096801-3.12793-13.415527-9.929444-16.953247-4.638-2.412231-9.28247-4.920532-14.170532-6.714355-5.380127-1.974365-11.023743-3.567261-17.569458-.595093m509.213745,67.335083c7.476319.723999,12.579956-3.227295,15.603516-9.300415c3.260742-6.549072,6.865356-13.622314-.049439-20.468628-.789672-.78186-.979736-2.390747-1.045776-3.637329-.149658-2.824341-.228882-5.675781-.009644-8.490845.393189-5.048218-2.146484-8.359619-6.337158-10.282226-9.001098-4.129761-18.019287-8.24292-28.374267-7.724243-3.826783.19165-6.09729-2.202149-6.180664-6.173951-.083619-3.996582.172363-8.007812-.067383-11.991699-.317505-5.275513-1.945435-10.11145-6.844849-12.921509-3.072021-1.762085-6.367554-3.179077-9.667602-4.48645-3.148194-1.24707-6.461792-3.110718-9.650391-3.012207-7.259521.224121-14.478394,2.28479-21.740234-.155151-.735108-.246949-1.679932-.091919-2.474976.09729-6.168701,1.469238-12.377319,2.807251-18.471313,4.544555-8.246949,2.35083-16.30896,5.128663-22.653809,11.407349-5.762939,5.702759-11.703735,11.226685-17.619995,16.772095-1.18457,1.110229-2.47815,2.430176-3.950562,2.85022-6.12622,1.74768-12.479736,2.778198-18.492431,4.827026-12.484497,4.254394-24.808472,9.0625-33.931519,19.232056-3.777222,4.210327-7.084839,9.012573-4.240234,15.047119c3.76355,7.983886,7.220215,16.259033,12.171142,23.474243c2.460572,3.585571,6.92981,6.63855,12.668091,6.451294c7.22229-.235596,14.449829-4.585327,21.770752-.256348.553467.327271,1.813355-.803955,2.736694-.78772c2.562012.044312,5.994141-.641479,7.513306.716675c4.351685,3.890015,9.2677,3.379273,14.158325,3.061035c6.65918-.433349,13.211792-.979248,19.068238,3.170655c2.544067,1.802856,4.96521,3.912231,7.759521,5.187011c2.290039,1.044556,5.36792.471436,7.539551,1.64563c5.478638,2.961914,10.870605,4.760254,16.931885,2.057007c2.684082-1.197266,5.347534-2.440796,8.03894-3.621338c1.775391-.778808,3.925171-2.511719,5.319946-2.048584c7.323243,2.432007,13.474854.017334,19.567017-3.604858c1.062866-.631836,2.456421-.944824,3.708618-.978272c4.666138-.124145,9.431641.518921,13.985596-.211914c8.318115-1.335083,16.443481-3.593139,23.261108-10.387573M415.581299,1077.176392c-5.03949,3.693359-9.983154,7.526977-15.138825,11.05017-10.129669,6.92212-17.911956,15.851319-23.507232,26.723389-2.173767,4.223755-1.042206,6.550293,3.702667,5.566162c8.050903-1.669922,17.044983-2.89917,23.47998-7.403442c13.631745-9.541992,25.8732-21.070923,38.675385-31.796387c1.394531-1.168213,2.534515-2.927612,4.125519-3.522217c5.653991-2.113159,6.445617-6.90979,6.973175-11.833618.452606-4.224243-3.078461-5.327148-5.710907-4.658081-11.662384,2.963501-22.421051,8.065308-32.599762,15.874024m-31.600891-120.76294c-4.721253.981018-4.633698,4.202332-3.150086,7.552551c3.27829,7.402649,7.979462,12.716736,16.930237,13.889161c7.145844.935974,13.953827,4.463867,21.099548,5.385315c7.538269.972106,15.304078.365905,22.959351.112548c1.88916-.0625,3.735107-1.43103,5.600891-2.199279-.778015-1.815369-1.060058-4.227662-2.412598-5.351563-10.621978-8.825623-22.450286-15.990906-35.899047-18.98584-7.746338-1.725097-16.169739-.409912-25.128296-.402893m135.728515,206.717652c2.679749-8.519166,5.550843-16.984131,7.97699-25.574952c1.84198-6.52185,3.580628-13.142334,4.464844-19.83789.499756-3.784424,2.406677-8.660157-1.866455-11.549073-4.467652-3.020263-12.769287.106202-14.631226,5.159546-.954223,2.589844-1.505737,5.33191-2.181885,8.019776-2.892059,11.496338-5.713134,23.010742-8.662475,34.492309-1.434509,5.584351.428558,10.493286,3.674499,14.606079.958466,1.214234,4.839661.999512,6.896118.196412c1.695008-.661866,2.67273-3.160523,4.32959-5.512207m153.671265-44.945435c-3.388184-4.184692-6.014526-9.538574-10.306885-12.335571-13.029114-8.489624-26.890381-15.698853-42.200928-19.19336-2.880798-.65747-7.540161.532471-9.36737,2.625733-2.608399,2.988159,1.18866,5.534668,3.420593,7.639526c1.180054,1.112793,2.623169,1.977539,4.032532,2.810669c5.773254,3.412354,11.590881,6.749512,17.370605,10.151123c9.729676,5.726196,19.363892,11.62146,29.214112,17.131348c2.742187,1.533935,6.103027,1.961792,10.769714,3.380249-1.146057-4.997437-1.892517-8.252442-2.932373-12.209717M603.505005,891.016052c-4.780579,5.060059-9.562622,10.118714-14.341187,15.180603-3.664795,3.88208-.073059,6.960266,1.783387,9.418824c1.688537,2.236145,4.723388,3.068969,7.597351-.030335c2.310791-2.492004,5.422363-4.3302,8.386963-6.111877c13.69873-8.233094,21.94342-20.841065,28.281677-34.982117.47998-1.070862.242981-2.463196.339355-3.706055-1.361999.014405-2.853698-.333679-4.065735.099915-11.009704,3.938537-19.422058,11.554931-27.981811,20.131042M727.255371,1042.11792c-8.671142-4.642456-17.028931-10.063232-26.098694-13.715942-9.718323-3.913819-20.095642-6.201783-30.208191-9.120545-4.113037-1.187134-8.286132-2.16626-12.420044-3.236999-1.495422,3.459838-.169983,5.12207,2.505433,6.272827c13.370361,5.751465,26.526794,12.077392,40.162841,17.104126c7.712647,2.843139,16.19513,3.62268,24.364991,5.14917.584594.109253,1.449585-1.282593,1.693664-2.452637Z" fill="#2fbbbe"/><path d="M320.765015,1226.56958c6.941223-8.441162,19.973816-10.90564,29.446991-6.102539c1.707092.865479,3.754974,1.574097,5.622924,1.523193c12.106812-.328613,23.820679,1.826783,35.545502,4.581177c4.351593,1.022339,9.13147.56543,13.686066.289429c5.187256-.314453,9.609955.448486,12.109314,5.816406.762665-.175049,1.663208-.104736,1.938812-.486206c4.898865-6.779175,12.2547-6.987793,19.467773-7.026978c3.550171-.019409,5.563691-1.007568,7.537934-4.117797c1.624603-2.559571,4.571594-5.051758,7.432953-5.914795c9.985901-3.011841,20.170685-5.380249,30.324798-7.805298c2.056855-.491211,4.34668.07312,6.464173-.260864c4.3302-.68335,8.72641-1.290528,12.893737-2.580689c5.671174-1.755371,11.852631.039917,15.19394,5.005371c3.203918,4.761597,8.579773,4.193848,13.260315,5.389405c1.981018.506103,4.625.906738,5.637817,2.312988c7.187683,9.980346,17.99823,14.251831,28.774841,18.19458c16.22461,5.936035,32.864746,10.740112,49.066284,16.733642c10.008484,3.702393,19.384156,9.083985,29.302308,13.068482c19.52417,7.843872,36.222045,20.520752,54.240966,30.933227c10.204651,5.896973,20.576599,11.50354,30.84076,17.298218c18.106079,10.22168,36.252868,20.37378,54.263244,30.761963c24.773743,14.289307,48.998291,29.604736,74.289978,42.897949c19.050598,10.012818,39.222229,18.001343,59.235108,26.044068c20.282898,8.151245,40.857116,15.634887,61.554016,22.675049c10.67572,3.631347,21.837463,5.928222,32.885498,8.343994c10.553345,2.307617,21.244079,3.987426,31.874573,5.941528.162964.030029.329345.046509.494995.055298c11.374267.606689,22.744018,1.396362,34.126343,1.685791c2.807128.071411,5.641357-1.539673,8.488037-2.28125c5.124756-1.335083,9.947143-1.046997,13.691406,3.260864c3.787231,4.357056,8.185791,7.002686,14.250488,6.480103c1.477173-.12732,3.47815.595825,4.526856,1.641479c4.269043,4.256592,9.799804,3.327759,14.938354,4.340332c10.214111,2.012573,20.113403-.739136,30.100952-1.529785c8.615113-.682251,17.063111-3.269409,25.669434-4.327637c7.872558-.967651,15.856567-1.047729,23.794433-1.46228c18.855225-.984863,37.704712-2.167602,56.572144-2.796997c8.604736-.287231,17.244385.671143,25.872559.835937c10.159423.194214,20.342041-.225952,30.480835.288331c12.333129.62561,24.682617,1.539428,36.928466,3.090576c10.850342,1.374389,21.50354,4.628906,32.366455,5.46997c7.89795.611451,15.997315-1.342895,24.003785-2.183593c4.751953-.498658,9.502441-1.017334,14.245239-1.595826c8.297729-1.012084,16.5802-2.155517,24.885498-3.099243c9.657227-1.097412,19.387451-1.678833,28.983154-3.15393c8.898194-1.36792,17.595948-4.119141,26.509888-5.272339c4.563965-.590454,9.398315,1.076904,14.127319,1.555786c7.067383.715576,14.143311,1.369629,21.227173,1.891479c8.914795.656739,17.836914,1.244873,26.764771,1.680054c4.265014.208008,8.792846-.265259,10.009277-5.255615c1.500122-6.154053,4.3125-8.451782,11.137939-8.893067c9.226807-.596679,18.288331-3.691406,27.433228-5.656982c1.916382-.411743,3.891968-.845337,5.830566-.80481c7.608765.15918,13.027588-3.562988,18.42334-8.59729c4.869751-4.543701,11.510132-4.211914,17.838989-2.71289.486329.115112.964112.265381,1.817749.54834.158326,7.893554.122559,15.648437-.323242,23.379638-.377929,6.552124-1.604736,13.066529-1.787964,19.616211-.307495,10.989991-.337158,22.00232-.00708,32.990967.282227,9.396484,1.70337,18.77002,1.759888,28.158814.059692,9.904785-.981445,19.812622-1.366333,29.72583-.119019,3.062622.392822,6.145385.52002,9.222778.609253,14.758301-1.591065,29.244263-3.959717,43.753052-2.882813,17.658203-7.60376,34.769043-14.067505,51.418579-3.904175,10.056152-8.864624,19.455078-16.893311,26.972168-1.634155,1.529907-2.853271,3.559448-4.047119,5.492553-2.816894,4.561036-5.806885,8.666626-11.525757,10.117188-2.399536.608765-4.978637,2.155151-6.558349,4.043213-4.877197,5.82959-11.797486,5.674805-18.226685,6.738281-5.966919.987305-11.850097,1.501709-16.086914,6.751465-1.0625,1.31665-3.405884,2.012817-5.244995,2.211426-5.416382.584594-10.899414,1.281372-16.312256,1.019897-12.32959-.595215-24.088989,2.575806-36.063965,4.492066-11.640136,1.862548-23.360962,3.28186-35.084594,4.53955-6.737183.722657-13.562378,1.164063-20.326172.970093-10.074707-.28894-20.585083.33728-30.065064-2.376953-9.35083-2.677246-18.465942-3.563843-27.774414-2.965942-11.179077.718261-22.287353,2.542236-33.424682,3.90039-.820191.099976-1.622681.409302-2.441529.446289-11.274414.510743-22.580444.631348-33.817627,1.575074-12.309692,1.033569-24.55664,2.815063-36.82959,4.281738-4.085449.488159-8.157714,1.104858-12.252075,1.495361-6.553589.624756-13.142334.924073-19.676635,1.696289-10.574219,1.249512-21.111695,2.808228-31.674195,4.161743-5.214233.668213-10.438965,1.315064-15.678467,1.713257-8.076782.614014-16.18042.883179-24.25476,1.522583-10.675171.845459-21.316162,2.26648-32.00354,2.773072-10.475342.496704-20.992432.034423-31.487549.20935-26.421387.44043-52.839478,1.27832-79.261475,1.409546-14.936767.074097-29.881286-.87561-44.81781-1.474853-8.932983-.358277-17.856628-.946412-26.786011-1.40149-10.567016-.538452-21.137268-1.016235-31.703247-1.574463-8.08374-.427002-16.161316-.97229-24.244812-1.404907-19.177856-1.026489-38.35852-2.000488-57.536194-3.030273-8.609619-.462281-17.220214-.928589-25.8208-1.530518-19.522034-1.366333-39.036927-2.833618-58.557129-4.226806-8.454956-.603516-16.91687-1.108765-25.373596-1.688843-14.906495-1.022095-29.850647-1.686157-44.705567-3.21399-13.763916-1.415649-27.434753-3.74353-41.140442-5.712524-6.349304-.912231-12.696838-2.761108-19.021728-2.663574-6.592102.101562-13.166748,1.977173-19.729553,3.183227-9.488099,1.743531-18.943604,3.666016-28.440796,5.356324-8.850403,1.575195-17.825257,2.551513-26.585877,4.506103-11.447876,2.554444-22.73584,5.824097-34.102905,8.745972-.950745.244385-2.003479.365356-2.968689.238403-10.68396-1.405762-21.335938-3.106811-32.049988-4.207275-4.345032-.446411-8.822327.356201-13.235596.648315-.793335.052368-1.562957.542603-2.35205.56836-15.739777.511474-31.486634,1.401733-47.21753,1.180786-4.093261-.057373-8.134277-3.614136-12.206329-5.548828-1.151794-.547364-2.297607-1.399537-3.498688-1.503418-7.378052-.637085-14.865814-.54126-22.133484-1.772705-7.59967-1.28772-15.61502-1.454834-22.381225-6.285645-1.379303-.984741-4.049805-.463989-6.06836-.201172-12.825225,1.670288-25.412658.536011-36.314056-6.5625-10.518829-6.849609-19.793091-15.101196-25.274658-27.256103-3.682068-8.164307-9.796082-15.316162-11.151032-24.484253-.861602-5.830078-2.378692-12.313111-.696594-17.574585c1.994995-6.239868-.50943-11.339722-.890747-16.898682-.458893-6.689941-2.489929-13.309448-2.597015-19.979248-.36377-22.657837-.272156-45.325195-.135041-67.987549.031433-5.195679,1.56427-10.415527,1.321991-15.573364-.621612-13.234497-2.109008-26.427979-2.752197-39.661987-.452454-9.310059-.012817-18.660523-.106506-27.991578-.12378-12.332763,1.512542-24.287231,7.052795-35.48352.288117-.582153.576111-1.221436.629547-1.853882.596314-7.055054,1.636597-14.115478,1.618561-21.171997-.057892-22.647827-.691772-45.295044-.667725-67.941894.005097-4.79004,1.838135-9.582398,2.883545-14.361817.134644-.615723.862854-1.155517.871094-1.736816.093659-6.606934-.391998-13.262574.238831-19.812622c1.130981-11.743164,2.922149-23.42273,4.427581-35.130127.105835-.82312.154114-1.65564.189881-2.485474.586426-13.60376,1.166443-27.207886,1.843506-41.210083Z" fill="#55be2f"/><path d="M514.444214,882.971252c7.077026,5.641358,9.533569,22.880799,4.667908,31.71753-9.055451-7.248596-12.870362-17.469727-16.834107-27.99115c1.799805-4.983277,5.294953-6.018372,12.166199-3.72638Z" fill="#f8ad06"/><path d="M1185.319824,1087.004639c-6.080322-6.286133-12.617187-4.530884-19.164917-2.009278-8.206787,3.160523-16.208374,3.015992-24.40039-.38684-2.086304-.866456-4.984864.358886-7.513428.395019-6.001465.085693-12.012085.219238-18.004761-.021728-4.407104-.177124-9.373779.2135-13.045532-1.678101-5.091919-2.623535-8.422119-1.854858-13.105347.877197-7.37854,4.304444-15.599243,6.786988-24.436401,6.754029-4.059448-.015259-8.118042.95996-12.184815,1.418212-5.011962.564698-8.817627-1.842163-13.208984-4.075683-11.425903-5.811524-15.749512-17.141602-22.392639-26.519776-8.5271-12.038086-6.065003-23.410644,3.901245-34.323364c8.957336-9.808105,19.493957-16.272522,31.68158-21.023743c5.891357-2.29663,11.130615-6.368896,16.492309-9.899658c9.6698-6.367798,21.000733-8.095092,31.554688-11.991882c10.467529-3.86499,21.703369-6.665527,30.574951-14.191345c9.650879-8.187012,21.38855-11.799805,33.22522-15.230835c11.626709-3.370117,23.585205-6.554932,35.522827-4.408875c12.127319,2.180115,24.620361,5.40503,31.559692,17.497925c1.778198,3.098633,2.706543,6.685059,4.291138,10.725098c2.943847,0,6.43872-.358399,9.827881.087097c4.654052.611633,9.393921,1.361267,13.794311,2.911194c5.52478,1.945923,10.88208,4.507629,16.027588,7.322754c2.154785,1.178894,3.995606,3.45581,5.240479,5.652282c1.904296,3.359742,4.389404,5.336609,8.211914,4.88971c8.801025-1.028992,16.563598,1.742554,24.062622,5.936828c5.141479,2.87555,7.717041,6.804078,8.185913,12.963257c1.557373,20.457947-6.790406,37.572937-17.907837,53.532898-5.656006,8.119629-14.298706,12.851319-24.530152,12.546387-9.460083-.281982-17.97644,1.375366-26.583129,5.770874-8.741822,4.464722-18.546997,6.410278-28.290894,1.761719-.732422-.349365-1.53125-.674195-2.110352-1.213257-8.478759-7.892822-18.143554-7.249512-28.328857-4.310791-2.704101.780029-5.753418.362793-8.945923.242676Z" fill="#feffff"/><path d="M624.989807,1001.853149c-2.124328,9.164734-3.396728,18.178772-6.598633,26.445435-3.619507,9.344971-6.802978,19.636475-15.405273,25.815674-18.066284,12.977661-34.215637,29.048828-56.121765,36.044678-13.252075,4.232055-26.818238,6.727294-39.915863.445434-8.537415-4.094849-17.296967-8.801025-24.082306-15.216186-9.602417-9.078247-17.041443-20.229493-19.644592-33.782837-.426972-2.222901-1.621735-4.508545-1.344727-6.618409.9422-7.175781-1.768433-13.636596-3.355835-20.312377-2.851868-11.993653-2.483765-23.726136,2.432343-35.161499c4.815521-11.2016,12.42514-19.929017,22.548919-26.785584c5.993775-4.059509,10.923859-9.747009,17.053009-13.536743c11.380036-7.036377,24.140656-10.6297,37.370087-12.498413c6.929504-.97876,13.908752-3.055542,20.770752-2.716797c9.903137.488953,19.96344-1.13147,29.770508,2.594971c13.501892,5.13031,26.052368,11.315124,33.021606,24.740295c2.03125,3.912964,3.188049,8.669495,3.347534,13.089844.44397,12.309814.154236,24.646057.154236,37.452514Z" fill="#feac01"/><path d="M993.35199,1090.543701c6.143554-2.816162,11.78717-1.223266,17.167297.751099c4.888062,1.793823,9.532532,4.302124,14.170532,6.714355c6.801514,3.53772,9.479248,9.856446,9.929444,16.953247.541137,8.528931,2.173584,9.362427,10.631347,7.925537c5.085205-.863891,10.701538.535767,15.922974,1.650147c3.296631.703613,6.595703,2.343384,9.380371,4.295532c5.236572,3.671143,5.688843,9.672486,6.504639,15.417969.228393,1.608887.525757,3.829834,1.615478,4.591797c6.063111,4.23999,8.211548,8.133301,5.977173,15.788208-1.70581,5.844482-4.828369,11.308716-7.651001,16.771362-.735351,1.42334-2.550171,2.706909-4.135132,3.199829-6.455566,2.007935-13.010498,3.698853-19.540893,5.461426-.725708.195923-1.564575.271851-2.290894.118896-5.75415-1.21228-11.469726-2.633422-17.258911-3.631103-1.103271-.190186-2.650635,1.009155-3.701416,1.908569-4.611816,3.946778-8.074524,4.461914-13.126526,1.08899-4.251465-2.838379-7.552734-3.96753-12.443054-.144043-5.678772,4.439697-12.205994,6.002319-19.409973.755615-2.337403-1.702393-7.716004.539673-11.641236,1.299805-7.110717,1.376953-13.981323,1.62622-20.325317-2.686036-.765198-.520263-1.83258-.931152-2.726929-.874267-9.461303.602539-19.130005-.776856-28.170837,3.814087-2.250427,1.142944-5.927002,1.120605-8.258362.083496-3.682617-1.638306-6.270447.066162-9.388672,1.006103-6.677795,2.013062-13.384155,4.263672-20.246399,5.249268-8.848022,1.270874-15.015075-4.595825-20.061096-10.626709-4.164917-4.977905-7.252441-11.005005-10.078857-16.920166-4.182495-8.753296-1.975952-16.816528,3.692871-24.38855c10.620788-14.186401,24.378052-23.079712,41.70813-27.217895c9.009277-2.151368,17.816406-4.62793,27.164245-4.150391c1.162537.059326,2.610352-.346558,3.444458.199097c5.798767,3.793213,9.200013,1.266601,13.117066-3.508423c9.151489-11.156128,22.409973-14.706421,35.812805-17.640137c4.610229-1.009155,9.209961-2.065796,14.216675-3.256714Z" fill="#feffff"/><path d="M1501.775879,1158.138184c-6.429932,6.69104-14.555298,8.949096-22.873413,10.284179-4.553955.730835-9.319458.087769-13.985596.211914-1.252197.033448-2.645752.346436-3.708618.978272-6.092163,3.622192-12.243774,6.036865-19.567017,3.604858-1.394775-.463135-3.544555,1.269776-5.319946,2.048584-2.691406,1.180542-5.354858,2.424072-8.03894,3.621338-6.06128,2.703247-11.453247.904907-16.931885-2.057007-2.171631-1.174194-5.249512-.601074-7.539551-1.64563-2.794311-1.27478-5.215454-3.384155-7.759521-5.187011-5.856446-4.149903-12.409058-3.604004-19.068238-3.170655-4.890625.318238-9.80664.82898-14.158325-3.061035-1.519165-1.358154-4.951294-.672363-7.513306-.716675-.923339-.016235-2.183227,1.114991-2.736694.78772-7.320923-4.328979-14.548462.020752-21.770752.256348-5.738281.187256-10.207519-2.865723-12.668091-6.451294-4.950927-7.21521-8.407592-15.490357-12.171142-23.474243-2.844605-6.034546.463012-10.836792,4.240234-15.047119c9.123047-10.169556,21.447022-14.977662,33.931519-19.232056c6.012695-2.048828,12.366211-3.079346,18.492431-4.827026c1.472412-.420044,2.765992-1.739991,3.950562-2.85022c5.91626-5.54541,11.857056-11.069336,17.619995-16.772095c6.344849-6.278686,14.40686-9.056519,22.653809-11.407349c6.093994-1.737304,12.302612-3.075317,18.471313-4.544555.795044-.189209,1.739868-.344239,2.474976-.09729c7.26184,2.439941,14.480713.379272,21.740234.155151c3.188599-.098511,6.502197,1.765137,9.650391,3.012207c3.300048,1.307373,6.595581,2.724365,9.667602,4.48645c4.899414,2.810059,6.527344,7.645996,6.844849,12.921509.239746,3.983887-.016236,7.995117.067383,11.991699.083374,3.971802,2.353881,6.365601,6.180664,6.173951c10.35498-.518677,19.373169,3.594482,28.374267,7.724243c4.190674,1.922607,6.730347,5.234008,6.337158,10.282226-.219238,2.815064-.140014,5.666504.009644,8.490845.06604,1.246582.256104,2.855469,1.045776,3.637329c6.914795,6.846314,3.310181,13.919556.049439,20.468628-3.02356,6.07312-8.127197,10.024414-15.991211,9.403809Z" fill="#feffff"/><path d="M415.857544,1076.937256c9.902466-7.56958,20.661133-12.671387,32.323517-15.634888c2.632446-.669067,6.163513.433838,5.710907,4.658081-.527558,4.923828-1.319184,9.720459-6.973175,11.833618-1.591004.594605-2.730988,2.354004-4.125519,3.522217-12.802185,10.725464-25.04364,22.254395-38.675385,31.796387-6.434997,4.504272-15.429077,5.73352-23.47998,7.403442-4.744873.984131-5.876434-1.342407-3.702667-5.566162c5.595276-10.87207,13.377563-19.801269,23.507232-26.723389c5.155671-3.523193,10.099335-7.356811,15.41507-11.289306Z" fill="#f9ac05"/><path d="M384.40036,956.383301c8.538605.023132,16.962006-1.292053,24.708344.433044c13.448761,2.994934,25.277069,10.160217,35.899047,18.98584c1.35254,1.123901,1.634583,3.536194,2.412598,5.351624-1.865784.768188-3.711731,2.136718-5.600891,2.199218-7.655273.253357-15.421082.859558-22.959351-.112548-7.145721-.921448-13.953704-4.449341-21.099548-5.385315-8.950775-1.172425-13.651947-6.486512-16.930237-13.889161-1.483612-3.350219-1.571167-6.571533,3.570038-7.582702Z" fill="#f9ac05"/><path d="M519.52832,1163.4646c-1.476257,2.018188-2.453979,4.516845-4.148987,5.178711-2.056457.8031-5.937652,1.017822-6.896118-.196412-3.245941-4.112793-5.109008-9.021728-3.674499-14.606079c2.949341-11.481567,5.770416-22.995971,8.662475-34.492309.676148-2.687866,1.227662-5.429932,2.181885-8.019776c1.861939-5.053344,10.163574-8.179809,14.631226-5.159546c4.273132,2.888916,2.366211,7.764649,1.866455,11.549073-.884216,6.695556-2.622864,13.31604-4.464844,19.83789-2.426147,8.590821-5.297241,17.055786-8.157593,25.908448Z" fill="#f9ac05"/><path d="M673.526855,1118.536865c.893189,3.606079,1.639649,6.861084,2.785706,11.858521-4.666687-1.418457-8.027527-1.846314-10.769714-3.380249-9.85022-5.509888-19.484436-11.405152-29.214112-17.131348-5.779724-3.401611-11.597351-6.738769-17.370605-10.151123-1.409363-.83313-2.852478-1.697876-4.032532-2.810669-2.231933-2.104858-6.028992-4.651367-3.420593-7.639526c1.827209-2.093262,6.486572-3.283203,9.36737-2.625733c15.310547,3.494507,29.171814,10.703736,42.200928,19.19336c4.292359,2.796997,6.918701,8.150879,10.453552,12.686767Z" fill="#f8ad06"/><path d="M603.77002,890.791992c8.294738-8.352051,16.707092-15.968445,27.716796-19.906982c1.212037-.433594,2.703736-.08551,4.065674-.099915-.096313,1.242859.140686,2.635193-.339294,3.706055-6.338257,14.141052-14.582947,26.749023-28.281677,34.982117-2.9646,1.781677-6.076172,3.619873-8.386963,6.111877-2.873963,3.099304-5.908814,2.26648-7.597351.030335-1.856446-2.458558-5.448182-5.536744-1.783387-9.418824c4.778565-5.061889,9.560608-10.120544,14.606202-15.404663Z" fill="#f8ad06"/><path d="M727.500671,1042.355957c-.489379.932007-1.35437,2.323853-1.938964,2.2146-8.169861-1.52649-16.652344-2.306031-24.364991-5.14917-13.636047-5.026734-26.79248-11.352661-40.162841-17.104126-2.675416-1.150757-4.000855-2.812989-2.505433-6.272827c4.133912,1.070739,8.307007,2.049865,12.420044,3.236999c10.112549,2.918762,20.489868,5.206726,30.208191,9.120545c9.069763,3.65271,17.427552,9.073486,26.343994,13.953979Z" fill="#f2ad0c"/></svg>
