<svg id="eKiYVP7brOa1" xmlns="http://www.w3.org/2000/svg" stroke-width="500000" xmlns:xlink="http://www.w3.org/1999/xlink" viewBox="0 0 700 400" shape-rendering="geometricPrecision" text-rendering="geometricPrecision" project-id="5b3e5c0b22bb487e9a578f1efde3af2c" export-id="72aeaad701074e1ab95afac629e81728" cached="false"><path fill="#000000" stroke="#000000" stroke-width="20" d="M522.408936,519.497009c-14.608765.61969-28.753937,1.120545-42.889069,1.823792-35.138855,1.748108-70.302857.611816-105.450195,1.102112-16.634674.232116-33.254761,1.553833-49.879975,2.410766-13.005981.670349-25.967437-.664612-38.955841-.86853-12.646789-.198608-25.296112-1.781189-37.920929-1.538757-33.747726.647888-60.660766-14.216065-84.40802-36.289978-10.341842-9.613099-14.808914-22.39975-16.16362-36.187165-4.322006-43.986603-4.409424-88.115448-3.996979-132.248596.120133-12.855102,2.012848-25.587585,5.232834-37.976349c2.514496-9.674469,8.409104-16.849273,18.078904-21.275543c22.55487-10.324188,46.283416-16.433304,70.463378-21.122635c10.49115-2.034592,21.215165-2.312347,31.831223-2.356522c29.178009-.121475,58.166168-3.039535,87.219635-5.043365c21.583618-1.488663,43.175934-2.851776,64.76535-4.255386c32.421234-2.107819,64.921692-1.84877,97.362793-3.188462c38.79895-1.602249,77.597412-2.510391,116.408264-1.449875c26.807557.732514,53.588929,2.781113,79.576111,9.865464c14.39679,3.924713,28.72345,8.42308,40.958618,17.805771c17.373719,13.323288,26.374695,31.430557,30.52948,52.267746c3.45575,17.331329,5.359803,34.779022,3.372498,52.578399-1.029724,9.222412-.242188,18.600067.638306,27.918701c1.936401,20.494294-1.305115,40.389588-7.070069,60.081635-3.2948,11.254456-6.998413,22.214966-12.976013,32.325897-13.807922,23.355835-34.362854,36.489807-61.061096,40.450409-19.981751,2.964295-40.078857,3.683472-60.24292,3.835877-41.652405.314819-83.303101.858337-125.422668,1.334594M324.321625,244.095169c-22.729645,2.187195-45.562897,2.166458-68.348542,3.138413-12.37535.527893-24.493774,2.404983-36.439132,5.552444-1.543595.406723-3.519791.407166-4.141159,2.341965-1.253601,3.903564-4.573517,4.485748-7.884674,5.085693-11.60904,2.103485-23.28209,3.68277-34.459442,7.948029-8.223786,3.138153-12.947083,8.779693-14.509537,16.969024-2.274109,11.919373-4.444412,23.900757-4.219132,36.126068.466416,25.309906-.496841,50.616486.746826,75.944611.873261,17.784119,1.898789,35.550079,3.392701,53.279205.952469,11.303711,5.811813,21.026245,14.087692,29.027222c13.582275,13.131195,30.241302,21.045288,47.331207,28.226166c2.561173,1.076141,5.463516,1.700195,8.242935,1.840118c22.286484,1.121979,44.580903,2.08786,66.87378,3.080719c23.17453,1.032288,46.274231-1.514252,69.391937-1.676636c52.47525-.368591,104.921356-1.047699,157.37738-2.857482c42.61847-1.470337,85.304871-.864136,127.953492-1.61673c19.283691-.340241,38.618774-.545197,57.748535-3.794617c20.335693-3.454315,37.397094-12.428833,48.544189-30.157989c15.368958-24.44394,21.755737-51.584046,21.872803-80.282776.052307-12.819794-2.338379-25.636627-.943482-38.429688c1.920533-17.613403.30127-34.934997-3.388244-52.079376-3.386109-15.734467-9.890747-29.753448-22.373535-40.870605-10.528992-9.377076-23.25116-13.627274-36.089051-17.485505-28.300659-8.505371-57.631408-10.117797-86.926696-10.913101-37.814209-1.026565-75.618226.276764-113.413636,1.68248-18.976318.705795-37.974517.800339-56.957061,1.365555-27.959992.83255-55.84549,3.055984-83.753968,4.819977-16.275604,1.028717-32.527893,2.426956-49.716186,3.736816Z" transform="translate(-116.163818-172.798195)"/></svg>
