<svg id="eql0BvG1eyN1" xmlns="http://www.w3.org/2000/svg" xmlns:xlink="http://www.w3.org/1999/xlink" viewBox="0 0 900 480" shape-rendering="geometricPrecision" text-rendering="geometricPrecision" project-id="009b22d44f534f4f8baad157c7819522" export-id="022997437c8c42ab8030ee55aec80797" cached="false"><g transform="translate(-42.513786-112.654518)"><path d="M243.696625,344.105835c.035278-4.975494-.473725-9.411285-1.379303-14.400604-8.256104,1.165039-15.80217,4.21289-23.55423,6.381347-20.193405,5.648743-39.874725,13.110413-60.504105,17.199067-3.488937.691467-4.376937,3.272003-5.414108,5.863433-9.839752,24.585541-19.762588,49.138947-29.408989,73.800385-8.068046,20.626251-15.604637,41.460754-24.508301,61.755981-2.720352,6.200837-7.123359,8.629731-12.538147,6.755738-5.368942-1.858124-7.825401-7.059082-5.772041-13.492157c8.207092-25.712311,17.633698-50.989258,27.618752-76.058899c6.716903-16.864258,13.498191-33.70282,20.228172-50.561859.791199-1.981934,1.439743-4.020844,2.073349-5.805085-1.475632-2.035064-3.481552-1.964264-5.123184-2.650451-4.650124-1.943695-7.274552-6.299835-6.405709-10.664978.959145-4.818817,5.005982-8.048432,10.058342-8.027191c10.616684.044647,10.563553.021789,14.795426-9.813324c25.032623-58.176972,51.420029-115.696549,82.979446-170.701889.988755-1.723328,2.132935-3.431382,1.87085-5.580124-.537323-4.405442.388199-8.272736,3.958465-11.244614c1.311966-1.092087.910065-2.772614,1.240021-4.199127c1.237183-5.348946,5.048676-8.947106,10.214813-9.641213c4.35933-.585693,8.80687,2.537239,11.346421,7.403038c2.861602,5.482849,3.784332,10.537613.649566,16.530869-2.734985,5.228943-.117309,11.189743.479004,16.704834c1.718964,15.898269,2.735932,31.843155,3.445099,47.788513c1.109924,24.957794,1.543701,49.945389,2.317352,74.918716.097779,3.156373.817383,6.311921.720765,9.4516-.156678,5.090332,2.096862,5.331787,6.232696,4.114715c9.595947-2.82373,19.032807-6.084167,28.42099-9.509125c1.251312-.456482,2.494324-.963073,3.780792-1.291076c6.558106-1.671997,8.110932-4.090637,7.292633-10.984375-.214233-1.805115-1.06018-2.592987-2.643188-3.12793-4.444855-1.502045-6.345825-5.08194-7.430451-9.317139-3.611724-14.102737-.910156-27.595749,6.87436-39.187072c6.858764-10.212845,9.814788-20.45549,9.471161-32.59433-.233765-8.257508.327453-16.634918.636322-24.954605.291442-7.850556,4.892913-13.111771,11.409942-13.418473c7.193695-.338562,12.276062,5.78917,9.704224,12.565949-2.607666,6.870941.437195,13.288711-.423859,20.602539c4.985932-2.067505,7.792969-5.449616,11.154846-8.008987c20.18338-15.365387,41.695465-28.141221,66.566773-34.39502c7.665832-1.927551,15.434845-2.562195,23.229034-.697266c12.942475,3.096756,20.170716,14.541428,17.535248,27.633042-1.975494,9.813095-6.524567,18.504577-11.850189,26.812072-13.252411,20.672654-29.126831,39.353653-44.606659,58.32782-19.903473,24.396332-39.869446,48.7417-59.789826,73.124237-1.457885,1.784455-2.764709,3.692322-4.766204,6.381928c3.180236.277008,5.563903.695129,7.940948.660187c39.065643-.573761,69.553314,16.176239,93.850769,45.917266c10.161469,12.437928,19.249848,25.535737,26.986633,39.585907c3.54007,6.428864,7.745606,11.032837,16.248597,9.150055c4.46228-.988098,9.028381,2.842011,10.144989,7.14383c1.183868,4.560882-.835266,8.962463-5.197327,11.329773-9.644043,5.233856-23.208008,3.052917-31.450012-5.127625-3.568421-3.541839-6.444-7.600769-8.878144-12.018524-10.275116-18.648376-22.709472-35.62915-38.146759-50.430359-16.373321-15.698761-36.146759-22.624603-58.338592-23.761108-6.652863-.340729-13.333038-.216156-19.974701-.678253-3.009369-.209412-3.708923.930053-3.943054,3.571136-1.189636,13.419739-2.593872,26.820465-3.771668,40.241119-1.425384,16.241974-2.623199,32.504029-4.075653,48.743409-.587616,6.569702-9.517792,13.042358-16.045929,11.941742-5.277038-.889679-9.194977-6.137696-7.736908-11.456177c5.81894-21.225006,4.815216-43.177277,7.180451-64.762909c2.572143-23.474213,4.570495-47.011444,6.781433-70.52475.229523-2.440979.701233-4.931824-.255432-7.342651-1.905518-.615174-3.322144.488189-4.774567,1.155792-10.163513,4.671692-20.595245,8.636505-31.465332,11.263306-4.008789.96878-4.761658,3.027618-4.546844,6.776001c1.104522,19.276092,2.031372,38.56314,2.901214,57.851745c1.18573,26.294312,2.330475,52.590637,2.060333,78.925629-.041931,4.084564-.528717,7.973236-2.712707,11.49649-2.660217,4.291474-7.56308,6.303131-11.989212,4.9646-4.730957-1.430664-7.813217-5.952484-7.511063-11.122986c1.382752-23.661194-.312393-47.268982-1.20285-70.890961-.40155-10.652038-.769791-21.305419-1.195572-31.956451-.319275-7.986603-.706284-15.970459-1.069412-24.434143m90.688751-42.219605c17.238861-20.960998,34.549255-41.863647,51.69455-62.900909c14.40686-17.677307,29.161041-35.111206,40.934448-54.758301c2.568329-4.285934,4.847412-8.708938,5.953247-13.675094.648865-2.913971-.482147-3.993592-3.213074-4.201401-3.890747-.29599-7.681732.382049-11.342651,1.44252-32.110474,9.301773-58.162049,28.107529-80.986359,51.915772-1.161072,1.21112-1.960144,2.652053-2.071258,4.430603-.311066,4.9776-.61966,9.957061-1.052735,14.925018-1.530365,17.555801-3.224945,35.098221-4.605926,52.665451-.412049,5.242157-1.726014,10.509827-1.024842,16.976593c2.299683-2.74054,3.782837-4.508026,5.7146-6.820252m-159.67627,6.225312c-2.849395,6.57782-5.698776,13.155639-8.70285,20.090545c1.673081.174622,2.19902.379242,2.627075.252747c23.278702-6.880402,46.53888-13.823792,69.833268-20.650421c2.982574-.874085,3.301727-2.792328,3.122436-5.324066-1.198746-16.928162-1.655624-33.88321-2.053299-50.847229-.413147-17.623154-1.197098-35.238724-1.945694-52.852219-.219772-5.171112-.871338-10.323883-1.456192-16.977615-22.825409,41.834167-42.447189,83.490692-61.424744,126.308258Z" stroke="#5AC3FF" stroke-width="15" fill="#5AC3FF"/><path d="M823.375977,142.701965c.859252-4.396911,2.201171-8.147995,4.994995-11.182586c3.438659-3.73494,8.176819-4.484551,12.206299-2.081406c3.988769,2.37886,5.763916,7.044647,4.005126,11.707703-1.740661,4.615127-2.247009,9.31427-2.278503,14.185653-.2099,32.48317.174072,64.958832.894531,97.433716.080445,3.626465,1.144471,4.952698,4.892945,4.928192c20.318237-.133087,40.618713-.689697,60.886596-2.119934c2.439698-.172149,4.861878-1.074707,7.217346-1.862411c5.968445-1.995972,10.940735-.597122,13.530274,3.954574c2.763794,4.857697,1.358765,10.767762-3.583496,14.604401-4.528504,3.515411-9.927612,4.518982-15.446594,5.033386-19.92273,1.856812-39.90033,2.089447-59.889588,1.992218-7.502197-.036499-7.427063.003205-7.509155,7.682587-.286621,26.820587.770264,53.613861,2.209717,80.375763.91864,17.079681,2.939392,34.105224,5.956115,50.9776.595948,3.333313,1.081971,6.505035,5.657166,6.818359c2.125305.145539,3.75592,1.98468,4.938599,3.918c3.724792,6.088745,2.835815,16.170898-1.934754,21.571563-6.592529,7.463257-17.669617,6.072418-22.514099-3.039367-5.571411-10.478974-7.124329-22.124543-8.867371-33.619934-6.4328-42.424378-7.102966-85.184876-7.102294-127.976197.000122-6.626373-.047913-6.787689-6.623047-6.588562-13.640747.413056-27.283814,1.375-40.849671-1.04129-3.800903-.677002-7.49237-1.700287-10.707031-3.903565-5.356567-3.671142-6.967346-10.404113-3.761658-15.269714c3.229187-4.901321,11.513733-7.432861,15.861084-3.820267c4.290345,3.565201,8.77826,3.633774,13.5271,3.157944c8.146179-.816193,16.300964-.733063,24.458191-.818634c7.509643-.078796,7.525818-.043365,7.493347-7.371323-.118225-26.653945-.25708-53.30783-.368591-79.961792-.038391-9.17659.998352-18.256576,2.706421-27.684677Z" stroke="#000" stroke-width="15"/><path d="M454.34552,479.154327c10.962952-.373657,21.451508-.565521,31.917572.552185c4.360657.465668,8.54599,1.489869,12.210846,3.998658c4.775055,3.268768,6.313965,8.621277,4.028961,13.618072-2.148163,4.697632-7.242859,7.412659-12.507324,5.601105-5.553375-1.91098-11.150635-1.794006-16.771606-1.845673-29.49823-.271179-58.891785,1.840424-88.294373,3.898499-25.235504,1.766327-50.463409,3.652222-75.596039,6.480499-27.604828,3.106476-55.192856,6.454804-82.696075,10.348419-36.559174,5.175476-73.036652,10.932129-109.534272,16.536621-16.452766,2.52649-32.8609,5.377442-49.601905,4.954041-1.662667-.041992-3.35402.006836-4.979111-.283142-4.94598-.882813-8.630566-5.080383-8.618301-9.620789.013294-4.921631,3.70272-9.238464,9.069282-9.63031c15.129288-1.104675,30.030464-3.789856,44.991142-6.067566c29.10038-4.430359,58.183342-8.975586,87.288781-13.372284c26.140808-3.948852,52.329574-7.536651,78.575119-10.75238c23.776214-2.913178,47.589569-5.43277,71.44461-7.50827c20.219849-1.759217,40.482361-3.059662,60.739777-4.3461c15.943146-1.012512,31.907287-1.694336,48.332916-2.561585Z" stroke="#5AC3FF" stroke-width="15" fill="#5AC3FF"/><path d="M524.398071,371.803284c1.299927,23.895294.634278,47.422943,3.921692,70.727173.393799,2.791046,1.060425,5.542877,1.568482,8.318725c1.014221,5.541626-2.336121,11.607025-7.337769,13.323364-5.06958,1.739655-10.303528-.851318-12.912079-6.577423-2.668731-5.858337-3.172241-12.252227-3.786804-18.503814-2.085602-21.214661-2.659546-42.516449-3.081696-63.820771-.4953-24.994629.684845-49.962158,1.185944-74.940002.11911-5.938446,1.278565-11.859772.332703-18.364563-9.925843.887787-19.671997,1.34259-29.34787,2.860046-4.574494.717438-8.650696-.51831-11.460175-4.444-2.381744-3.327972-2.277405-6.837738-.177429-10.313965c1.575287-2.607666,4.01236-3.725158,6.891998-4.460815c10.181122-2.600983,20.633515-3.648834,30.952942-5.419403c4.126374-.707947,5.208039-2.716217,5.418061-6.250046c1.026672-17.271317,2.021179-34.545151,3.176391-51.808075c1.154236-17.24791,1.911987-34.539505,4.973114-51.605774.775574-4.324097,1.888794-8.512512,5.568421-11.383911c3.490722-2.72403,7.336486-3.315827,11.142089-.857346c3.870728,2.500611,5.65271,6.221421,4.215393,10.757599-1.893554,5.975861-2.080505,12.15065-2.216735,18.255371-.482849,21.642731-2.4068,43.185868-3.960877,64.756562-.430298,5.972946-.642334,11.962875-1.14447,17.929016-.360107,4.278152,1.349792,5.109909,5.311707,4.286255c15.300109-3.180832,30.651184-6.116806,45.983154-9.144394.489746-.096711.974914-.225159,1.468445-.292786c8.156799-1.117767,13.542663,1.925766,14.752014,8.328461c1.071655,5.673568-3.193665,11.378036-10.612488,12.943405-17.08606,3.605163-34.222473,6.999328-51.411072,10.073334-5.11615.914978-7.417541,2.864959-7.499695,8.251861-.441467,28.969513-2.152404,57.911865-1.913391,87.375916Z" stroke="#000" stroke-width="15"/><path d="M328.695312,529.635376c17.013978-1.646668,33.551545-3.482483,50.128663-4.832214c18.075195-1.47168,36.149871-3.222229,54.318634-3.03711c7.018341.071472,13.987945.735596,20.446136,3.828064c5.380249,2.576355,7.742432,7.137268,6.437775,12.082764-1.314972,4.984558-6.261658,8.140381-12.120728,7.280151-19.148742-2.811157-38.240021-.638-57.292145.81189-23.220794,1.767212-46.385467,4.273132-69.573608,6.468079-23.687103,2.242065-47.270904,5.342895-70.845779,8.52069-41.720337,5.623841-83.114548,13.244324-124.613579,20.228882-5.38646.906616-10.871971,1.596924-16.405373,1.304505-6.701103-.354187-11.928039-4.342041-12.739906-9.858399-.779106-5.293762,2.420959-9.764587,8.918182-12.261169c4.282631-1.645691,8.573326-2.061829,13.178757-.848145c5.865685,1.545777,11.525795-.992309,17.180321-2.016723c43.858352-7.945496,87.812256-15.232544,132.050491-20.768128c20.133942-2.519409,40.249847-5.160461,60.932159-6.903137Z" stroke="#5AC3FF" stroke-width="15" fill="#5AC3FF"/><path d="M723.097656,248.720276c13.425843-3.079727,21.766541,3.755401,20.250916,16.182953-.957398,7.849609-8.765381,11.716736-15.040039,7.008117-2.806031-2.105743-4.644715-1.64624-7.067993-.113983-4.789978,3.028809-9.559876,6.089752-13.788758,9.883545-4.598083,4.125061-5.115967,6.874146-2.272217,12.326447c3.945862,7.565246,10.366089,12.953705,16.640809,18.422271c7.40686,6.455201,15.055053,12.65506,21.18634,20.419648c20.227722,25.615936,8.009277,61.441497-12.6203,76.279113-13.082398,9.409363-27.9599,13.057984-43.582276,14.019562-9.766601.601197-19.648804,1.062989-29.375915-.964874-10.029847-2.091034-15.55127-8.672974-14.699036-17.625885.4599-4.830841,2.651245-8.613281,7.537476-10.167572c4.787353-1.522827,8.519958.351776,11.233581,4.252197c1.392212,2.000977,3.133057,2.881775,5.423889,2.961151c11.839539.410248,23.646057.260498,35.186341-2.864441c16.356506-4.429077,26.546386-14.680481,29.245422-31.68515c1.176453-7.412018-.659119-14.203308-5.153992-20.244323-4.926635-6.621338-11.538757-11.495423-17.58136-16.960328-8.766601-7.928405-17.83966-15.562622-23.179443-26.518585-6.671326-13.68808-4.763367-25.843506,5.995239-36.454651c8.842835-8.721557,19.444397-14.450805,31.661316-18.155212Z" stroke="#000" stroke-width="15"/><path d="M638.283203,438.692383c-.419678,2.408386-.599914,4.440552-1.274597,6.292511-1.783936,4.89621-7.142578,8.486084-11.978455,8.270843-4.846252-.215698-8.588806-3.335693-10.196899-8.841705-1.500671-5.137848-1.918457-10.478455-2.045837-15.789185-.671265-27.968658.183105-55.887725,2.672546-83.765808.783325-8.7724.858948-17.609802,1.193909-26.419952.391845-10.307861.613342-20.623108,1.099304-30.926178.336914-7.142456,5.341858-12.232117,11.054565-11.627655c6.01062.635986,10.163025,6.780548,9.015259,13.786316-.418091,2.551361.040344,4.961426.141968,7.438751.751098,18.314026-.128357,36.569031-1.347229,54.85318-1.293884,19.410004-2.925904,38.835571-2.325379,58.329224.144349,4.685363,2.556824,8.869476,3.174378,13.526733.638306,4.81308.888733,9.59024.816467,14.872925Z" stroke="#000" stroke-width="15"/><path d="M638.711182,216.319901c3.10791,3.607254,3.940612,7.359787,1.924987,11.324783-2.18927,4.306427-6.129638,5.313217-10.577087,4.708664-2.943603-.400116-5.939148-.776459-8.758118-1.655228-4.69812-1.464584-7.351867-5.712738-6.879394-10.288528.496399-4.807892,3.713318-7.860382,8.704468-8.789566c5.91986-1.102112,10.658203,1.422805,15.585144,4.699875Z" stroke="#000" stroke-width="15"/></g></svg>
