<svg id="epPW93dEoXS1" xmlns="http://www.w3.org/2000/svg" xmlns:xlink="http://www.w3.org/1999/xlink" viewBox="0 0 1024 1024" shape-rendering="geometricPrecision" text-rendering="geometricPrecision" project-id="47ef31faf461492e99d3659763257bc0" export-id="2d62e678080f4c3195c430fb921b0eac" cached="false"><path d="M1025,318.555847c-1.751892,5.921631-.105713,11.666046-1.554871,17.248596-3.711303,14.297577-7.580078,28.423706-14.740295,41.575165-4.276245,7.854462-7.491455,16.178681-13.20166,23.331787-7.431763,9.309754-16.037537,17.277252-25.35907,24.51886-28.014587,21.763855-59.873962,34.689728-94.541565,41.503449-12.370422,2.431274-24.75415,4.419891-37.252197,5.903228-3.561035.422577-7.057495,1.389344-11.693848,2.332459c3.887756,5.406525,8.140015,9.445892,12.727417,13.069733c6.671631,5.270416,11.571777,11.792572,15.313233,19.373809c3.53363,7.160126,2.891296,14.838654,1.953002,22.089569-1.290893,9.975769-2.082946,20.054993-4.377868,29.9245-4.992615,21.471924-12.602295,41.934936-22.673767,61.521484-1.257874,2.446167-3.052307,4.2146-5.643128,4.372315-3.455749.210266-4.100403,2.11438-4.902588,5.025329-3.348999,12.152466-6.099792,24.480164-11.605102,35.99231-4.489868,9.388855-10.9422,13.825561-21.790161,14.141724-13.979737.407409-23.790833-5.909485-32.446045-15.582093-.671448-.750427-1.318665-1.522033-.974426-3.117859c5.074035-3.04071,10.958068-2.389587,16.625-1.934875c4.762207.382202,9.467407,1.624939,14.163757,2.643799c8.169617,1.772217,11.899597-.055176,15.814636-7.458435c5.008606-9.471314,7.920288-19.723511,11.525269-29.725098c1.054321-2.92511.309814-4.381042-2.316468-6.012329-20.952514-13.014282-43.582763-21.928894-67.322509-28.314575-11.929505-3.208863-23.981629-5.546448-36.340882-4.768738-6.20166.390198-10.886841-1.819763-14.30188-6.395203-3.952026-5.295044-7.777282-10.884765-8.409912-17.788025-.59259-6.466125,1.942627-9.658142,8.144226-11.081482c7.76239-1.781555,14.51941-1.910217,20.966126,4.756775c3.130615,3.23761,9.471985,3.431153,14.401672,4.85846c27.692078,8.017456,53.704163,19.600281,77.234619,36.416992c3.367798,2.40686,6.6969,4.969116,9.596436,7.901917c2.987976,3.022338,4.814087,3.230407,7.185181-.684388c8.837524-14.591186,15.795593-29.98114,20.47052-46.388244c2.847473-9.993347,6.095764-19.91333,6.320556-31.056763-11.890808,4.98938-24.09021,3.440002-36.132202,3.60321-6.059998.082093-12.507629-6.608581-12.072144-12.651489.403626-5.600952,5.472413-5.335693,9.202271-6.688263c10.201721-3.699371,21.164124-.978424,31.945435-3.848083-7.017456-7.521698-14.534302-14.245301-20.792237-22.12146-.41156-.518036-1.097656-.859497-1.393921-1.421326-4.902649-9.296051-12.89331-6.724823-20.672363-5.601166-8.676392,1.253235-17.410644,2.102478-26.113037,3.181427-10.518372,1.304108-21.096985,2.480347-31.625732,3.133576-14.010987.869385-27.962769,2.763428-42.25702.832886-10.850708-1.465455-19.643249-4.878724-27.259704-12.571961-3.568665-3.604675-8.137512-5.078003-13.637146-3.161011-3.836487,1.337342-8.146668,1.768799-12.251953,1.803315-17.150147.144165-34.290589,2.214538-51.416626.977203-7.237915-.522949-14.641663.005676-21.746033-1.953735-13.613708-3.75467-18.331543-11.038971-15.03717-25.770173.929626-4.156951,2.181945-8.334411,4.694702-12.013122c1.05957-1.551178,1.815979-3.530487,1.367615-6.285736-12.743653,3.318664-25.556519,1.253296-38.273194,1.93631-11.346863.609466-22.610046-.540314-33.871673-1.318848-10.801667-.746735-19.884766-11.619629-18.906708-21.957611.64032-6.76767,5.931763-10.970642,9.66803-15.958832c8.076233-10.782379,16.354889-21.412994,24.526184-32.12442.581299-.762024,1.275848-1.573212.807251-3.049927-12.007355-1.694-24.236908-1.684418-36.465393-2.130066-18.930207-.68985-37.880646.136933-56.815583-1.819793-11.185394-1.155915-22.53894-1.183655-33.801727-2.012269-1.979645-.145629-2.989105,1.405243-3.923614,2.707093-10.953949,15.259857-22.61493,29.984833-33.894501,44.996368-12.740357,16.955628-22.219422,35.911011-32.036011,54.618683-9.115845,17.372284-17.3414,35.160187-24.448944,53.965698c3.041321.445557,5.216095-.949859,7.347321-1.850586c22.104736-9.342132,45.174926-15.779998,67.95993-23.119507c13.071289-4.21051,26.190063-8.308105,39.478119-11.547302c19.560333-4.768219,39.284576-9.175415,59.29306-11.621368c16.277222-1.989838,32.620392-3.75174,49.133331-3.030213c4.645295.202973,8.830384,1.215363,12.811036,3.119751c3.511291,1.679841,2.011291,4.84076,1.006164,7.36493-3.709106,9.314514-10.806,15.610321-18.641571,21.52597-13.774139,10.399139-27.012268,21.492218-39.832306,33.06424-.965698.871704-1.789337,1.900634-3.141571,3.353515c4.243225.613465,7.921875,1.553711,11.612457,1.603089c11.626282.155456,23.069703,2.255615,34.636292,3.093505c10.342712.749268,20.749756,1.630372,31.09845,2.952759c8.787903,1.122925,17.668396,2.494202,26.587524,2.711731c8.427185.205506,15.989502,3.732178,23.914917,5.853028c3.530762.944824,5.114624,3.696411,4.997437,7.185485-.119934,3.571839-2.760254,5.199341-5.820984,5.922425-11.924866,2.817382-23.880493,5.455993-35.932495,7.740783-25.986695,4.926453-52.323395,8.021424-77.960236,14.778809-.944946.249084-1.846222.663879-3.235901,1.172913c3.507752,1.39862,7.246308-.47461,10.622193,2.174682-4.123719,3.802307-9.134644,3.705872-13.594513,4.626953-26.957276,5.567383-54.248963,9.723328-80.257935,19.216309-17.109344,6.24469-33.311737,14.25708-48.435608,25.487366c3.955017,2.371643,2.787781,5.394775,1.275147,8.364624-5.821595,11.430236-12.409241,22.415527-19.60846,33.022888-11.793091,17.37616-22.979065,35.099975-31.14624,54.529419-8.124787,19.328552-14.842072,39.144104-20.274597,59.404846-4.941162,18.428284-9.331269,36.949768-12.399628,55.810608-1.326508,8.15387-3.500671,16.148865-3.588623,24.497436-.028397,2.69574.774704,4.281556,3.413315,5.279236c7.138809,2.699402,14.123642,5.812134,21.291824,8.425598c5.261017,1.91803,10.526917,3.614685,16.387207,3.596619c11.559693-.035583,22.382691,4.440002,33.613648,6.542542c6.345306,1.187866,12.735809,2.033569,19.073913,3.216247c2.154968.4021,3.208527-.384277,3.933014-2.629578c1.546753-4.793396.352265-10.008728,2.517853-14.650573c4.101074-8.790467,1.574371-18.346375,3.063354-27.494324c1.156861-7.107605-2.165466-14.359924-1.891449-21.715393.940003-25.232605,6.024903-49.653076,14.949219-73.21405c6.813904-17.989197,16.015534-34.691956,28.163727-49.759156c16.558228-20.536865,36.774445-36.43518,59.930969-48.854614c22.552155-12.095337,46.231476-21.038208,71.250092-26.473633c13.814026-3.001281,27.789428-4.841613,41.889648-4.907226c6.836487-.031739,13.784119.50592,19.590759,5.689331c3.082093,2.751282,7.975403,1.640075,12.012757,2.169311c16.231262,2.127442,32.221618,5.435974,48.290466,8.470032c21.152893,3.993897,41.914368,9.461304,62.71582,14.783142c12.35608,3.161194,24.858643,6.29419,36.000367,12.958435c3.432678,2.053162,6.680847,4.385987,7.325134,9.562744-4.495422-.474731-7.981201-2.839477-11.764649-4.108581-18.154357-6.090027-36.982788-9.300476-55.593566-13.479981-11.146973-2.503357-22.454163-4.146362-33.671997-5.979797-14.640687-2.392822-29.507569-3.721558-44.343323-5.036682-14.366883-1.273621-28.907593-.271668-43.131958-3.336487-2.412903-.519897-4.9375-.975464-5.140076-3.773071-.179565-2.480652,2.218445-3.484925,4.147827-4.47699c2.04303-1.050476,4.122437-2.030396,6.0719-3.764465-4.661988.314514-9.382203.265319-13.976929,1.000366-39.904053,6.384399-76.957977,20.043274-110.485291,42.981628-30.683593,20.992737-52.310058,48.91095-64.981506,83.731446-4.536865,12.467041-7.244202,25.473327-9.934723,38.47882-2.549194,12.322327-1.984985,25.274537-6.099762,37.106202-4.208801,12.10205-2.739105,24.51947-4.445099,36.712097-.722656,5.165039,2.042023,10.3349,1.938019,15.721618-.167511,8.676453-2.089844,10.717163-10.935394,11.090821-20.759796.877014-41.118469-1.808533-61.514832-5.604737-34.896637-6.495239-67.000732-19.40332-96.590225-38.889221-19.739563-12.999389-34.894028-29.898559-45.769455-50.949402-14.822616-28.691345-23.82592-59.259033-31.19223-90.507995-4.096665-17.378662-7.420288-34.873352-10.382431-52.454529-.711357-4.222107-1.14563-8.516968-1.317322-12.793945-.099518-2.479187-1.026276-4.478943-2.25135-6.738465-2.44236,1.526978-3.164208,4.045838-4.05703,6.448303-5.840416,15.715882-7.146744,32.303223-9.541466,48.702942-1.820579,12.467835-3.510994,24.913208-3.7145,37.535828-.043045,2.670044.498016,5.235107.862381,7.947815-2.70549,1.422058-4.510704,1.569824-6.142098-1.55542-2.718483-5.207703-7.856079-8.454956-11.301292-13.221924-7.530743-10.419739-12.263863-21.936218-16.030792-34.12323-4.857849-15.716491-8.085122-31.763-10.376187-47.964233-1.685219-11.917114-3.91476-23.76117-4.610679-35.855469-1.008381-17.524536-2.481816-35.022217-3.572258-52.548828-1.363572-21.916626-.108029-43.818512-1.252816-67.089294-8.997264,19.184143-17.026748,37.342468-22.400508,56.4151-5.321715-.767884-6.663308-3.761231-7.401249-7.431214-2.70955-13.475281-1.860517-27.134582-2.193711-40.73172-.416493-16.996399,4.157176-33.134613,8.26269-49.401916c3.794599-15.03537,9.727222-29.248932,15.820211-43.386383c4.209067-9.766236,8.221123-19.983521,14.454663-28.423523c8.899353-12.049469,15.095413-25.940338,25.094238-37.032227c7.239303-8.03067,13.067085-17.383056,20.822288-24.613586c7.599953-7.085816,15.060212-14.547699,23.444176-20.775757c2.906136-2.158844,3.316795-3.9841,2.476669-7.013702-1.589882-5.733307-2.637947-11.219849.505959-17.158417c2.660889-5.026245,5.834328-8.366181,11.484497-9.024231c10.215942-1.189774,19.844574-5.916275,30.101379-5.986435c10.419159-.071274,20.745163-2.845078,31.26326-.587509c10.767075,2.310974,20.056519-2.584336,29.482621-6.851578c25.948852-11.747192,52.649978-21.422119,80.098495-29.120911c11.342651-3.181411,22.672302-6.343612,34.136475-9.059997c8.027801-1.902146,16.141876-1.971375,24.277191-1.741501c3.291687.093017,5.838135-.874436,7.869293-3.39444c7.660919-9.504684,16.484009-17.872253,25.779327-25.71318c21.053345-17.759201,42.854126-34.361756,69.544617-43.054184c7.438049-2.422394,7.284973-2.406128,11.759552,4.18071c7.664154,11.282165,15.802246,22.253585,22.032868,34.450424c5.692993,11.144409,11.092041,22.399963,10.763275,35.349365-.09903,3.900421,2.075744,4.308792,5.108856,4.126373c19.049438-1.145599,37.640076,1.051346,55.470703,8.106659c4.778625,1.890808,9.526428,4.05484,13.880737,6.751724c2.745056,1.700211,4.541016,1.423188,7.137574-.020904c12.014526-6.682083,25.06604-10.550354,38.40625-13.515762c4.36383-.970063,8.606506.372085,12.83435,1.166381c1.927796.362137,3.177307,1.670823,2.855469,3.980652-1.94281,13.944565-2.789795,28.120484-9.107361,41.107209-1.514587,3.113311.078796,6.133361,3.61676,6.413696c8.343262.661163,16.703064.360962,24.504761-2.983734c2.88092-1.235077,5.619141-1.894898,8.648193-1.754578c2.860169.132416,5.660645-.123108,8.336426-1.21994c5.05835-2.073532,9.46991-.988526,13.243042,2.818756c2.642029,2.665832,5.386902,4.580475,9.487976,4.696197c4.690308.132355,7.48169,3.923066,10.549317,6.971772c5.46643,5.432708,6.606933,5.338012,11.175354-1.118775c5.49237-7.762817,11.536316-15.059723,18.477111-21.553772c9.756226-9.128372,19.991944-17.681488,32.930787-21.97789c10.712158-3.556991,21.858093-5.285339,33.004638-6.881851c10.956299-1.569229,21.924439-3.056671,32.875916-4.658142c4.2724-.624756,8.578308-.590988,12.879761-1.14093c32.12207-4.106812,64.375793-6.23877,96.783935-5.145004c3.625977.122375,7.216675.426361,10.868652.040054c5.770997-.610458,11.305603-.1987,15.303284,5.020492.732178.955887,2.192932,1.687836,3.418213,1.879883c11.539429,1.808716,18.689453,10.150696,24.969055,18.440247c12.508423,16.512085,19.918579,35.630356,24.127075,55.855789c1.306641,6.279541,1.209473,12.851196,1.903199,19.667969.148193,2.74942.148193,5.119964.148193,7.934692M22.466805,448.878387c-8.475423,22.42508-7.420443,46.143494-9.511971,69.539155c5.679741-18.569977,17.245234-34.386506,23.460594-52.582703.667122-1.953003,1.247578-4.420075,3.76981-3.605316c2.499138.807342,3.239784,3.05011,1.891941,5.697082-.503204.98822-.740253,2.235871-.708626,3.354187.644241,22.780548-.651371,45.550202.872551,68.374848c1.068821,16.008117,2.416031,32.031128,3.056927,48.085205.323635,8.106872.815708,16.293213,2.282108,24.250061c2.992699,16.238708,4.847916,32.654785,8.376015,48.818725c4.025261,18.441773,9.596062,36.25293,18.042312,53.149659c1.833573,3.66809,3.605279,7.344299,6.305466,10.475158c2.693337-6.575561,1.756851-13.32782,2.513413-19.888183c1.820221-15.78357,2.514061-31.696839,5.730377-47.33014c2.523201-12.264221,4.531402-24.589965,15.210495-33.093322c2.169418-1.727478,10.855171-.842713,11.942131,1.589966.492355,1.101989.049438,2.306396-.784218,2.621826-5.960182,2.254822-3.920982,7.228271-3.270332,11.007141c2.520294,14.637451,5.398041,29.220154,8.462837,43.755676c6.165489,29.241333,13.716682,58.105591,25.280739,85.747192c7.524078,17.984925,16.103561,35.42212,29.366745,50.061219c5.015442,5.535705,9.425094,12.080139,16.050003,15.523803c10.83493,5.63202,20.420914,13.085389,30.806167,19.320862c5.783356,3.47229,12.262864,5.41919,18.717438,7.151795c8.994354-64.478577,21.499039-127.209717,54.384506-184.095581-1.411682-1.81482-3.10733-3.410157-1.686462-6.435303c8.166199-17.386902,19.240479-32.730408,33.126282-45.852539c16.442627-15.53833,36.098419-26.04718,57.216461-33.771301c17.31662-6.333802,35.014954-11.225342,53.442627-13.363526c4.369415-.506958,10.310242-.271789,10.985962-7.265014.077453-.801575,1.207947-1.539368,1.920105-2.235169c3.335266-3.258667,7.710327-4.458374,11.909179-6.0531c10.911164-4.144104,22.583008-5.493897,33.604432-8.90625c12.124725-3.753907,24.543975-3.802247,36.803497-5.503052c9.410583-1.305664,18.830322-2.990662,28.411011-3.04419-8.623658-.757812-17.258362-1.209472-25.820923-1.635193-22.737702-1.130188-45.537232-1.256103-68.290009-2.498107-2.163482-.118042-4.309509.509033-6.422333.617309-7.281738.373291-15.190185,5.009094-21.03009-4.264221-3.320892-5.273377-4.456177-6.710022-.197632-11.7323c12.62085-14.884064,26.847565-28.211517,41.046723-41.550171c5.734314-5.38681,11.587829-10.646759,17.655609-16.210693-27.42276-8.879395-195.848267,36.651977-216.435303,58.148315.473175.446167.934876.901856,1.41806,1.333496c1.957306,1.748291,4.769959,3.319397,3.435212,6.472107-1.17096,2.765747-4.165314,2.888367-6.826264,3.281922-6.958954,1.029174-12.887329,1.191223-16.213684-7.270325-2.711975-6.898621-2.844971-10.291748,3.533539-14.333618c3.043884-1.928772,4.821381-4.320008,5.516876-7.809509.418915-2.101838,1.439331-4.076081,2.010437-6.15683c1.429718-5.208649,5.555115-10.099488,1.854523-15.978394-.372894-.592377.194183-1.920563.56189-2.809265c1.332916-3.221466,2.708099-6.428375,4.173004-9.591858c5.742584-12.401215,13.994812-23.40979,19.615142-35.916229c11.140961-24.790985,24.28357-48.514374,39.067566-71.336609c4.300354-6.638458,8.923645-13.006012,15.282776-19.593048-10.809417-.925232-20.129547-3.10315-29.720276-3.21164-1.650878-.018646-2.785064.87381-3.938903,1.876557-4.803284,4.174347-10.222077,4.764465-16.347321,3.452392-9.659668-2.069152-19.110779-5.290496-29.209991-5.885894-2.306641,4.969604-2.535981,10.074554-2.095002,15.183715.435761,5.048737.077057,9.979859-1.296936,14.818085-.623779,2.196381-2.402649,4.160858-4.013855,1.36554-1.47818-2.564514-3.492736-4.791596-4.642364-7.581818-2.910065-7.062775-4.943207-14.354584-6.242096-21.867004-.601074-3.476441-2.38179-6.102417-6.104614-6.145447-3.860138-.044647-7.573578-1.080811-11.375885-1.205139-16.131134-.527466-32.247116-1.392517-48.407227-1.209473-9.824005.111267-19.563049,1.92981-29.411392,1.120148-6.436478-.529114-6.371475-.476654-6.575134,6.111084-.31894,10.317413-.542389,20.643677-1.164734,30.944549-1.124451,18.611115-1.855103,37.293274-1.920853,55.871827-.078094,22.063171,1.813416,44.250366,5.354874,66.118957c4.465957,27.577454,8.509567,55.265869,16.560974,82.136719.826599,2.758728,2.176636,5.492248,1.870941,8.58789-2.616089.208436-3.126892-1.683898-4.187714-3.135559-5.038452-6.894653-7.593246-15.105835-11.288726-22.624939-5.546875-11.286132-10.6801-22.884521-15.597702-34.514343-11.007218-26.031372-18.872597-53.08786-24.564904-80.717102-2.192894-10.643829-5.134002-21.15387-6.375419-32.011444-1.312157-11.476379-2.632279-22.959534-5.110337-34.275299-2.505729-11.442169-4.291946-23.052826-4.479446-34.738312-.116333-7.250244-2.408005-14.404846-.013062-22.960724-9.271377,5.198731-17.062751,10.390686-23.658935,16.689759-12.185425,11.636627-21.987305,25.223053-28.452957,40.990142-1.071293,2.612397-2.50251,5.075379-3.720486,7.629761-9.600819,20.135376-18.735439,40.463623-25.786159,62.521362M534.651123,263.799561c25.885071,0,51.770081,0,78.555786,0-1.473755-1.803803-2.133423-2.755433-2.933349-3.569245-21.346863-21.717758-46.686524-36.156799-76.752686-41.855743-9.43219-1.787842-18.913696-3.233933-28.591736-2.808411-3.037231.133545-5.465668.490372-6.766174,3.805618-1.414642,3.606308-3.241974,7.171631-8.028259,6.979233-4.900879-.197037-8.110901-2.981216-10.516632-6.786056.836273-1.723114,2.242401-2.319016,3.439514-2.38797c4.898681-.282257,6.04068-4.132111,6.513733-7.583161.670868-4.894394.818451-9.945251-.317872-14.894088-3.180358-13.851227-10.124084-25.974686-17.441009-37.912095-1.501892-2.450302-2.565613-5.349472-5.923126-7.286163-4.108429,7.26857-8.35788,14.187363-12.030731,21.399765-10.024018,19.683975-20.929749,39.007706-24.429139,61.361267-.586364,3.745621-.925354,8.342377-5.264221,11.12442-2.23822-1.951965-2.852417-4.384033-3.084869-7.08641-.967011-11.24234,1.91513-21.733917,6.043182-32.014267c8.470337-21.094193,19.434937-40.87056,31.538941-60.055924.795044-1.260131,2.262695-2.525726,1.014129-4.618423-.939178.460388-1.889984.783813-2.681762,1.335556-18.003449,12.545364-37.587067,22.676392-54.965882,36.1884-25.078369,19.498368-49.017151,39.963196-62.332702,69.933853-.580475,1.306534-1.151093,3.157563-3.046326,2.756104-1.993408-.422257-2.070465-2.246491-2.144531-4.008209-.221955-5.282395,2.274597-9.662522,4.663025-14.022248c2.880157-5.257415,6.041931-10.360565,9.737152-16.644958-5.130677,2.652511-7.319825,6.703125-11.3555,8.589172-12.007263,5.611542-22.434539,13.320206-30.636779,23.909363-1.964386,2.536011-3.989197,4.857864-4.075043,8.385757c1.782654,1.394227,3.937713,1.389893,6.029236,1.852265c7.085693,1.566315,15.23294.576721,19.971252,8.143768c1.007538,1.609101,3.152527,1.512909,5.027069,1.674256c8.085938.696167,16.18158,1.359375,24.232422,2.365081c13.439087,1.678803,26.915314,2.864899,40.433167,3.590851c10.314087.553864,20.543274-1.007477,30.802429-1.362884c7.949737-.275391,15.804535-1.46991,23.759918-1.698731c4.5625-.131286,9.265594-.456421,13.883606-.961181c14.444794-1.578858,28.874145-3.356263,43.350586-4.564484c7.75885-.647583,15.633667.343475,24.323181-1.274078M626.60498,397.215057c-1.126098-9.274505,4.713379-16.59085,7.809388-25.189849-11.928528-2.174408-23.106385-4.362977-34.339295-6.218628-12.061828-1.992554-24.19873-3.531281-36.25946-5.53006-11.118592-1.842652-22.394654-2.41626-33.490113-4.530213-3.724487-.709564-8.005065-1.96759-11.061157,2.887818-8.767273,13.929046-17.954132,27.593963-26.97763,41.361694-2.917633,4.451569-.865662,9.17215,4.4953,9.656799c3.310181.299286,6.606995,1.092865,9.866638,1.11258c18.313629.11087,36.628998-.103577,54.943939-.149323c7.267945-.018158,14.192505,1.549683,20.350952,4.00647-4.984924,14.525146-9.7182,28.316833-14.800659,43.126221c28.428345.888153,55.590088-2.269532,83.529114.648651-3.674683-10.883393-8.933227-19.144989-13.984985-27.478424-6.138977-10.126831-10.188721-20.816895-10.082032-33.703736M254.703979,252.572021c6.338044.527375,9.35608-3.158294,9.750092-12.126358-10.304489,2.405503-19.809387,6.727234-30.763931,10.906159c7.657959.817871,13.962326-.255798,21.013839,1.220199m64.233857,391.883362c2.574341-2.57666,5.153137-5.148987,7.721801-7.731262c2.431244-2.444214,4.851929-4.898987,7.277283-7.349121-9.269745,7.230774-17.756561,15.152649-23.705383,25.372925c2.735657-3.26178,5.471344-6.52356,8.706299-10.292542Z"/></svg>
