<svg id="ehKkZUvNq1m1" xmlns="http://www.w3.org/2000/svg" xmlns:xlink="http://www.w3.org/1999/xlink" viewBox="0 0 2048 2048" shape-rendering="geometricPrecision" text-rendering="geometricPrecision" project-id="cb82ba2c344e49cfb8886b74d329645d" export-id="e6fd7a9d07e94064978e05b406a19f9d" cached="false"><path d="M1386.780273,414.711182c-9.828247,8.845672-19.16333,17.738128-29.135864,25.846557-3.461792,2.814759-8.594604,3.496491-12.788696,5.516846-2.578858,1.242279-4.914063,3.059204-7.20398,4.819336-6.434326,4.945831-13.438354,6.198975-21.561157,5.309143-23.569214-2.58194-44.71289-12.508026-66.133789-21.366425-25.911377-10.715362-50.346802-24.466308-73.521728-40.216766-15.820923-10.752289-30.845581-22.671905-46.296753-33.973297-17.042481-12.465241-34.163819-24.822784-51.265992-37.206085-.341674-.247437-.870971-.235688-1.001709-.267975c0,10.443603-.004638,20.806702.005738,31.16983.001343,1.330475.118042,2.660919.118286,3.991364.006592,40.328857.123413,80.658203-.037964,120.986419-.100464,25.119446-.480835,50.240113-.99939,75.354859-.454345,21.997314,2.217041,43.565918,8.195069,64.703857c3.251343,11.496948,2.73938,22.581177-1.578247,33.752136-1.6073,4.15857-2.063965,8.849793-2.515259,13.351258-1.463013,14.591125-5.694336,28.443603-11.815064,41.606445-3.890869,8.367615-8.611572,16.509705-14.048462,23.958557-7.257202,9.942993-18.463867,13.866028-30.088134,15.849182-15.953553,2.721802-31.977356,5.181519-48.059204,6.953858-12.324768,1.358215-24.790223,2.09729-37.185425,2.010864-20.795777-.144897-36.690369-8.881103-46.637573-27.957764-4.306153-8.258239-7.554505-16.508361-8.36554-25.797058-.170166-1.948242-1.691833-3.879638-2.880005-5.621399-7.874878-11.543396-7.989624-24.333313-6.282104-37.479187.59259-4.561828.966552-9.157409,1.286132-13.748413c1.375184-19.752929,2.700806-39.509338,4.029419-59.265503c1.008484-14.995605,2.033509-29.990173,2.979187-44.989807c1.049317-16.642273,2.10846-33.284851,2.993287-49.93631.798156-15.02301,1.445556-30.055298,2.016479-45.088867.741333-19.516876,1.246948-39.042908,2.031799-58.557861.624878-15.533661,1.516419-31.05661,2.369263-48.183685-3.157776,3.526062-5.47168,5.843994-7.483948,8.399444-14.512451,18.42981-28.743896,37.085999-43.510193,55.309113-10.18573,12.57019-20.967041,24.666778-31.709777,36.77301-6.284729,7.082458-12.71283,14.091217-19.604615,20.571411-20.650451,19.417389-41.553589,38.63266-66.172119,53.040772-13.458435,7.876586-27.67633,14.256347-43.870971,13.645141-11.425599-.431152-21.359681-4.698852-30.38147-11.709717-12.638672-9.821411-21.334534-22.586334-28.801697-36.453674-1.412415-2.622986-2.70752-5.292816-6.473755-6.57959-5.544006-1.894165-6.56665-9.871857-2.58136-15.480865c6.170777-8.685059,12.420899-17.317688,18.813294-25.840638c20.139221-26.85144,40.28894-53.69577,60.570617-80.439666c19.526001-25.747315,39.115235-51.448151,58.872498-77.018097c18.87323-24.425812,37.802002-48.814148,57.084961-72.916062c12.18512-15.230163,24.720703-30.212417,37.723511-44.747268c14.789673-16.532212,29.88446-32.834885,45.610717-48.468758c8.81427-8.762398,18.520997-17.145164,31.055603-20.417297c7.214173-1.883225,14.686707-3.042946,22.116272-3.704972c2.992859-.266685,6.6521.974556,9.210389,2.7072c31.807434,21.542129,65.14215,40.311889,100.604492,55.09896c28.746216,11.986618,57.68811,23.514069,86.668945,34.925492c27.268433,10.737198,53.421387,23.765899,79.036865,37.883865c30.026001,16.548874,59.038086,34.761108,86.548951,55.249191c14.786865,11.012238,29.175293,22.560059,43.72644,33.888184c20.959839,16.317413,39.843872,34.886658,58.764404,53.465851c6.188843,6.077057,7.674439,12.466675,5.480347,19.957519-1.890991,6.455811-4.750732,12.645874-7.465942,18.828827-.636475,1.449188-2.291748,3.223877-3.693726,3.437805-8.850098,1.350892-11.408325,9.464081-16.761353,15.07071Z" fill="#5c2d7a"/></svg>
